{
.appVersion = "3151";
.formatVersion = 3;
axes = (
{
name = Weight;
tag = wght;
}
);
classes = (
{
code = "a b c d e f g h i j k l m n o p q r s t u v w x y z
A B C D E F G H I J K L M N O P Q R S T U V W X Y Z";
name = LETTER;
},
{
automatic = 1;

glyphs = (
{
glyphname = A;
lastChange = "2023-12-27 12:08:37 +0000";
layers = (
{
anchors = (
{
name = bottom;
pos = (460,0);
},
{
name = bottomCenter;
pos = (300,-60);
},
{
name = top;
pos = (380,740);
}
);
layerId = m01;
shapes = (
{
closed = 1;
nodes = (
(520,700,l),
(520,0,l),
(399,0,l),
(399,299,l),
(199,299,l),
(199,0,l),
(80,0,l),
(80,521,l),
(253,700,l)
);
},
{
closed = 1;
nodes = (
(199,412,l),
(399,412,l),
(399,587,l),
(297,587,l),
(199,486,l)
);
}
);
width = 600;
},
{
anchors = (
{
name = bottom;
pos = (480,0);
},
{
name = bottomCenter;
pos = (300,-40);
},
{
name = top;
pos = (380,740);
}
);
layerId = "58E25AC2-F473-41C5-84EA-658E208701C1";
shapes = (
{
closed = 1;
nodes = (
(520,700,l),
(520,0,l),
(440,0,l),
(440,320,l),
(160,320,l),
(160,0,l),
(80,0,l),
(80,533,l),
(242,700,l)
);
},
{
closed = 1;
nodes = (
(160,392,l),
(440,392,l),
(440,628,l),
(271,628,l),
(160,514,l)
);
}
);
width = 600;
}
);
metricLeft = Auto;
metricRight = Auto;
unicode = 65;
},
{
glyphname = AE;
lastChange = "2023-12-29 02:38:19 +0000";
layers = (
{
layerId = "58E25AC2-F473-41C5-84EA-658E208701C1";
shapes = (
{
closed = 1;
nodes = (
(602,700,l),
(602,628,l),
(380,628,l),
(380,410,l),
(541,410,l),
(541,337,l),
(380,337,l),
(380,72,l),
(602,72,l),
(602,0,l),
(300,0,l),
(300,337,l),
(79,337,l),
(79,0,l),
(-2,0,l),
(-2,532,l),
(161,700,l)
);
},
{
closed = 1;
nodes = (
(79,410,l),
(300,410,l),
(300,628,l),
(190,628,l),
(79,512,l)
);
}
);
width = 600;
},
{
layerId = m01;
shapes = (
{
closed = 1;
nodes = (
(602,720,l),
(602,607,l),
(401,607,l),
(401,425,l),
(541,425,l),
(541,312,l),
(401,312,l),
(401,113,l),
(602,113,l),
(602,0,l),
(280,0,l),
(280,312,l),
(119,312,l),
(119,0,l),
(-2,0,l),
(-2,540,l),
(173,720,l)
);
},
{
closed = 1;
nodes = (
(119,425,l),
(280,425,l),
(280,607,l),
(219,607,l),
(119,504,l)
);
}
);
width = 600;
}
);
unicode = 198;
},
{
glyphname = B;
lastChange = "2023-12-27 12:09:18 +0000";
layers = (
{
anchors = (
{
name = bottom;
pos = (300,-60);
},
{
name = bottomCenter;
pos = (300,-60);
},
{
name = top;
pos = (300,740);
}
);
layerId = m01;
shapes = (
{
closed = 1;
nodes = (
(476,700,l),
(533,619,l),
(533,512,l),
(435,410,l),
(440,410,l),
(542,260,l),
(542,58,l),
(448,0,l),
(59,0,l),
(59,700,l)
);
},
{
closed = 1;
nodes = (
(180,410,l),
(279,410,l),
(411,549,l),
(411,588,l),
(180,588,l)
);
},
{
closed = 1;
nodes = (
(180,113,l),
(422,113,l),
(422,240,l),
(380,298,l),
(180,298,l)
);
}
);
width = 600;
},
{
anchors = (
{
name = bottom;
pos = (300,-40);
},
{
name = bottomCenter;
pos = (300,-40);
},
{
name = top;
pos = (300,740);
}
);
layerId = "58E25AC2-F473-41C5-84EA-658E208701C1";
shapes = (
{
closed = 1;
nodes = (
(474,700,l),
(521,632,l),
(521,540,l),
(398,410,l),
(438,410,l),
(531,273,l),
(531,49,l),
(451,0,l),
(89,0,l),
(89,700,l)
);
},
{
closed = 1;
nodes = (
(169,410,l),
(297,410,l),
(441,559,l),
(441,628,l),
(169,628,l)
);
},
{
closed = 1;
nodes = (
(169,72,l),
(451,72,l),
(451,265,l),
(400,337,l),
(169,337,l)
);
}
);
width = 600;
}
);
metricLeft = Auto;
metricRight = Auto;
unicode = 66;
},
{
glyphname = C;
lastChange = "2023-12-27 12:01:13 +0000";
layers = (
{
anchors = (
{
name = bottom;
pos = (300,0);
},
{
name = bottomCenter;
pos = (300,-60);
},
{
name = top;
pos = (300,740);
}
);
layerId = m01;
shapes = (
{
closed = 1;
nodes = (
(72,606,l),
(72,134,l),
(162,0,l),
(462,0,l),
(548,90,l),
(485,184,l),
(414,113,l),
(222,113,l),
(193,157,l),
(193,566,l),
(211,586,l),
(405,586,l),
(466,494,l),
(546,578,l),
(465,700,l),
(165,700,l)
);
}
);
width = 600;
},
{
anchors = (
{
name = bottom;
pos = (300,0);
},
{
name = bottomCenter;
pos = (300,-40);
},
{
name = top;
pos = (300,740);
}
);
layerId = "58E25AC2-F473-41C5-84EA-658E208701C1";
shapes = (
{
closed = 1;
nodes = (
(95,617,l),
(95,120,l),
(175,0,l),
(457,0,l),
(525,72,l),
(485,132,l),
(425,72,l),
(214,72,l),
(175,130,l),
(175,595,l),
(206,628,l),
(419,628,l),
(472,546,l),
(523,600,l),
(457,700,l),
(176,700,l)
);
}
);
width = 600;
}
);
metricLeft = Auto;
metricRight = Auto;
unicode = 67;
},
{
glyphname = D;
lastChange = "2023-12-29 01:29:41 +0000";
layers = (
{
anchors = (
{
name = bottom;
pos = (300,-60);
},
{
name = bottomCenter;
pos = (300,-60);
},
{
name = stroke;
pos = (129,340);
},
{
name = top;
pos = (300,740);
}
);
layerId = m01;
shapes = (
{
closed = 1;
nodes = (
(68,0,l),
(461,0,l),
(552,95,l),
(552,485,l),
(408,700,l),
(68,700,l)
);
},
{
closed = 1;
nodes = (
(346,587,l),
(431,462,l),
(431,132,l),
(411,112,l),
(189,112,l),
(189,587,l)
);
}
);
width = 600;
},
{
anchors = (
{
name = bottom;
pos = (300,-40);
},
{
name = bottomCenter;
pos = (300,-40);
},
{
name = stroke;
pos = (129,340);
},
{
name = top;
pos = (300,740);
}
);
layerId = "58E25AC2-F473-41C5-84EA-658E208701C1";
shapes = (
{
closed = 1;
nodes = (
(89,0,l),
(452,0,l),
(532,83,l),
(532,499,l),
(397,700,l),
(89,700,l)
);
},
{
closed = 1;
nodes = (
(358,628,l),
(451,489,l),
(451,105,l),
(419,72,l),
(169,72,l),
(169,628,l)
);
}
);
width = 600;
}
);
metricLeft = Auto;
metricRight = Auto;
unicode = 68;
},
{
glyphname = E;
lastChange = "2023-12-27 12:22:02 +0000";
layers = (
{
anchors = (
{
name = bottom;
pos = (300,0);
},
{
name = bottomCenter;
pos = (300,-60);
},
{
name = top;
pos = (300,740);
}
);
layerId = m01;
shapes = (
{
closed = 1;
nodes = (
(48,605,l),
(48,134,l),
(138,0,l),
(531,0,l),
(531,113,l),
(198,113,l),
(169,157,l),
(169,297,l),
(400,297,l),
(400,410,l),
(169,410,l),
(169,567,l),
(187,587,l),
(531,587,l),
(531,700,l),
(141,700,l)
);
}
);
width = 600;
},
{
anchors = (
{
name = bottom;
pos = (300,0);
},
{
name = bottomCenter;
pos = (300,-40);
},
{
name = top;
pos = (300,740);
}
);
layerId = "58E25AC2-F473-41C5-84EA-658E208701C1";
shapes = (
{
closed = 1;
nodes = (
(78,617,l),
(78,120,l),
(158,0,l),
(521,0,l),
(521,72,l),
(197,72,l),
(158,130,l),
(158,337,l),
(390,337,l),
(390,410,l),
(158,410,l),
(158,595,l),
(189,628,l),
(521,628,l),
(521,700,l),
(159,700,l)
);
}
);
width = 600;
}
);
metricLeft = Auto;
metricRight = Auto;
unicode = 69;
},
{
glyphname = F;
lastChange = "2023-12-27 12:09:33 +0000";
layers = (
{
anchors = (
{
name = bottom;
pos = (150,-60);
},
{
name = bottomCenter;
pos = (300,-60);
},
{
name = top;
pos = (360,740);
}
);
layerId = m01;
shapes = (
{
closed = 1;
nodes = (
(532,700,l),
(532,587,l),
(246,587,l),
(210,550,l),
(210,411,l),
(421,411,l),
(421,298,l),
(210,298,l),
(210,0,l),
(89,0,l),
(89,588,l),
(199,700,l)
);
}
);
width = 600;
},
{
anchors = (
{
name = bottom;
pos = (129,-40);
},
{
name = bottomCenter;
pos = (300,-40);
},
{
name = top;
pos = (360,740);
}
);
layerId = "58E25AC2-F473-41C5-84EA-658E208701C1";
shapes = (
{
closed = 1;
nodes = (
(532,700,l),
(532,628,l),
(217,628,l),
(169,578,l),
(169,410,l),
(401,410,l),
(401,337,l),
(169,337,l),
(169,0,l),
(89,0,l),
(89,600,l),
(187,700,l)
);
}
);
width = 600;
}
);
metricLeft = Auto;
metricRight = Auto;
unicode = 70;
},
{
glyphname = G;
lastChange = "2023-12-27 12:02:03 +0000";
layers = (
{
anchors = (
{
name = bottom;
pos = (300,0);
},
{
name = bottomCenter;
pos = (300,-60);
},
{
name = top;
pos = (300,740);
}
);
layerId = m01;
shapes = (
{
closed = 1;
nodes = (
(449,700,l),
(531,577,l),
(451,496,l),
(390,587,l),
(198,587,l),
(180,568,l),
(180,152,l),
(205,113,l),
(421,113,l),
(421,317,l),
(280,317,l),
(280,429,l),
(491,429,l),
(541,353,l),
(541,0,l),
(145,0,l),
(59,129,l),
(59,604,l),
(151,700,l)
);
}
);
width = 600;
},
{
anchors = (
{
name = bottom;
pos = (300,0);
},
{
name = bottomCenter;
pos = (300,-40);
},
{
name = top;
pos = (300,740);
}
);
layerId = "58E25AC2-F473-41C5-84EA-658E208701C1";
shapes = (
{
closed = 1;
nodes = (
(429,700,l),
(496,600,l),
(445,548,l),
(391,628,l),
(179,628,l),
(149,596,l),
(149,126,l),
(184,72,l),
(431,72,l),
(431,337,l),
(290,337,l),
(290,409,l),
(471,409,l),
(512,347,l),
(512,0,l),
(146,0,l),
(69,115,l),
(69,616,l),
(149,700,l)
);
}
);
width = 600;
}
);
metricLeft = Auto;
metricRight = Auto;
unicode = 71;
},
{
glyphname = H;
lastChange = "2023-12-29 01:33:19 +0000";
layers = (
{
anchors = (
{
name = bar;
pos = (300,555);
},
{
name = bottom;
pos = (300,-60);
},
{
name = bottomCenter;
pos = (300,-60);
},
{
name = left;
pos = (18,339);
},
{
name = middle;
pos = (300,376);
},
{
name = right;
pos = (582,339);
},
{
name = top;
pos = (300,740);
}
);
layerId = m01;
shapes = (
{
closed = 1;
nodes = (
(58,0,l),
(179,0,l),
(179,299,l),
(196,318,l),
(393,318,l),
(421,276,l),
(421,0,l),
(542,0,l),
(542,700,l),
(421,700,l),
(421,398,l),
(366,430,l),
(237,430,l),
(179,398,l),
(179,700,l),
(58,700,l)
);
}
);
width = 600;
},
{
anchors = (
{
name = bar;
pos = (300,540);
},
{
name = bottom;
pos = (300,-40);
},
{
name = bottomCenter;
pos = (300,-40);
},
{
name = left;
pos = (38,339);
},
{
name = middle;
pos = (300,376);
},
{
name = right;
pos = (562,339);
},
{
name = top;
pos = (300,740);
}
);
layerId = "58E25AC2-F473-41C5-84EA-658E208701C1";
shapes = (
{
closed = 1;
nodes = (
(78,0,l),
(158,0,l),
(158,307,l),
(188,337,l),
(403,337,l),
(441,282,l),
(441,0,l),
(522,0,l),
(522,700,l),
(441,700,l),
(441,363,l),
(360,410,l),
(237,410,l),
(158,363,l),
(158,700,l),
(78,700,l)
);
}
);
width = 600;
}
);
metricLeft = Auto;
metricRight = Auto;
unicode = 72;
},
{
glyphname = I;
lastChange = "2023-12-29 02:41:53 +0000";
layers = (
{
anchors = (
{
name = bottom;
pos = (300,0);
},
{
name = bottomCenter;
pos = (300,-60);
},
{
name = stroke;
pos = (300,350);
},
{
name = top;
pos = (300,764);
}
);
layerId = m01;
shapes = (
{
closed = 1;
nodes = (
(542,700,l),
(542,587,l),
(360,587,l),
(360,113,l),
(542,113,l),
(542,0,l),
(58,0,l),
(58,113,l),
(239,113,l),
(239,587,l),
(58,587,l),
(58,700,l)
);
}
);
width = 600;
},
{
anchors = (
{
name = bottom;
pos = (300,0);
},
{
name = bottomCenter;
pos = (300,-40);
},
{
name = stroke;
pos = (300,350);
},
{
name = top;
pos = (300,764);
}
);
layerId = "58E25AC2-F473-41C5-84EA-658E208701C1";
shapes = (
{
closed = 1;
nodes = (
(521,700,l),
(521,627,l),
(340,627,l),
(340,73,l),
(521,73,l),
(521,0,l),
(79,0,l),
(79,73,l),
(260,73,l),
(260,627,l),
(79,627,l),
(79,700,l)
);
}
);
width = 600;
}
);
metricLeft = Auto;
metricRight = Auto;
unicode = 73;
},
{
glyphname = IJ;
lastChange = "2023-12-29 02:38:19 +0000";
layers = (
{
layerId = "58E25AC2-F473-41C5-84EA-658E208701C1";
shapes = (
{
closed = 1;
nodes = (
(199,700,l),
(240,644,l),
(295,700,l),
(582,700,l),
(582,629,l),
(521,629,l),
(521,0,l),
(360,-169,l),
(199,-169,l),
(199,-97,l),
(329,-97,l),
(441,22,l),
(441,573,l),
(483,629,l),
(325,629,l),
(280,582,l),
(280,0,l),
(199,0,l),
(199,571,l),
(161,629,l),
(18,629,l),
(18,700,l)
);
}
);
width = 600;
},
{
layerId = m01;
shapes = (
{
closed = 1;
nodes = (
(210,722,l),
(243,676,l),
(286,722,l),
(582,722,l),
(582,609,l),
(541,609,l),
(541,13,l),
(369,-169,l),
(179,-169,l),
(179,-56,l),
(321,-56,l),
(421,50,l),
(421,579,l),
(443,609,l),
(333,609,l),
(300,574,l),
(300,0,l),
(179,0,l),
(179,565,l),
(150,609,l),
(18,609,l),
(18,722,l)
);
}
);
width = 600;
}
);
unicode = 306;
},
{
glyphname = J;
lastChange = "2023-12-27 12:02:50 +0000";
layers = (
{
anchors = (
{
name = bottom;
pos = (254,-113);
},
{
name = bottomCenter;
pos = (260,-130);
},
{
name = top;
pos = (300,740);
}
);
layerId = m01;
shapes = (
{
closed = 1;
nodes = (
(511,700,l),
(511,109,l),
(339,-73,l),
(169,-73,l),
(169,40,l),
(291,40,l),
(391,145,l),
(391,587,l),
(89,587,l),
(89,700,l)
);
}
);
width = 600;
},
{
anchors = (
{
name = bottom;
pos = (260,-113);
},
{
name = bottomCenter;
pos = (260,-110);
},
{
name = top;
pos = (300,740);
}
);
layerId = "58E25AC2-F473-41C5-84EA-658E208701C1";
shapes = (
{
closed = 1;
nodes = (
(481,700,l),
(481,97,l),
(320,-72,l),
(199,-72,l),
(199,0,l),
(289,0,l),
(401,119,l),
(401,627,l),
(119,627,l),
(119,700,l)
);
}
);
width = 600;
}
);
metricLeft = Auto;
metricRight = Auto;
unicode = 74;
},
{
glyphname = K;
lastChange = "2023-12-27 12:03:13 +0000";
layers = (
{
anchors = (
{
name = bottom;
pos = (300,-60);
},
{
name = bottomCenter;
pos = (300,-60);
}
);
layerId = m01;
shapes = (
{
closed = 1;
nodes = (
(565,700,l),
(292,418,l),
(570,0,l),
(437,0,l),
(207,336,l),
(152,282,l),
(152,0,l),
(31,0,l),
(31,700,l),
(152,700,l),
(152,445,l),
(404,700,l)
);
}
);
width = 600;
},
{
anchors = (
{
name = bottom;
pos = (300,-40);
},
{
name = bottomCenter;
pos = (300,-40);
}
);
layerId = "58E25AC2-F473-41C5-84EA-658E208701C1";
shapes = (
{
closed = 1;
nodes = (
(556,700,l),
(282,422,l),
(571,0,l),
(485,0,l),
(231,369,l),
(109,241,l),
(109,0,l),
(29,0,l),
(29,700,l),
(109,700,l),
(109,345,l),
(451,700,l)
);
}
);
width = 600;
}
);
metricLeft = Auto;
metricRight = Auto;
unicode = 75;
},
{
glyphname = L;
lastChange = "2023-12-29 15:18:04 +0000";
layers = (
{
anchors = (
{
name = bottom;
pos = (300,-60);
},
{
name = bottomCenter;
pos = (300,-60);
},
{
name = left;
pos = (18,339);
},
{
name = rightCaron;
pos = (312,616);
},
{
name = stroke;
pos = (130,335);
},
{
name = top;
pos = (119,750);
}
);
layerId = m01;
shapes = (
{
closed = 1;
nodes = (
(179,700,l),
(179,158,l),
(210,113,l),
(421,113,l),
(421,186,l),
(542,186,l),
(542,0,l),
(149,0,l),
(58,138,l),
(58,700,l)
);
}
);
width = 600;
},
{
anchors = (
{
name = bottom;
pos = (300,-40);
},
{
name = bottomCenter;
pos = (300,-40);
},
{
name = left;
pos = (38,339);
},
{
name = rightCaron;
pos = (312,616);
},
{
name = stroke;
pos = (130,335);
},
{
name = top;
pos = (119,750);
}
);
layerId = "58E25AC2-F473-41C5-84EA-658E208701C1";
shapes = (
{
closed = 1;
nodes = (
(158,700,l),
(158,132,l),
(199,73,l),
(441,73,l),
(441,145,l),
(522,145,l),
(522,0,l),
(161,0,l),
(78,124,l),
(78,700,l)
);
}
);
width = 600;
}
);
metricLeft = Auto;
metricRight = Auto;
unicode = 76;
},
{
glyphname = M;
lastChange = "2023-12-27 12:03:55 +0000";
layers = (
{
anchors = (
{
name = bottom;
pos = (490,0);
},
{
name = bottomCenter;
pos = (300,-60);
},
{
name = top;
pos = (300,740);
}
);
layerId = m01;
shapes = (
{
closed = 1;
nodes = (
(180,700,l),
(180,689,l),
(285,532,l),
(421,700,l),
(542,700,l),
(542,0,l),
(421,0,l),
(421,537,l),
(342,444,l),
(342,381,l),
(255,381,l),
(255,397,l),
(180,509,l),
(180,0,l),
(59,0,l),
(59,700,l)
);
}
);
width = 600;
},
{
anchors = (
{
name = bottom;
pos = (490,0);
},
{
name = bottomCenter;
pos = (300,-40);
},
{
name = top;
pos = (300,740);
}
);
layerId = "58E25AC2-F473-41C5-84EA-658E208701C1";
shapes = (
{
closed = 1;
nodes = (
(159,700,l),
(159,672,l),
(264,517,l),
(441,700,l),
(522,700,l),
(522,0,l),
(441,0,l),
(441,595,l),
(342,491,l),
(342,400,l),
(255,400,l),
(255,402,l),
(159,544,l),
(159,0,l),
(79,0,l),
(79,700,l)
);
}
);
width = 600;
}
);
metricLeft = Auto;
metricRight = Auto;
unicode = 77;
},
{
glyphname = N;
lastChange = "2023-12-27 12:04:14 +0000";
layers = (
{
anchors = (
{
name = bottom;
pos = (300,-60);
},
{
name = bottomCenter;
pos = (300,-60);
},
{
name = top;
pos = (300,740);
}
);
layerId = m01;
shapes = (
{
closed = 1;
nodes = (
(542,700,l),
(542,0,l),
(421,0,l),
(421,220,l),
(188,567,l),
(180,567,l),
(180,0,l),
(59,0,l),
(59,700,l),
(248,700,l),
(421,426,l),
(421,700,l)
);
}
);
width = 600;
},
{
anchors = (
{
name = bottom;
pos = (300,-40);
},
{
name = bottomCenter;
pos = (300,-40);
},
{
name = top;
pos = (300,740);
}
);
layerId = "58E25AC2-F473-41C5-84EA-658E208701C1";
shapes = (
{
closed = 1;
nodes = (
(522,700,l),
(522,0,l),
(441,0,l),
(441,267,l),
(198,628,l),
(159,628,l),
(159,0,l),
(79,0,l),
(79,700,l),
(236,700,l),
(441,397,l),
(441,700,l)
);
}
);
width = 600;
}
);
metricLeft = Auto;
metricRight = Auto;
unicode = 78;
},
{
glyphname = O;
lastChange = "2023-12-29 01:46:37 +0000";
layers = (
{
anchors = (
{
name = bottom;
pos = (300,0);
},
{
name = bottomCenter;
pos = (300,-60);
},
{
name = slash;
pos = (300,300);
},
{
name = top;
pos = (300,740);
}
);
layerId = m01;
shapes = (
{
closed = 1;
nodes = (
(59,604,l),
(59,134,l),
(150,0,l),
(450,0,l),
(541,96,l),
(541,566,l),
(453,700,l),
(152,700,l)
);
},
{
closed = 1;
nodes = (
(180,567,l),
(198,587,l),
(391,587,l),
(420,544,l),
(420,133,l),
(401,113,l),
(209,113,l),
(180,156,l)
);
}
);
width = 600;
},
{
anchors = (
{
name = bottom;
pos = (300,0);
},
{
name = bottomCenter;
pos = (300,-40);
},
{
name = slash;
pos = (300,300);
},
{
name = top;
pos = (300,740);
}
);
layerId = "58E25AC2-F473-41C5-84EA-658E208701C1";
shapes = (
{
closed = 1;
nodes = (
(78,617,l),
(78,120,l),
(159,0,l),
(443,0,l),
(522,83,l),
(522,580,l),
(443,700,l),
(159,700,l)
);
},
{
closed = 1;
nodes = (
(158,595,l),
(189,628,l),
(403,628,l),
(441,570,l),
(441,105,l),
(411,72,l),
(197,72,l),
(158,130,l)
);
}
);
width = 600;
}
);
metricLeft = Auto;
metricRight = Auto;
unicode = 79;
},
{
glyphname = OE;
lastChange = "2023-12-29 02:38:19 +0000";
layers = (
{
layerId = "58E25AC2-F473-41C5-84EA-658E208701C1";
shapes = (
{
closed = 1;
nodes = (
(79,130,l),
(117,72,l),
(270,72,l),
(300,105,l),
(300,570,l),
(262,628,l),
(109,628,l),
(79,595,l)
);
},
{
closed = 1;
nodes = (
(380,83,l),
(370,72,l),
(602,72,l),
(602,0,l),
(80,0,l),
(-2,120,l),
(-2,617,l),
(79,700,l),
(602,700,l),
(602,628,l),
(349,628,l),
(380,580,l),
(380,410,l),
(541,410,l),
(541,337,l),
(380,337,l)
);
}
);
width = 600;
},
{
layerId = m01;
shapes = (
{
closed = 1;
nodes = (
(119,156,l),
(148,113,l),
(261,113,l),
(280,133,l),
(280,564,l),
(251,607,l),
(138,607,l),
(119,587,l)
);
},
{
closed = 1;
nodes = (
(401,130,l),
(384,113,l),
(602,113,l),
(602,0,l),
(89,0,l),
(-2,134,l),
(-2,625,l),
(91,720,l),
(602,720,l),
(602,607,l),
(386,607,l),
(401,586,l),
(401,430,l),
(541,430,l),
(541,317,l),
(401,317,l)
);
}
);
width = 600;
}
);
unicode = 338;
},
{
glyphname = P;
lastChange = "2023-12-27 12:04:51 +0000";
layers = (
{
anchors = (
{
name = bottom;
pos = (119,-60);
},
{
name = bottomCenter;
pos = (300,-60);
},
{
name = top;
pos = (300,740);
}
);
layerId = m01;
shapes = (
{
closed = 1;
nodes = (
(453,700,l),
(542,566,l),
(542,389,l),
(451,296,l),
(179,296,l),
(179,0,l),
(58,0,l),
(58,700,l)
);
},
{
closed = 1;
nodes = (
(179,374,l),
(235,407,l),
(402,407,l),
(421,426,l),
(421,543,l),
(392,587,l),
(179,587,l)
);
}
);
width = 600;
},
{
anchors = (
{
name = bottom;
pos = (300,-40);
},
{
name = bottomCenter;
pos = (300,-40);
},
{
name = top;
pos = (300,740);
}
);
layerId = "58E25AC2-F473-41C5-84EA-658E208701C1";
shapes = (
{
closed = 1;
nodes = (
(441,700,l),
(521,580,l),
(521,418,l),
(441,337,l),
(159,337,l),
(159,0,l),
(79,0,l),
(79,700,l)
);
},
{
closed = 1;
nodes = (
(160,361,l),
(241,408,l),
(410,408,l),
(441,440,l),
(441,569,l),
(402,628,l),
(160,628,l)
);
}
);
width = 600;
}
);
metricLeft = Auto;
metricRight = Auto;
unicode = 80;
},
{
glyphname = Thorn;
lastChange = "2023-12-29 02:38:19 +0000";
layers = (
{
layerId = "58E25AC2-F473-41C5-84EA-658E208701C1";
shapes = (
{
closed = 1;
nodes = (
(159,745,l),
(159,581,l),
(239,629,l),
(440,629,l),
(521,508,l),
(521,182,l),
(440,98,l),
(241,98,l),
(159,145,l),
(159,0,l),
(79,0,l),
(79,745,l)
);
},
{
closed = 1;
nodes = (
(159,170,l),
(411,170,l),
(441,202,l),
(441,498,l),
(402,556,l),
(191,556,l),
(159,524,l)
);
}
);
width = 600;
},
{
layerId = m01;
shapes = (
{
closed = 1;
nodes = (
(179,744,l),
(179,590,l),
(233,623,l),
(450,623,l),
(541,487,l),
(541,196,l),
(448,100,l),
(236,100,l),
(179,132,l),
(179,0,l),
(59,0,l),
(59,744,l)
);
},
{
closed = 1;
nodes = (
(179,213,l),
(402,213,l),
(421,232,l),
(421,466,l),
(391,509,l),
(199,509,l),
(179,489,l)
);
}
);
width = 600;
}
);
unicode = 222;
},
{
glyphname = Q;
lastChange = "2023-12-27 12:05:04 +0000";
layers = (
{
anchors = (
{
name = bottom;
pos = (300,-60);
},
{
name = bottomCenter;
pos = (300,-60);
},
{
name = top;
pos = (300,740);
}
);
layerId = m01;
shapes = (
{
closed = 1;
nodes = (
(450,700,l),
(541,566,l),
(541,314,l),
(420,188,l),
(420,545,l),
(391,587,l),
(197,587,l),
(180,568,l),
(180,157,l),
(209,113,l),
(333,113,l),
(302,159,l),
(394,223,l),
(534,15,l),
(442,-48,l),
(407,0,l),
(150,0,l),
(59,134,l),
(59,604,l),
(153,700,l)
);
}
);
width = 600;
},
{
anchors = (
{
name = bottom;
pos = (300,-40);
},
{
name = bottomCenter;
pos = (300,-40);
},
{
name = top;
pos = (300,740);
}
);
layerId = "58E25AC2-F473-41C5-84EA-658E208701C1";
shapes = (
{
closed = 1;
nodes = (
(439,700,l),
(521,580,l),
(521,187,l),
(440,104,l),
(440,571,l),
(402,627,l),
(189,627,l),
(159,596,l),
(159,130,l),
(198,72,l),
(371,72,l),
(329,133,l),
(389,174,l),
(506,0,l),
(447,-41,l),
(418,0,l),
(160,0,l),
(79,119,l),
(79,616,l),
(161,700,l)
);
}
);
width = 600;
}
);
metricLeft = Auto;
metricRight = Auto;
unicode = 81;
},
{
glyphname = R;
lastChange = "2023-12-27 12:05:18 +0000";
layers = (
{
anchors = (
{
name = bottom;
pos = (300,-60);
},
{
name = bottomCenter;
pos = (300,-60);
},
{
name = top;
pos = (300,740);
}
);
layerId = m01;
shapes = (
{
closed = 1;
nodes = (
(425,700,l),
(542,529,l),
(542,412,l),
(450,317,l),
(542,182,l),
(542,0,l),
(421,0,l),
(421,161,l),
(330,294,l),
(232,294,l),
(179,327,l),
(179,0,l),
(58,0,l),
(58,700,l)
);
},
{
closed = 1;
nodes = (
(179,407,l),
(382,407,l),
(421,447,l),
(421,505,l),
(364,587,l),
(179,587,l)
);
}
);
width = 600;
},
{
anchors = (
{
name = bottom;
pos = (300,-40);
},
{
name = bottomCenter;
pos = (300,-40);
},
{
name = top;
pos = (300,740);
}
);
layerId = "58E25AC2-F473-41C5-84EA-658E208701C1";
shapes = (
{
closed = 1;
nodes = (
(414,700,l),
(522,543,l),
(522,443,l),
(423,342,l),
(522,199,l),
(522,0,l),
(441,0,l),
(441,190,l),
(340,337,l),
(237,337,l),
(158,386,l),
(158,0,l),
(78,0,l),
(78,700,l)
);
},
{
closed = 1;
nodes = (
(158,410,l),
(390,410,l),
(441,461,l),
(441,532,l),
(375,628,l),
(158,628,l)
);
}
);
width = 600;
}
);
metricLeft = Auto;
metricRight = Auto;
unicode = 82;
},
{
glyphname = S;
lastChange = "2023-12-27 12:05:29 +0000";
layers = (
{
anchors = (
{
name = bottom;
pos = (300,0);
},
{
name = bottomCenter;
pos = (300,-60);
},
{
name = top;
pos = (300,740);
}
);
layerId = m01;
shapes = (
{
closed = 1;
nodes = (
(61,604,l),
(61,428,l),
(151,294,l),
(404,294,l),
(424,266,l),
(424,122,l),
(413,113,l),
(173,113,l),
(134,166,l),
(55,84,l),
(114,0,l),
(463,0,l),
(545,85,l),
(545,286,l),
(465,407,l),
(212,407,l),
(182,451,l),
(182,568,l),
(200,587,l),
(395,587,l),
(443,516,l),
(525,596,l),
(456,700,l),
(153,700,l)
);
}
);
width = 600;
},
{
anchors = (
{
name = bottom;
pos = (300,0);
},
{
name = bottomCenter;
pos = (300,-40);
},
{
name = top;
pos = (300,740);
}
);
layerId = "58E25AC2-F473-41C5-84EA-658E208701C1";
shapes = (
{
closed = 1;
nodes = (
(79,617,l),
(79,456,l),
(159,337,l),
(411,337,l),
(441,294,l),
(441,93,l),
(417,72,l),
(160,72,l),
(129,115,l),
(79,62,l),
(123,0,l),
(451,0,l),
(521,73,l),
(521,303,l),
(450,409,l),
(199,409,l),
(159,467,l),
(159,596,l),
(189,628,l),
(402,628,l),
(443,568,l),
(494,618,l),
(441,700,l),
(159,700,l)
);
}
);
width = 600;
}
);
metricLeft = Auto;
metricRight = Auto;
unicode = 83;
},
{
glyphname = Germandbls;
lastChange = "2023-12-29 02:38:19 +0000";
layers = (
{
layerId = "58E25AC2-F473-41C5-84EA-658E208701C1";
shapes = (
{
closed = 1;
nodes = (
(522,700,l),
(522,617,l),
(323,410,l),
(412,410,l),
(521,248,l),
(521,87,l),
(436,0,l),
(285,0,l),
(285,72,l),
(406,72,l),
(441,109,l),
(441,239,l),
(374,337,l),
(229,337,l),
(229,418,l),
(432,628,l),
(270,628,l),
(159,512,l),
(159,0,l),
(78,0,l),
(78,534,l),
(239,700,l)
);
}
);
width = 600;
},
{
layerId = m01;
shapes = (
{
closed = 1;
nodes = (
(542,741,l),
(542,629,l),
(370,450,l),
(423,450,l),
(541,274,l),
(541,100,l),
(445,0,l),
(285,0,l),
(285,113,l),
(398,113,l),
(420,137,l),
(420,253,l),
(364,337,l),
(209,337,l),
(209,447,l),
(384,628,l),
(278,628,l),
(179,524,l),
(179,0,l),
(58,0,l),
(58,562,l),
(230,741,l)
);
}
);
width = 600;
}
);
unicode = 7838;
},
{
glyphname = T;
lastChange = "2023-12-29 01:36:42 +0000";
layers = (
{
anchors = (
{
name = bottom;
pos = (309,0);
},
{
name = bottomCenter;
pos = (300,-60);
},
{
name = stroke;
pos = (300,345);
},
{
name = top;
pos = (300,740);
}
);
layerId = m01;
shapes = (
{
closed = 1;
nodes = (
(39,587,l),
(211,587,l),
(240,500,l),
(240,0,l),
(361,0,l),
(361,528,l),
(295,587,l),
(561,587,l),
(561,700,l),
(39,700,l)
);
}
);
width = 600;
},
{
anchors = (
{
name = bottom;
pos = (300,0);
},
{
name = bottomCenter;
pos = (300,-40);
},
{
name = stroke;
pos = (300,345);
},
{
name = top;
pos = (300,740);
}
);
layerId = "58E25AC2-F473-41C5-84EA-658E208701C1";
shapes = (
{
closed = 1;
nodes = (
(39,628,l),
(222,628,l),
(260,570,l),
(260,0,l),
(341,0,l),
(341,580,l),
(263,628,l),
(561,628,l),
(561,700,l),
(39,700,l)
);
}
);
width = 600;
}
);
metricLeft = Auto;
metricRight = Auto;
unicode = 84;
},
{
glyphname = U;
lastChange = "2023-12-27 12:06:07 +0000";
layers = (
{
anchors = (
{
name = bottom;
pos = (480,0);
},
{
name = bottomCenter;
pos = (300,-60);
},
{
name = top;
pos = (300,740);
}
);
layerId = m01;
shapes = (
{
closed = 1;
nodes = (
(542,700,l),
(542,0,l),
(421,0,l),
(421,34,l),
(366,0,l),
(149,0,l),
(58,134,l),
(58,700,l),
(179,700,l),
(179,157,l),
(208,113,l),
(401,113,l),
(421,133,l),
(421,700,l)
);
}
);
width = 600;
},
{
anchors = (
{
name = bottom;
pos = (490,0);
},
{
name = bottomCenter;
pos = (300,-40);
},
{
name = top;
pos = (300,740);
}
);
layerId = "58E25AC2-F473-41C5-84EA-658E208701C1";
shapes = (
{
closed = 1;
nodes = (
(522,700,l),
(522,0,l),
(441,0,l),
(441,49,l),
(361,0,l),
(159,0,l),
(78,120,l),
(78,700,l),
(158,700,l),
(158,130,l),
(197,72,l),
(409,72,l),
(441,105,l),
(441,700,l)
);
}
);
width = 600;
}
);
metricLeft = Auto;
metricRight = Auto;
unicode = 85;
},
{
glyphname = V;
lastChange = "2023-12-27 12:06:23 +0000";
layers = (
{
anchors = (
{
name = bottom;
pos = (269,-60);
},
{
name = bottomCenter;
pos = (270,-60);
},
{
name = top;
pos = (300,740);
}
);
layerId = m01;
shapes = (
{
closed = 1;
nodes = (
(541,700,l),
(541,239,l),
(313,0,l),
(224,0,l),
(59,244,l),
(59,700,l),
(180,700,l),
(180,267,l),
(276,124,l),
(420,275,l),
(420,700,l)
);
}
);
width = 600;
},
{
anchors = (
{
name = bottom;
pos = (269,-40);
},
{
name = bottomCenter;
pos = (270,-40);
},
{
name = top;
pos = (300,740);
}
);
layerId = "58E25AC2-F473-41C5-84EA-658E208701C1";
shapes = (
{
closed = 1;
nodes = (
(521,700,l),
(521,226,l),
(304,0,l),
(234,0,l),
(79,230,l),
(79,700,l),
(159,700,l),
(159,241,l),
(272,71,l),
(441,246,l),
(441,700,l)
);
}
);
width = 600;
}
);
metricLeft = Auto;
metricRight = Auto;
unicode = 86;
},
{
glyphname = W;
lastChange = "2023-12-27 12:06:35 +0000";
layers = (
{
anchors = (
{
name = bottom;
pos = (300,-60);
},
{
name = bottomCenter;
pos = (300,-60);
},
{
name = top;
pos = (300,740);
}
);
layerId = m01;
shapes = (
{
closed = 1;
nodes = (
(159,700,l),
(159,212,l),
(206,142,l),
(211,142,l),
(239,169,l),
(239,435,l),
(360,435,l),
(360,198,l),
(394,141,l),
(398,141,l),
(440,187,l),
(440,700,l),
(561,700,l),
(561,134,l),
(431,0,l),
(337,0,l),
(304,57,l),
(251,0,l),
(158,0,l),
(38,178,l),
(38,700,l)
);
}
);
width = 600;
},
{
anchors = (
{
name = bottom;
pos = (300,-40);
},
{
name = bottomCenter;
pos = (300,-40);
},
{
name = top;
pos = (300,740);
}
);
layerId = "58E25AC2-F473-41C5-84EA-658E208701C1";
shapes = (
{
closed = 1;
nodes = (
(138,700,l),
(138,119,l),
(166,72,l),
(191,72,l),
(259,143,l),
(259,410,l),
(340,410,l),
(340,173,l),
(409,72,l),
(433,72,l),
(460,102,l),
(460,700,l),
(541,700,l),
(541,83,l),
(460,0,l),
(370,0,l),
(308,92,l),
(221,0,l),
(138,0,l),
(58,120,l),
(58,700,l)
);
}
);
width = 600;
}
);
metricLeft = Auto;
metricRight = Auto;
unicode = 87;
},
{
glyphname = X;
lastChange = "2023-12-27 12:07:46 +0000";
layers = (
{
anchors = (
{
name = bottom;
pos = (300,-60);
},
{
name = bottomCenter;
pos = (300,-60);
},
{
name = top;
pos = (300,740);
}
);
layerId = m01;
shapes = (
{
closed = 1;
nodes = (
(522,700,l),
(522,487,l),
(427,390,l),
(522,251,l),
(522,0,l),
(401,0,l),
(401,228,l),
(350,299,l),
(304,299,l),
(199,189,l),
(199,0,l),
(78,0,l),
(78,227,l),
(173,324,l),
(78,463,l),
(78,700,l),
(199,700,l),
(199,486,l),
(248,412,l),
(296,412,l),
(401,522,l),
(401,700,l)
);
}
);
width = 600;
},
{
anchors = (
{
name = bottom;
pos = (300,-40);
},
{
name = bottomCenter;
pos = (300,-40);
},
{
name = top;
pos = (300,740);
}
);
layerId = "58E25AC2-F473-41C5-84EA-658E208701C1";
shapes = (
{
closed = 1;
nodes = (
(522,700,l),
(522,512,l),
(421,410,l),
(522,263,l),
(522,0,l),
(441,0,l),
(441,252,l),
(381,337,l),
(276,337,l),
(158,215,l),
(158,0,l),
(78,0,l),
(78,237,l),
(179,339,l),
(78,487,l),
(78,700,l),
(158,700,l),
(158,497,l),
(216,410,l),
(324,410,l),
(441,532,l),
(441,700,l)
);
}
);
width = 600;
}
);
metricLeft = Auto;
metricRight = Auto;
unicode = 88;
},
{
glyphname = Y;
lastChange = "2023-12-27 12:07:59 +0000";
layers = (
{
anchors = (
{
name = bottom;
pos = (300,-60);
},
{
name = bottomCenter;
pos = (300,-60);
},
{
name = top;
pos = (300,740);
}
);
layerId = m01;
shapes = (
{
closed = 1;
nodes = (
(420,545,l),
(302,422,l),
(300,422,l),
(179,602,l),
(179,700,l),
(58,700,l),
(58,582,l),
(239,313,l),
(239,0,l),
(360,0,l),
(360,320,l),
(541,507,l),
(541,700,l),
(420,700,l)
);
}
);
width = 600;
},
{
anchors = (
{
name = bottom;
pos = (300,-40);
},
{
name = bottomCenter;
pos = (300,-40);
},
{
name = top;
pos = (300,740);
}
);
layerId = "58E25AC2-F473-41C5-84EA-658E208701C1";
shapes = (
{
closed = 1;
nodes = (
(440,557,l),
(299,410,l),
(297,410,l),
(158,617,l),
(158,700,l),
(78,700,l),
(78,608,l),
(259,339,l),
(259,0,l),
(339,0,l),
(339,348,l),
(521,536,l),
(521,700,l),
(440,700,l)
);
}
);
width = 600;
}
);
metricLeft = Auto;
metricRight = Auto;
unicode = 89;
},
{
glyphname = Z;
lastChange = "2023-12-27 12:08:11 +0000";
layers = (
{
anchors = (
{
name = bottom;
pos = (300,-60);
},
{
name = bottomCenter;
pos = (300,-60);
},
{
name = top;
pos = (300,740);
}
);
layerId = m01;
shapes = (
{
closed = 1;
nodes = (
(542,700,l),
(542,505,l),
(472,430,l),
(482,430,l),
(482,318,l),
(344,318,l),
(354,312,l),
(179,131,l),
(179,113,l),
(542,113,l),
(542,0,l),
(58,0,l),
(58,166,l),
(204,318,l),
(179,318,l),
(179,430,l),
(335,430,l),
(323,438,l),
(421,542,l),
(421,587,l),
(58,587,l),
(58,700,l)
);
}
);
width = 600;
},
{
anchors = (
{
name = bottom;
pos = (300,-40);
},
{
name = bottomCenter;
pos = (300,-40);
},
{
name = top;
pos = (300,740);
}
);
layerId = "58E25AC2-F473-41C5-84EA-658E208701C1";
shapes = (
{
closed = 1;
nodes = (
(522,700,l),
(522,512,l),
(423,410,l),
(441,410,l),
(441,337,l),
(272,337,l),
(321,307,l),
(158,139,l),
(158,72,l),
(522,72,l),
(522,0,l),
(78,0,l),
(78,158,l),
(251,337,l),
(229,337,l),
(229,410,l),
(405,410,l),
(354,442,l),
(441,534,l),
(441,628,l),
(78,628,l),
(78,700,l)
);
}
);
width = 600;
}
);
metricLeft = Auto;
metricRight = Auto;
unicode = 90;
},
{
glyphname = a;
lastChange = "2023-12-27 11:30:28 +0000";
layers = (
{
anchors = (
{
name = bottom;
pos = (480,0);
},
{
name = bottomCenter;
pos = (342,-50);
},
{
name = top;
pos = (310,613);
}
);
layerId = m01;
shapes = (
{
closed = 1;
nodes = (
(472,553,l),
(542,450,l),
(542,0,l),
(421,0,l),
(421,33,l),
(366,0,l),
(148,0,l),
(58,134,l),
(58,187,l),
(219,355,l),
(421,355,l),
(421,442,l),
(138,442,l),
(138,553,l)
);
},
{
closed = 1;
nodes = (
(202,113,l),
(417,113,l),
(417,241,l),
(264,241,l),
(183,158,l),
(183,156,l)
);
}
);
width = 600;
},
{
anchors = (
{
name = bottom;
pos = (490,0);
},
{
name = bottomCenter;
pos = (342,-50);
},
{
name = top;
pos = (320,603);
}
);
layerId = "58E25AC2-F473-41C5-84EA-658E208701C1";
shapes = (
{
closed = 1;
nodes = (
(467,553,l),
(530,460,l),
(530,0,l),
(446,0,l),
(446,51,l),
(362,0,l),
(153,0,l),
(69,125,l),
(69,165,l),
(225,327,l),
(446,327,l),
(446,479,l),
(153,479,l),
(153,553,l)
);
},
{
closed = 1;
nodes = (
(192,76,l),
(446,76,l),
(446,251,l),
(258,251,l),
(153,143,l),
(153,135,l)
);
}
);
width = 600;
}
);
unicode = 97;
},
{
glyphname = ae;
lastChange = "2023-12-29 02:39:06 +0000";
layers = (
{
layerId = "58E25AC2-F473-41C5-84EA-658E208701C1";
shapes = (
{
closed = 1;
nodes = (
(280,531,l),
(305,494,l),
(340,531,l),
(521,531,l),
(602,412,l),
(437,241,l),
(340,241,l),
(340,130,l),
(379,72,l),
(491,72,l),
(549,133,l),
(591,72,l),
(521,0,l),
(340,0,l),
(294,69,l),
(260,0,l),
(79,0,l),
(-2,120,l),
(-2,159,l),
(148,314,l),
(260,314,l),
(260,459,l),
(79,459,l),
(79,531,l)
);
},
{
closed = 1;
nodes = (
(340,314,l),
(407,314,l),
(509,420,l),
(482,459,l),
(371,459,l),
(340,427,l)
);
},
{
closed = 1;
nodes = (
(116,72,l),
(230,72,l),
(260,120,l),
(260,241,l),
(179,241,l),
(79,138,l),
(79,130,l)
);
}
);
width = 600;
},
{
layerId = m01;
shapes = (
{
closed = 1;
nodes = (
(288,571,l),
(305,546,l),
(329,571,l),
(509,571,l),
(604,430,l),
(423,241,l),
(363,241,l),
(363,156,l),
(392,113,l),
(459,113,l),
(529,185,l),
(593,91,l),
(507,0,l),
(327,0,l),
(294,49,l),
(270,0,l),
(86,0,l),
(-4,134,l),
(-4,187,l),
(157,354,l),
(247,354,l),
(247,459,l),
(76,459,l),
(76,571,l)
);
},
{
closed = 1;
nodes = (
(363,354,l),
(376,354,l),
(460,443,l),
(449,459,l),
(382,459,l),
(363,439,l)
);
},
{
closed = 1;
nodes = (
(144,113,l),
(226,113,l),
(247,146,l),
(247,241,l),
(205,241,l),
(116,158,l),
(116,156,l)
);
}
);
width = 600;
}
);
unicode = 230;
},
{
glyphname = b;
lastChange = "2023-12-27 11:38:11 +0000";
layers = (
{
anchors = (
{
name = bottom;
pos = (300,-60);
},
{
name = bottomCenter;
pos = (301,-60);
},
{
name = top;
pos = (300,798);
}
);
layerId = m01;
shapes = (
{
closed = 1;
nodes = (
(179,768,l),
(179,519,l),
(232,552,l),
(451,552,l),
(542,416,l),
(542,97,l),
(449,0,l),
(235,0,l),
(179,33,l),
(179,0,l),
(58,0,l),
(58,768,l)
);
},
{
closed = 1;
nodes = (
(179,113,l),
(402,113,l),
(421,133,l),
(421,395,l),
(391,439,l),
(199,439,l),
(179,418,l)
);
}
);
width = 600;
},
{
anchors = (
{
name = bottom;
pos = (300,-60);
},
{
name = bottomCenter;
pos = (301,-60);
},
{
name = top;
pos = (300,798);
}
);
layerId = "58E25AC2-F473-41C5-84EA-658E208701C1";
shapes = (
{
closed = 1;
nodes = (
(160,748,l),
(160,483,l),
(240,532,l),
(442,532,l),
(524,410,l),
(524,84,l),
(442,0,l),
(242,0,l),
(160,48,l),
(160,0,l),
(80,0,l),
(80,748,l)
);
},
{
closed = 1;
nodes = (
(160,73,l),
(413,73,l),
(443,105,l),
(443,401,l),
(404,459,l),
(192,459,l),
(160,426,l)
);
}
);
width = 600;
}
);
unicode = 98;
},
{
glyphname = c;
lastChange = "2023-12-29 16:28:18 +0000";
layers = (
{
anchors = (
{
name = bottom;
pos = (300,0);
},
{
name = bottomCenter;
pos = (301,-60);
},
{
name = top;
pos = (300,633);
}
);
layerId = m01;
shapes = (
{
closed = 1;
nodes = (
(64,461,l),
(64,131,l),
(152,0,l),
(452,0,l),
(534,85,l),
(476,172,l),
(408,103,l),
(216,103,l),
(185,149,l),
(185,414,l),
(207,437,l),
(398,437,l),
(458,349,l),
(536,430,l),
(453,553,l),
(153,553,l)
);
}
);
width = 600;
},
{
anchors = (
{
name = bottom;
pos = (300,0);
},
{
name = bottomCenter;
pos = (301,-60);
},
{
name = top;
pos = (300,612);
}
);
layerId = "58E25AC2-F473-41C5-84EA-658E208701C1";
shapes = (
{
closed = 1;
nodes = (
(80,448,l),
(80,120,l),
(161,0,l),
(441,0,l),
(510,72,l),
(469,133,l),
(410,72,l),
(199,72,l),
(160,130,l),
(160,427,l),
(191,459,l),
(402,459,l),
(461,372,l),
(512,425,l),
(441,531,l),
(160,531,l)
);
}
);
width = 600;
}
);
unicode = 99;
},
{
glyphname = d;
lastChange = "2023-12-29 15:20:17 +0000";
layers = (
{
anchors = (
{
name = bottom;
pos = (300,-60);
},
{
name = bottomCenter;
pos = (301,-60);
},
{
name = rightCaron;
pos = (581,692);
},
{
name = stroke;
pos = (472,644);
}
);
layerId = m01;
shapes = (
{
closed = 1;
nodes = (
(426,519,l),
(372,552,l),
(156,552,l),
(64,455,l),
(64,135,l),
(156,0,l),
(372,0,l),
(426,33,l),
(426,0,l),
(547,0,l),
(547,768,l),
(426,768,l)
);
},
{
closed = 1;
nodes = (
(185,418,l),
(205,439,l),
(397,439,l),
(426,395,l),
(426,131,l),
(408,113,l),
(214,113,l),
(185,156,l)
);
}
);
width = 600;
},
{
anchors = (
{
name = bottom;
pos = (300,-60);
},
{
name = bottomCenter;
pos = (301,-60);
},
{
name = rightCaron;
pos = (581,692);
},
{
name = stroke;
pos = (472,644);
}
);
layerId = "58E25AC2-F473-41C5-84EA-658E208701C1";
shapes = (
{
closed = 1;
nodes = (
(442,484,l),
(361,532,l),
(161,532,l),
(80,447,l),
(80,121,l),
(163,0,l),
(362,0,l),
(442,48,l),
(442,0,l),
(523,0,l),
(523,749,l),
(442,749,l)
);
},
{
closed = 1;
nodes = (
(161,427,l),
(192,459,l),
(404,459,l),
(442,402,l),
(442,103,l),
(413,73,l),
(199,73,l),
(161,131,l)
);
}
);
width = 600;
}
);
unicode = 100;
},
{
glyphname = eth;
lastChange = "2023-12-29 02:38:19 +0000";
layers = (
{
layerId = "58E25AC2-F473-41C5-84EA-658E208701C1";
shapes = (
{
closed = 1;
nodes = (
(312,687,l),
(381,757,l),
(431,708,l),
(369,644,l),
(477,531,l),
(534,324,l),
(534,216,l),
(474,33,l),
(306,-40,l),
(137,33,l),
(66,222,l),
(137,412,l),
(305,475,l),
(441,394,l),
(413,495,l),
(320,593,l),
(235,507,l),
(185,556,l),
(259,631,l),
(145,671,l),
(168,737,l)
);
},
{
closed = 1;
nodes = (
(306,36,l),
(416,85,l),
(463,228,l),
(463,299,l),
(298,398,l),
(192,358,l),
(142,222,l),
(192,85,l)
);
}
);
width = 600;
},
{
layerId = m01;
shapes = (
{
closed = 1;
nodes = (
(283,684,l),
(355,758,l),
(441,674,l),
(383,614,l),
(483,510,l),
(536,307,l),
(536,205,l),
(472,13,l),
(304,-60,l),
(134,13,l),
(64,202,l),
(135,392,l),
(302,458,l),
(397,413,l),
(386,462,l),
(310,536,l),
(248,476,l),
(162,560,l),
(203,598,l),
(110,627,l),
(145,731,l)
);
},
{
closed = 1;
nodes = (
(304,60,l),
(380,97,l),
(423,225,l),
(415,296,l),
(298,351,l),
(229,324,l),
(178,202,l),
(222,97,l)
);
}
);
width = 600;
}
);
unicode = 240;
},
{
glyphname = e;
lastChange = "2023-12-29 16:41:46 +0000";
layers = (
{
anchors = (
{
name = bottom;
pos = (298,0);
},
{
name = bottomCenter;
pos = (301,-60);
},
{
name = top;
pos = (298,621);
}
);
layerId = m01;
shapes = (
{
closed = 1;
nodes = (
(448,553,l),
(539,417,l),
(362,235,l),
(179,235,l),
(179,163,l),
(211,116,l),
(403,116,l),
(458,173,l),
(528,85,l),
(446,0,l),
(151,0,l),
(64,130,l),
(64,461,l),
(153,553,l)
);
},
{
closed = 1;
nodes = (
(179,336,l),
(318,336,l),
(392,414,l),
(376,437,l),
(202,437,l),
(179,413,l)
);
}
);
width = 600;
},
{
anchors = (
{
name = bottom;
pos = (298,0);
},
{
name = bottomCenter;
pos = (301,-60);
},
{
name = top;
pos = (298,599);
}
);
layerId = "58E25AC2-F473-41C5-84EA-658E208701C1";
shapes = (
{
closed = 1;
nodes = (
(438,531,l),
(521,412,l),
(356,242,l),
(158,242,l),
(158,130,l),
(197,72,l),
(409,72,l),
(465,127,l),
(509,72,l),
(439,0,l),
(159,0,l),
(78,120,l),
(78,448,l),
(158,531,l)
);
},
{
closed = 1;
nodes = (
(158,314,l),
(326,314,l),
(427,420,l),
(401,459,l),
(190,459,l),
(158,427,l)
);
}
);
width = 600;
}
);
unicode = 101;
},
{
glyphname = f;
lastChange = "2023-12-27 11:42:34 +0000";
layers = (
{
anchors = (
{
name = bottom;
pos = (199,-80);
},
{
name = bottomCenter;
pos = (199,-80);
},
{
name = top;
pos = (361,780);
}
);
layerId = m01;
shapes = (
{
closed = 1;
nodes = (
(479,700,l),
(542,609,l),
(462,527,l),
(421,587,l),
(292,587,l),
(260,555,l),
(260,430,l),
(421,430,l),
(421,318,l),
(260,318,l),
(260,0,l),
(139,0,l),
(139,318,l),
(59,318,l),
(59,430,l),
(139,430,l),
(139,594,l),
(243,700,l)
);
}
);
width = 600;
},
{
anchors = (
{
name = bottom;
pos = (199,-60);
},
{
name = bottomCenter;
pos = (199,-60);
},
{
name = top;
pos = (361,760);
}
);
layerId = "58E25AC2-F473-41C5-84EA-658E208701C1";
shapes = (
{
closed = 1;
nodes = (
(472,700,l),
(521,631,l),
(470,579,l),
(437,628,l),
(283,628,l),
(239,583,l),
(239,410,l),
(437,410,l),
(437,338,l),
(239,338,l),
(239,0,l),
(159,0,l),
(159,338,l),
(79,338,l),
(79,410,l),
(159,410,l),
(159,606,l),
(250,700,l)
);
}
);
width = 600;
}
);
unicode = 102;
},
{
glyphname = g;
lastChange = "2023-12-31 01:26:14 +0000";
layers = (
{
anchors = (
{
name = bottom;
pos = (278,-215);
},
{
name = bottomCenter;
pos = (278,-289);
},
{
name = top;
pos = (280,616);
}
);
layerId = m01;
shapes = (
{
closed = 1;
nodes = (
(206,-11,l),
(206,-64,l),
(231,-101,l),
(349,-101,l),
(417,-35,l),
(417,18,l),
(412,25,l),
(246,25,l)
);
},
{
closed = 1;
nodes = (
(196,305,l),
(353,305,l),
(418,345,l),
(418,395,l),
(389,436,l),
(228,436,l),
(196,402,l)
);
},
{
closed = 1;
nodes = (
(225,191,l),
(201,166,l),
(216,139,l),
(473,139,l),
(543,30,l),
(543,-82,l),
(397,-215,l),
(173,-215,l),
(80,-96,l),
(80,16,l),
(131,67,l),
(56,181,l),
(107,230,l),
(76,250,l),
(76,440,l),
(181,550,l),
(364,550,l),
(418,518,l),
(418,550,l),
(539,550,l),
(539,299,l),
(364,191,l)
);
}
);
width = 600;
},
{
anchors = (
{
name = bottom;
pos = (278,-209);
},
{
name = bottomCenter;
pos = (278,-269);
},
{
name = top;
pos = (280,586);
}
);
layerId = "58E25AC2-F473-41C5-84EA-658E208701C1";
shapes = (
{
closed = 1;
nodes = (
(167,4,l),
(167,-76,l),
(207,-136,l),
(356,-136,l),
(440,-51,l),
(440,29,l),
(421,59,l),
(224,59,l)
);
},
{
closed = 1;
nodes = (
(167,279,l),
(359,279,l),
(440,329,l),
(440,425,l),
(402,480,l),
(210,480,l),
(167,433,l)
);
},
{
closed = 1;
nodes = (
(207,205,l),
(170,167,l),
(191,133,l),
(460,133,l),
(521,38,l),
(521,-68,l),
(386,-209,l),
(170,-209,l),
(86,-84,l),
(86,21,l),
(143,78,l),
(78,175,l),
(130,227,l),
(86,254,l),
(86,455,l),
(180,553,l),
(360,553,l),
(440,504,l),
(440,553,l),
(521,553,l),
(521,303,l),
(361,205,l)
);
}
);
width = 600;
}
);
unicode = 103;
},
{
glyphname = h;
lastChange = "2023-12-29 01:35:23 +0000";
layers = (
{
anchors = (
{
name = bottom;
pos = (300,-70);
},
{
name = bottomCenter;
pos = (301,-70);
},
{
name = left;
pos = (19,375);
},
{
name = middle;
pos = (300,230);
},
{
name = right;
pos = (583,375);
},
{
name = stroke;
pos = (130,664);
},
{
name = top;
pos = (339,809);
}
);
layerId = m01;
shapes = (
{
closed = 1;
nodes = (
(59,0,l),
(180,0,l),
(180,420,l),
(200,439,l),
(392,439,l),
(421,397,l),
(421,0,l),
(542,0,l),
(542,420,l),
(449,551,l),
(234,551,l),
(180,518,l),
(180,769,l),
(59,769,l)
);
}
);
width = 600;
},
{
anchors = (
{
name = bottom;
pos = (300,-70);
},
{
name = bottomCenter;
pos = (301,-70);
},
{
name = left;
pos = (19,375);
},
{
name = middle;
pos = (300,230);
},
{
name = right;
pos = (583,375);
},
{
name = stroke;
pos = (130,643);
},
{
name = top;
pos = (339,809);
}
);
layerId = "58E25AC2-F473-41C5-84EA-658E208701C1";
shapes = (
{
closed = 1;
nodes = (
(79,0,l),
(159,0,l),
(159,428,l),
(192,459,l),
(403,459,l),
(441,403,l),
(441,0,l),
(522,0,l),
(522,413,l),
(439,531,l),
(239,531,l),
(159,483,l),
(159,749,l),
(79,749,l)
);
}
);
width = 600;
}
);
unicode = 104;
},
{
glyphname = idotless;
lastChange = "2023-12-27 13:13:32 +0000";
layers = (
{
anchors = (
{
name = bottom;
pos = (300,0);
},
{
name = bottomCenter;
pos = (301,-60);
},
{
name = middle;
pos = (300,280);
},
{
name = top;
pos = (300,680);
}
);
layerId = "58E25AC2-F473-41C5-84EA-658E208701C1";
shapes = (
{
closed = 1;
nodes = (
(260,550,l),
(340,430,l),
(340,72,l),
(521,72,l),
(521,0,l),
(79,0,l),
(79,72,l),
(260,72,l),
(260,420,l),
(222,477,l),
(119,477,l),
(119,550,l)
);
}
);
width = 600;
},
{
anchors = (
{
name = bottom;
pos = (300,0);
},
{
name = bottomCenter;
pos = (301,-60);
},
{
name = middle;
pos = (300,280);
},
{
name = top;
pos = (300,680);
}
);
layerId = m01;
shapes = (
{
closed = 1;
nodes = (
(269,570,l),
(358,438,l),
(358,109,l),
(541,109,l),
(541,0,l),
(59,0,l),
(59,109,l),
(242,109,l),
(242,417,l),
(212,461,l),
(101,461,l),
(101,570,l)
);
}
);
width = 600;
}
);
unicode = 305;
},
{
glyphname = ij;
lastChange = "2023-12-29 02:38:19 +0000";
layers = (
{
layerId = "58E25AC2-F473-41C5-84EA-658E208701C1";
shapes = (
{
closed = 1;
nodes = (
(78,700,l),
(179,700,l),
(179,602,l),
(78,602,l)
);
},
{
closed = 1;
nodes = (
(421,700,l),
(522,700,l),
(522,602,l),
(421,602,l)
);
},
{
closed = 1;
nodes = (
(511,481,l),
(511,-99,l),
(348,-267,l),
(210,-267,l),
(210,-195,l),
(318,-195,l),
(430,-78,l),
(430,-64,l),
(89,23,l),
(89,481,l),
(169,481,l),
(169,71,l),
(430,13,l),
(430,481,l)
);
}
);
width = 600;
},
{
layerId = m01;
shapes = (
{
closed = 1;
nodes = (
(58,700,l),
(199,700,l),
(199,562,l),
(58,562,l)
);
},
{
closed = 1;
nodes = (
(401,700,l),
(542,700,l),
(542,562,l),
(401,562,l)
);
},
{
closed = 1;
nodes = (
(531,501,l),
(531,-86,l),
(357,-267,l),
(149,-267,l),
(149,-154,l),
(310,-154,l),
(405,-66,l),
(405,-56,l),
(68,29,l),
(68,501,l),
(189,501,l),
(189,105,l),
(410,62,l),
(410,501,l)
);
}
);
width = 600;
}
);
unicode = 307;
},
{
glyphname = jdotless;
lastChange = "2023-12-27 13:08:34 +0000";
layers = (
{
anchors = (
{
name = bottomCenter;
pos = (218,-160);
},
{
name = top;
pos = (340,680);
}
);
layerId = "58E25AC2-F473-41C5-84EA-658E208701C1";
shapes = (
{
closed = 1;
nodes = (
(239,478,l),
(360,478,l),
(360,79,l),
(248,-38,l),
(140,-38,l),
(140,-110,l),
(278,-110,l),
(441,58,l),
(441,550,l),
(239,550,l)
);
}
);
width = 600;
},
{
anchors = (
{
name = bottomCenter;
pos = (236,-170);
},
{
name = top;
pos = (360,690);
}
);
layerId = m01;
shapes = (
{
closed = 1;
nodes = (
(221,450,l),
(361,450,l),
(361,106,l),
(260,0,l),
(160,0,l),
(160,-110,l),
(306,-110,l),
(479,70,l),
(479,560,l),
(221,560,l)
);
}
);
width = 600;
}
);
unicode = 567;
},
{
glyphname = k;
lastChange = "2023-12-27 11:46:09 +0000";
layers = (
{
anchors = (
{
name = bottom;
pos = (300,-60);
},
{
name = bottomCenter;
pos = (301,-60);
},
{
name = top;
pos = (300,808);
}
);
layerId = m01;
shapes = (
{
closed = 1;
nodes = (
(180,748,l),
(180,394,l),
(362,583,l),
(521,583,l),
(345,405,l),
(542,113,l),
(542,0,l),
(421,0,l),
(421,92,l),
(264,321,l),
(180,234,l),
(180,0,l),
(59,0,l),
(59,748,l)
);
}
);
width = 600;
},
{
anchors = (
{
name = bottom;
pos = (300,-60);
},
{
name = bottomCenter;
pos = (301,-60);
},
{
name = top;
pos = (300,808);
}
);
layerId = "58E25AC2-F473-41C5-84EA-658E208701C1";
shapes = (
{
closed = 1;
nodes = (
(159,748,l),
(159,344,l),
(370,562,l),
(470,562,l),
(319,407,l),
(522,107,l),
(522,0,l),
(441,0,l),
(441,98,l),
(267,353,l),
(159,242,l),
(159,0,l),
(79,0,l),
(79,748,l)
);
}
);
width = 600;
}
);
unicode = 107;
},
{
glyphname = l;
lastChange = "2023-12-29 15:17:36 +0000";
layers = (
{
anchors = (
{
name = bottom;
pos = (288,-90);
},
{
name = bottomCenter;
pos = (359,-90);
},
{
name = left;
pos = (78,375);
},
{
name = right;
pos = (521,375);
},
{
name = rightCaron;
pos = (412,616);
},
{
name = top;
pos = (269,829);
}
);
layerId = m01;
shapes = (
{
closed = 1;
nodes = (
(227,748,l),
(322,692,l),
(322,155,l),
(351,112,l),
(521,112,l),
(521,0,l),
(292,0,l),
(202,133,l),
(202,636,l),
(78,636,l),
(78,748,l)
);
}
);
width = 600;
},
{
anchors = (
{
name = bottom;
pos = (288,-70);
},
{
name = bottomCenter;
pos = (371,-70);
},
{
name = left;
pos = (78,375);
},
{
name = right;
pos = (521,375);
},
{
name = rightCaron;
pos = (412,616);
},
{
name = top;
pos = (269,809);
}
);
layerId = "58E25AC2-F473-41C5-84EA-658E208701C1";
shapes = (
{
closed = 1;
nodes = (
(228,748,l),
(309,700,l),
(309,129,l),
(347,72,l),
(521,72,l),
(520,0,l),
(309,0,l),
(228,119,l),
(228,676,l),
(78,676,l),
(78,748,l)
);
}
);
width = 600;
}
);
unicode = 108;
},
{
glyphname = m;
lastChange = "2023-12-27 11:49:15 +0000";
layers = (
{
anchors = (
{
name = bottom;
pos = (510,0);
},
{
name = bottomCenter;
pos = (301,-60);
},
{
name = top;
pos = (300,620);
}
);
layerId = m01;
shapes = (
{
closed = 1;
nodes = (
(160,551,l),
(160,518,l),
(214,551,l),
(272,551,l),
(314,489,l),
(416,551,l),
(472,551,l),
(562,418,l),
(562,0,l),
(441,0,l),
(441,396,l),
(413,439,l),
(380,439,l),
(362,418,l),
(362,277,l),
(241,277,l),
(241,396,l),
(212,439,l),
(178,439,l),
(160,418,l),
(160,0,l),
(39,0,l),
(39,551,l)
);
}
);
width = 600;
},
{
anchors = (
{
name = bottom;
pos = (509,0);
},
{
name = bottomCenter;
pos = (301,-60);
},
{
name = top;
pos = (307,600);
}
);
layerId = "58E25AC2-F473-41C5-84EA-658E208701C1";
shapes = (
{
closed = 1;
nodes = (
(139,531,l),
(139,483,l),
(219,531,l),
(261,531,l),
(307,462,l),
(422,531,l),
(461,531,l),
(542,412,l),
(542,0,l),
(461,0,l),
(461,402,l),
(423,459,l),
(372,459,l),
(342,426,l),
(342,277,l),
(261,277,l),
(261,402,l),
(223,459,l),
(170,459,l),
(139,426,l),
(139,0,l),
(59,0,l),
(59,531,l)
);
}
);
width = 600;
}
);
unicode = 109;
},
{
glyphname = n;
lastChange = "2023-12-29 16:34:53 +0000";
layers = (
{
anchors = (
{
name = bottom;
pos = (300,-80);
},
{
name = bottomCenter;
pos = (301,-60);
},
{
name = top;
pos = (344,620);
}
);
layerId = m01;
shapes = (
{
closed = 1;
nodes = (
(180,551,l),
(180,518,l),
(235,551,l),
(452,551,l),
(542,418,l),
(542,0,l),
(421,0,l),
(421,396,l),
(392,439,l),
(198,439,l),
(180,418,l),
(180,0,l),
(59,0,l),
(59,551,l)
);
}
);
width = 600;
},
{
anchors = (
{
name = bottom;
pos = (300,-60);
},
{
name = bottomCenter;
pos = (301,-60);
},
{
name = top;
pos = (341,599);
}
);
layerId = "58E25AC2-F473-41C5-84EA-658E208701C1";
shapes = (
{
closed = 1;
nodes = (
(159,531,l),
(159,483,l),
(240,531,l),
(441,531,l),
(522,413,l),
(522,0,l),
(441,0,l),
(441,403,l),
(403,459,l),
(190,459,l),
(159,427,l),
(159,0,l),
(79,0,l),
(79,531,l)
);
}
);
width = 600;
}
);
unicode = 110;
},
{
glyphname = o;
lastChange = "2023-12-29 02:18:51 +0000";
layers = (
{
anchors = (
{
name = bottom;
pos = (301,-80);
},
{
name = bottomCenter;
pos = (301,-60);
},
{
name = slash;
pos = (300,300);
},
{
name = top;
pos = (302,620);
}
);
layerId = m01;
shapes = (
{
closed = 1;
nodes = (
(60,456,l),
(60,134,l),
(151,0,l),
(451,0,l),
(543,95,l),
(543,417,l),
(453,551,l),
(152,551,l)
);
},
{
closed = 1;
nodes = (
(180,418,l),
(199,439,l),
(392,439,l),
(421,396,l),
(421,132,l),
(403,113,l),
(209,113,l),
(180,156,l)
);
}
);
width = 600;
},
{
anchors = (
{
name = bottom;
pos = (301,-60);
},
{
name = bottomCenter;
pos = (301,-60);
},
{
name = slash;
pos = (300,300);
},
{
name = top;
pos = (301,600);
}
);
layerId = "58E25AC2-F473-41C5-84EA-658E208701C1";
shapes = (
{
closed = 1;
nodes = (
(80,448,l),
(80,120,l),
(161,0,l),
(443,0,l),
(523,83,l),
(523,411,l),
(443,531,l),
(160,531,l)
);
},
{
closed = 1;
nodes = (
(159,426,l),
(190,459,l),
(403,459,l),
(441,402,l),
(441,104,l),
(411,72,l),
(199,72,l),
(159,130,l)
);
}
);
width = 600;
}
);
unicode = 111;
},
{
glyphname = oe;
lastChange = "2023-12-29 02:38:19 +0000";
layers = (
{
layerId = "58E25AC2-F473-41C5-84EA-658E208701C1";
shapes = (
{
closed = 1;
nodes = (
(263,531,l),
(295,482,l),
(343,531,l),
(516,531,l),
(597,412,l),
(433,242,l),
(343,242,l),
(343,130,l),
(382,72,l),
(486,72,l),
(545,133,l),
(586,72,l),
(516,0,l),
(343,0,l),
(310,50,l),
(263,0,l),
(84,0,l),
(3,120,l),
(3,448,l),
(83,531,l)
);
},
{
closed = 1;
nodes = (
(123,72,l),
(232,72,l),
(263,104,l),
(263,402,l),
(224,459,l),
(114,459,l),
(84,426,l),
(84,130,l)
);
},
{
closed = 1;
nodes = (
(343,314,l),
(402,314,l),
(504,420,l),
(477,459,l),
(374,459,l),
(343,427,l)
);
}
);
width = 600;
},
{
layerId = m01;
shapes = (
{
closed = 1;
nodes = (
(270,552,l),
(295,514,l),
(332,552,l),
(509,552,l),
(605,410,l),
(423,222,l),
(360,222,l),
(360,156,l),
(390,113,l),
(459,113,l),
(529,185,l),
(594,91,l),
(507,0,l),
(330,0,l),
(305,38,l),
(268,0,l),
(86,0,l),
(-5,135,l),
(-5,457,l),
(87,552,l)
);
},
{
closed = 1;
nodes = (
(146,113,l),
(221,113,l),
(240,132,l),
(240,396,l),
(210,439,l),
(135,439,l),
(116,419,l),
(116,156,l)
);
},
{
closed = 1;
nodes = (
(360,335,l),
(376,335,l),
(460,423,l),
(449,439,l),
(380,439,l),
(360,419,l)
);
}
);
width = 600;
}
);
unicode = 339;
},
{
glyphname = p;
lastChange = "2023-12-27 11:50:02 +0000";
layers = (
{
anchors = (
{
name = bottom;
pos = (339,-216);
},
{
name = bottomCenter;
pos = (314,-60);
},
{
name = top;
pos = (343,620);
}
);
layerId = m01;
shapes = (
{
closed = 1;
nodes = (
(453,551,l),
(541,417,l),
(541,95,l),
(449,0,l),
(235,0,l),
(180,32,l),
(180,-216,l),
(59,-216,l),
(59,551,l),
(180,551,l),
(180,518,l),
(233,551,l)
);
},
{
closed = 1;
nodes = (
(209,112,l),
(402,112,l),
(420,131,l),
(420,394,l),
(391,438,l),
(199,438,l),
(180,419,l),
(180,156,l)
);
}
);
width = 600;
},
{
anchors = (
{
name = bottom;
pos = (340,-216);
},
{
name = bottomCenter;
pos = (314,-60);
},
{
name = top;
pos = (342,600);
}
);
layerId = "58E25AC2-F473-41C5-84EA-658E208701C1";
shapes = (
{
closed = 1;
nodes = (
(442,531,l),
(521,411,l),
(521,83,l),
(441,0,l),
(240,0,l),
(159,48,l),
(159,-216,l),
(79,-216,l),
(79,531,l),
(159,531,l),
(159,482,l),
(239,531,l)
);
},
{
closed = 1;
nodes = (
(199,72,l),
(410,72,l),
(440,103,l),
(440,401,l),
(402,458,l),
(190,458,l),
(159,427,l),
(159,130,l)
);
}
);
width = 600;
}
);
unicode = 112;
},
{
glyphname = thorn;
lastChange = "2023-12-29 02:38:19 +0000";
layers = (
{
layerId = "58E25AC2-F473-41C5-84EA-658E208701C1";
shapes = (
{
closed = 1;
nodes = (
(159,748,l),
(159,483,l),
(239,532,l),
(440,532,l),
(521,410,l),
(521,85,l),
(440,0,l),
(241,0,l),
(159,48,l),
(159,-191,l),
(79,-191,l),
(79,748,l)
);
},
{
closed = 1;
nodes = (
(159,73,l),
(411,73,l),
(441,105,l),
(441,401,l),
(402,459,l),
(191,459,l),
(159,427,l)
);
}
);
width = 600;
},
{
layerId = m01;
shapes = (
{
closed = 1;
nodes = (
(179,770,l),
(179,519,l),
(233,552,l),
(450,552,l),
(541,417,l),
(541,97,l),
(448,0,l),
(236,0,l),
(179,33,l),
(179,-211,l),
(59,-211,l),
(59,770,l)
);
},
{
closed = 1;
nodes = (
(179,113,l),
(402,113,l),
(421,133,l),
(421,395,l),
(391,439,l),
(199,439,l),
(179,419,l)
);
}
);
width = 600;
}
);
unicode = 254;
},
{
glyphname = q;
lastChange = "2023-12-27 11:50:36 +0000";
layers = (
{
anchors = (
{
name = bottom;
pos = (259,-216);
},
{
name = bottomCenter;
pos = (284,-60);
},
{
name = top;
pos = (263,620);
}
);
layerId = m01;
shapes = (
{
closed = 1;
nodes = (
(364,551,l),
(420,518,l),
(420,550,l),
(541,550,l),
(541,-216,l),
(420,-216,l),
(420,32,l),
(365,0,l),
(149,0,l),
(59,134,l),
(59,456,l),
(151,551,l)
);
},
{
closed = 1;
nodes = (
(209,112,l),
(400,112,l),
(420,132,l),
(420,395,l),
(390,438,l),
(199,438,l),
(180,419,l),
(180,157,l)
);
}
);
width = 600;
},
{
anchors = (
{
name = bottom;
pos = (260,-216);
},
{
name = bottomCenter;
pos = (300,-60);
},
{
name = top;
pos = (262,600);
}
);
layerId = "58E25AC2-F473-41C5-84EA-658E208701C1";
shapes = (
{
closed = 1;
nodes = (
(359,531,l),
(440,482,l),
(440,530,l),
(521,530,l),
(521,-216,l),
(440,-216,l),
(440,48,l),
(360,0,l),
(159,0,l),
(79,120,l),
(79,448,l),
(159,531,l)
);
},
{
closed = 1;
nodes = (
(199,72,l),
(409,72,l),
(440,103,l),
(440,402,l),
(400,458,l),
(191,458,l),
(159,427,l),
(159,130,l)
);
}
);
width = 600;
}
);
unicode = 113;
},
{
glyphname = r;
lastChange = "2023-12-29 16:34:24 +0000";
layers = (
{
anchors = (
{
name = bottom;
pos = (232,-80);
},
{
name = bottomCenter;
pos = (232,-80);
},
{
name = top;
pos = (369,620);
}
);
layerId = m01;
shapes = (
{
closed = 1;
nodes = (
(119,551,l),
(206,500,l),
(255,551,l),
(482,551,l),
(550,449,l),
(457,386,l),
(423,439,l),
(303,439,l),
(271,405,l),
(271,112,l),
(413,112,l),
(413,0,l),
(50,0,l),
(50,112,l),
(151,112,l),
(151,396,l),
(122,439,l),
(50,439,l),
(50,551,l)
);
}
);
width = 600;
},
{
anchors = (
{
name = bottom;
pos = (232,-60);
},
{
name = bottomCenter;
pos = (232,-60);
},
{
name = top;
pos = (369,599);
}
);
layerId = "58E25AC2-F473-41C5-84EA-658E208701C1";
shapes = (
{
closed = 1;
nodes = (
(118,531,l),
(213,474,l),
(268,531,l),
(474,531,l),
(526,455,l),
(466,414,l),
(436,459,l),
(299,459,l),
(255,412,l),
(255,72,l),
(396,72,l),
(396,0,l),
(74,0,l),
(74,72,l),
(175,72,l),
(175,402,l),
(136,459,l),
(74,459,l),
(74,531,l)
);
}
);
width = 600;
}
);
unicode = 114;
},
{
glyphname = s;
lastChange = "2023-12-29 16:34:33 +0000";
layers = (
{
anchors = (
{
name = bottom;
pos = (286,0);
},
{
name = bottomCenter;
pos = (301,-60);
},
{
name = top;
pos = (303,620);
}
);
layerId = m01;
shapes = (
{
closed = 1;
nodes = (
(73,472,l),
(73,362,l),
(159,233,l),
(393,233,l),
(412,205,l),
(412,124,l),
(402,113,l),
(180,113,l),
(145,164,l),
(67,84,l),
(121,0,l),
(454,0,l),
(533,88,l),
(533,229,l),
(455,345,l),
(221,345,l),
(193,386,l),
(193,432,l),
(211,448,l),
(395,448,l),
(443,378,l),
(521,459,l),
(453,558,l),
(161,558,l)
);
}
);
width = 600;
},
{
anchors = (
{
name = bottom;
pos = (286,-10);
},
{
name = bottomCenter;
pos = (301,-60);
},
{
name = top;
pos = (303,599);
}
);
layerId = "58E25AC2-F473-41C5-84EA-658E208701C1";
shapes = (
{
closed = 1;
nodes = (
(89,457,l),
(89,346,l),
(165,231,l),
(402,231,l),
(431,190,l),
(431,96,l),
(410,72,l),
(165,72,l),
(138,113,l),
(89,62,l),
(129,0,l),
(443,0,l),
(511,75,l),
(511,202,l),
(443,304,l),
(207,304,l),
(169,358,l),
(169,434,l),
(200,461,l),
(404,461,l),
(444,402,l),
(493,454,l),
(441,531,l),
(165,531,l)
);
}
);
width = 600;
}
);
unicode = 115;
},
{
glyphname = germandbls;
lastChange = "2023-12-29 02:38:19 +0000";
layers = (
{
layerId = "58E25AC2-F473-41C5-84EA-658E208701C1";
shapes = (
{
closed = 1;
nodes = (
(442,584,l),
(442,500,l),
(323,410,l),
(412,410,l),
(521,248,l),
(521,87,l),
(436,0,l),
(285,0,l),
(285,72,l),
(406,72,l),
(441,109,l),
(441,239,l),
(374,337,l),
(229,337,l),
(229,418,l),
(372,531,l),
(250,608,l),
(159,512,l),
(159,0,l),
(78,0,l),
(78,534,l),
(239,700,l)
);
}
);
width = 600;
},
{
layerId = m01;
shapes = (
{
closed = 1;
nodes = (
(452,624,l),
(452,512,l),
(370,450,l),
(423,450,l),
(541,274,l),
(541,100,l),
(445,0,l),
(285,0,l),
(285,113,l),
(398,113,l),
(420,137,l),
(420,253,l),
(364,337,l),
(209,337,l),
(209,447,l),
(346,571,l),
(267,620,l),
(179,524,l),
(179,0,l),
(58,0,l),
(58,562,l),
(237,755,l)
);
}
);
width = 600;
}
);
unicode = 223;
},
{
glyphname = t;
lastChange = "2023-12-29 15:21:25 +0000";
layers = (
{
anchors = (
{
name = bottom;
pos = (343,0);
},
{
name = bottomCenter;
pos = (345,-60);
},
{
name = rightCaron;
pos = (376,770);
},
{
name = stroke;
pos = (206,293);
},
{
name = top;
pos = (218,808);
}
);
layerId = m01;
shapes = (
{
closed = 1;
nodes = (
(156,552,l),
(76,552,l),
(76,439,l),
(156,439,l),
(156,132,l),
(246,0,l),
(439,0,l),
(524,91,l),
(460,184,l),
(389,113,l),
(305,113,l),
(277,156,l),
(277,439,l),
(439,439,l),
(439,552,l),
(277,552,l),
(277,748,l),
(156,748,l)
);
}
);
width = 600;
},
{
anchors = (
{
name = bottom;
pos = (343,-10);
},
{
name = bottomCenter;
pos = (345,-60);
},
{
name = rightCaron;
pos = (376,770);
},
{
name = stroke;
pos = (227,345);
},
{
name = top;
pos = (218,788);
}
);
layerId = "58E25AC2-F473-41C5-84EA-658E208701C1";
shapes = (
{
closed = 1;
nodes = (
(179,532,l),
(100,532,l),
(100,459,l),
(179,459,l),
(179,118,l),
(259,0,l),
(432,0,l),
(500,73,l),
(459,133,l),
(399,73,l),
(298,73,l),
(259,130,l),
(259,459,l),
(421,459,l),
(421,532,l),
(259,532,l),
(259,748,l),
(179,748,l)
);
}
);
width = 600;
}
);
unicode = 116;
},
{
glyphname = u;
lastChange = "2023-12-27 11:53:06 +0000";
layers = (
{
anchors = (
{
name = bottom;
pos = (488,0);
},
{
name = bottomCenter;
pos = (300,-60);
},
{
name = top;
pos = (300,620);
}
);
layerId = m01;
shapes = (
{
closed = 1;
nodes = (
(541,551,l),
(541,0,l),
(422,0,l),
(422,33,l),
(366,0,l),
(150,0,l),
(59,134,l),
(59,551,l),
(180,551,l),
(180,156,l),
(209,113,l),
(402,113,l),
(420,132,l),
(420,551,l)
);
}
);
width = 600;
},
{
anchors = (
{
name = bottom;
pos = (478,-10);
},
{
name = bottomCenter;
pos = (300,-60);
},
{
name = top;
pos = (300,600);
}
);
layerId = "58E25AC2-F473-41C5-84EA-658E208701C1";
shapes = (
{
closed = 1;
nodes = (
(521,531,l),
(521,0,l),
(442,0,l),
(442,49,l),
(360,0,l),
(160,0,l),
(79,120,l),
(79,531,l),
(159,531,l),
(159,130,l),
(198,73,l),
(411,73,l),
(440,104,l),
(440,531,l)
);
}
);
width = 600;
}
);
unicode = 117;
},
{
glyphname = v;
lastChange = "2023-12-27 11:53:18 +0000";
layers = (
{
anchors = (
{
name = bottom;
pos = (273,-80);
},
{
name = bottomCenter;
pos = (300,-80);
},
{
name = top;
pos = (300,620);
}
);
layerId = m01;
shapes = (
{
closed = 1;
nodes = (
(542,552,l),
(542,238,l),
(312,0,l),
(223,0,l),
(59,244,l),
(59,552,l),
(180,552,l),
(180,267,l),
(276,124,l),
(421,275,l),
(421,552,l)
);
}
);
width = 600;
},
{
anchors = (
{
name = bottom;
pos = (273,-60);
},
{
name = bottomCenter;
pos = (300,-60);
},
{
name = top;
pos = (300,600);
}
);
layerId = "58E25AC2-F473-41C5-84EA-658E208701C1";
shapes = (
{
closed = 1;
nodes = (
(522,532,l),
(522,226,l),
(304,0,l),
(234,0,l),
(79,230,l),
(79,532,l),
(159,532,l),
(159,241,l),
(273,71,l),
(441,246,l),
(441,532,l)
);
}
);
width = 600;
}
);
unicode = 118;
},
{
glyphname = w;
lastChange = "2023-12-27 11:53:29 +0000";
layers = (
{
anchors = (
{
name = bottom;
pos = (296,-80);
},
{
name = bottomCenter;
pos = (300,-80);
},
{
name = top;
pos = (300,620);
}
);
layerId = m01;
shapes = (
{
closed = 1;
nodes = (
(582,551,l),
(582,156,l),
(431,0,l),
(339,0,l),
(307,59,l),
(250,0,l),
(160,0,l),
(19,208,l),
(19,551,l),
(140,551,l),
(140,230,l),
(208,138,l),
(212,138,l),
(238,167,l),
(238,551,l),
(358,551,l),
(358,189,l),
(389,143,l),
(392,143,l),
(462,218,l),
(462,551,l)
);
}
);
width = 600;
},
{
anchors = (
{
name = bottom;
pos = (296,-60);
},
{
name = bottomCenter;
pos = (300,-60);
},
{
name = top;
pos = (300,600);
}
);
layerId = "58E25AC2-F473-41C5-84EA-658E208701C1";
shapes = (
{
closed = 1;
nodes = (
(582,531,l),
(582,144,l),
(443,0,l),
(370,0,l),
(310,91,l),
(221,0,l),
(150,0,l),
(19,194,l),
(19,531,l),
(99,531,l),
(99,204,l),
(187,73,l),
(192,73,l),
(260,144,l),
(260,531,l),
(341,531,l),
(341,173,l),
(409,73,l),
(412,73,l),
(502,165,l),
(502,531,l)
);
}
);
width = 600;
}
);
unicode = 119;
},
{
glyphname = x;
lastChange = "2023-12-27 11:53:36 +0000";
layers = (
{
anchors = (
{
name = bottom;
pos = (296,-80);
},
{
name = bottomCenter;
pos = (300,-60);
},
{
name = top;
pos = (300,620);
}
);
layerId = m01;
shapes = (
{
closed = 1;
nodes = (
(542,551,l),
(542,416,l),
(448,320,l),
(542,181,l),
(542,0,l),
(421,0,l),
(421,159,l),
(372,231,l),
(284,231,l),
(179,122,l),
(179,0,l),
(58,0,l),
(58,157,l),
(148,251,l),
(148,253,l),
(58,394,l),
(58,551,l),
(179,551,l),
(179,416,l),
(227,344,l),
(314,344,l),
(421,454,l),
(421,551,l)
);
}
);
width = 600;
},
{
anchors = (
{
name = bottom;
pos = (296,-60);
},
{
name = bottomCenter;
pos = (300,-60);
},
{
name = top;
pos = (300,600);
}
);
layerId = "58E25AC2-F473-41C5-84EA-658E208701C1";
shapes = (
{
closed = 1;
nodes = (
(522,531,l),
(522,414,l),
(422,312,l),
(522,165,l),
(522,0,l),
(441,0,l),
(441,155,l),
(383,241,l),
(275,241,l),
(158,120,l),
(158,0,l),
(78,0,l),
(78,139,l),
(177,241,l),
(177,243,l),
(78,390,l),
(78,531,l),
(158,531,l),
(158,400,l),
(217,314,l),
(323,314,l),
(441,435,l),
(441,531,l)
);
}
);
width = 600;
}
);
unicode = 120;
},
{
glyphname = y;
lastChange = "2023-12-27 11:54:09 +0000";
layers = (
{
anchors = (
{
name = bottom;
pos = (296,-277);
},
{
name = bottomCenter;
pos = (300,-280);
},
{
name = top;
pos = (300,611);
}
);
layerId = m01;
shapes = (
{
closed = 1;
nodes = (
(541,551,l),
(541,-36,l),
(367,-217,l),
(59,-217,l),
(59,-104,l),
(317,-104,l),
(420,0,l),
(420,0,l),
(168,0,l),
(59,161,l),
(59,551,l),
(180,551,l),
(180,183,l),
(229,112,l),
(420,112,l),
(420,551,l)
);
}
);
width = 600;
},
{
anchors = (
{
name = bottom;
pos = (296,-257);
},
{
name = bottomCenter;
pos = (300,-257);
},
{
name = top;
pos = (300,591);
}
);
layerId = "58E25AC2-F473-41C5-84EA-658E208701C1";
shapes = (
{
closed = 1;
nodes = (
(521,532,l),
(521,-48,l),
(359,-217,l),
(79,-217,l),
(79,-144,l),
(326,-144,l),
(440,-27,l),
(440,0,l),
(179,0,l),
(79,148,l),
(79,532,l),
(159,532,l),
(159,158,l),
(218,73,l),
(440,73,l),
(440,532,l)
);
}
);
width = 600;
}
);
unicode = 121;
},
{
glyphname = z;
lastChange = "2023-12-28 20:58:00 +0000";
layers = (
{
anchors = (
{
name = bottom;
pos = (300,-80);
},
{
name = bottomCenter;
pos = (300,-80);
},
{
name = top;
pos = (300,611);
}
);
layerId = m01;
shapes = (
{
closed = 1;
nodes = (
(531,551,l),
(531,450,l),
(207,113,l),
(531,113,l),
(531,0,l),
(69,0,l),
(69,101,l),
(391,435,l),
(391,439,l),
(69,439,l),
(69,551,l)
);
}
);
width = 600;
},
{
anchors = (
{
name = bottom;
pos = (300,-60);
},
{
name = bottomCenter;
pos = (300,-60);
},
{
name = top;
pos = (300,591);
}
);
layerId = "58E25AC2-F473-41C5-84EA-658E208701C1";
shapes = (
{
closed = 1;
nodes = (
(521,531,l),
(521,425,l),
(180,72,l),
(521,72,l),
(521,0,l),
(79,0,l),
(79,72,l),
(440,447,l),
(440,459,l),
(79,459,l),
(79,531,l)
);
}
);
width = 600;
}
);
unicode = 122;
},
{
glyphname = Delta;
lastChange = "2023-12-30 21:57:33 +0000";
layers = (
{
layerId = "58E25AC2-F473-41C5-84EA-658E208701C1";
shapes = (
{
closed = 1;
nodes = (
(565,0,l),
(39,0,l),
(237,700,l),
(363,700,l)
);
},
{
closed = 1;
nodes = (
(293,634,l),
(135,73,l),
(469,73,l),
(307,634,l)
);
}
);
width = 600;
},
{
layerId = m01;
shapes = (
{
closed = 1;
nodes = (
(565,0,l),
(39,0,l),
(237,700,l),
(363,700,l)
);
},
{
closed = 1;
nodes = (
(293,530,l),
(174,111,l),
(429,111,l),
(308,530,l)
);
}
);
width = 600;
}
);
metricWidth = space;
unicode = 916;
},
{
glyphname = mu;
lastChange = "2023-12-30 22:07:30 +0000";
layers = (
{
layerId = "58E25AC2-F473-41C5-84EA-658E208701C1";
shapes = (
{
closed = 1;
nodes = (
(436,500,l),
(435,103,l),
(406,72,l),
(193,72,l),
(155,130,l),
(156,500,l),
(75,500,l),
(74,-216,l),
(155,-216,l),
(155,47,l),
(236,0,l),
(416,0,l),
(459,45,l),
(482,0,l),
(546,0,l),
(516,92,l),
(517,500,l)
);
}
);
width = 600;
},
{
layerId = m01;
shapes = (
{
closed = 1;
nodes = (
(403,551,l),
(403,131,l),
(385,112,l),
(192,112,l),
(163,156,l),
(163,551,l),
(42,551,l),
(42,-216,l),
(163,-216,l),
(163,32,l),
(218,0,l),
(412,0,l),
(442,31,l),
(458,0,l),
(561,0,l),
(524,115,l),
(524,551,l)
);
}
);
width = 600;
}
);
metricWidth = space;
unicode = 956;
},
{
glyphname = pi;
lastChange = "2023-12-30 22:09:45 +0000";
layers = (
{
layerId = "58E25AC2-F473-41C5-84EA-658E208701C1";
shapes = (
{
closed = 1;
nodes = (
(574,461,l),
(483,461,l),
(483,136,l),
(545,0,l),
(473,0,l),
(410,141,l),
(410,461,l),
(191,461,l),
(191,0,l),
(119,0,l),
(119,461,l),
(26,461,l),
(26,534,l),
(574,534,l)
);
}
);
userData = {
com.fontlab.recipe = "dotlessi+macron+dotlessi%";
public.postscript.hints = {
formatVersion = "1";
hintSetList = (
{
stems = (
"hstem -397 -21",
"hstem 1261 113",
"vstem 248 128",
"vstem 827 128"
);
}
);
id = "w1200m1185,1100l1185,876l1003,876l1003,319l1151,0l918,0l779,311l779,876l424,876l424,0l200,0l200,876l15,876l15,1100";
};
};
width = 600;
},
{
layerId = m01;
shapes = (
{
closed = 1;
nodes = (
(580,441,l),
(503,441,l),
(503,161,l),
(577,0,l),
(460,0,l),
(390,157,l),
(390,441,l),
(211,441,l),
(211,0,l),
(99,0,l),
(99,441,l),
(20,441,l),
(20,555,l),
(580,555,l)
);
}
);
userData = {
com.fontlab.recipe = "dotlessi+macron+dotlessi%";
public.postscript.hints = {
formatVersion = "1";
hintSetList = (
{
stems = (
"hstem -397 -21",
"hstem 1261 113",
"vstem 248 128",
"vstem 827 128"
);
}
);
id = "w1200m1145,1060l1145,916l963,916l963,270l1088,0l944,0l819,280l819,916l384,916l384,0l240,0l240,916l55,916l55,1060";
};
};
width = 600;
}
);
unicode = 960;
},
{
glyphname = zero;
lastChange = "2023-12-26 11:29:13 +0000";
layers = (
{
layerId = m01;
shapes = (
{
closed = 1;
nodes = (
(452,720,l),
(541,587,l),
(541,96,l),
(450,0,l),
(150,0,l),
(59,134,l),
(59,625,l),
(152,720,l)
);
},
{
closed = 1;
nodes = (
(180,301,l),
(420,550,l),
(420,564,l),
(391,607,l),
(198,607,l),
(180,587,l)
);
},
{
closed = 1;
nodes = (
(209,113,l),
(401,113,l),
(420,133,l),
(420,410,l),
(180,160,l),
(180,154,l)
);
}
);
width = 600;
},
{
layerId = "58E25AC2-F473-41C5-84EA-658E208701C1";
shapes = (
{
closed = 1;
nodes = (
(442,700,l),
(521,581,l),
(521,83,l),
(442,0,l),
(160,0,l),
(79,120,l),
(79,617,l),
(160,700,l)
);
},
{
closed = 1;
nodes = (
(159,241,l),
(440,532,l),
(440,570,l),
(401,628,l),
(190,628,l),
(159,595,l)
);
},
{
closed = 1;
nodes = (
(198,72,l),
(410,72,l),
(440,105,l),
(440,429,l),
(159,137,l),
(159,130,l)
);
}
);
width = 600;
}
);
unicode = 48;
},
{
glyphname = one;
lastChange = "2023-12-26 11:30:11 +0000";
layers = (
{
layerId = m01;
shapes = (
{
closed = 1;
nodes = (
(362,720,l),
(362,113,l),
(541,113,l),
(541,0,l),
(59,0,l),
(59,113,l),
(240,113,l),
(240,546,l),
(132,433,l),
(67,530,l),
(252,720,l)
);
}
);
width = 600;
},
{
layerId = "58E25AC2-F473-41C5-84EA-658E208701C1";
shapes = (
{
closed = 1;
nodes = (
(341,700,l),
(341,72,l),
(521,72,l),
(521,0,l),
(79,0,l),
(79,72,l),
(260,72,l),
(260,595,l),
(134,465,l),
(92,528,l),
(260,700,l)
);
}
);
width = 600;
}
);
unicode = 49;
},
{
glyphname = two;
lastChange = "2023-12-26 11:33:55 +0000";
layers = (
{
layerId = m01;
shapes = (
{
closed = 1;
nodes = (
(458,720,l),
(544,591,l),
(544,492,l),
(182,117,l),
(182,113,l),
(544,113,l),
(544,0,l),
(62,0,l),
(62,154,l),
(432,534,l),
(383,607,l),
(202,607,l),
(120,526,l),
(56,619,l),
(155,720,l)
);
}
);
width = 600;
},
{
layerId = "58E25AC2-F473-41C5-84EA-658E208701C1";
shapes = (
{
closed = 1;
nodes = (
(445,700,l),
(522,585,l),
(522,480,l),
(158,105,l),
(158,72,l),
(522,72,l),
(522,0,l),
(78,0,l),
(78,126,l),
(470,532,l),
(406,628,l),
(190,628,l),
(119,557,l),
(79,617,l),
(160,700,l)
);
}
);
width = 600;
}
);
unicode = 50;
},
{
glyphname = three;
lastChange = "2023-12-26 11:34:57 +0000";
layers = (
{
layerId = m01;
shapes = (
{
closed = 1;
nodes = (
(542,720,l),
(542,608,l),
(370,430,l),
(438,430,l),
(542,274,l),
(542,100,l),
(447,0,l),
(58,0,l),
(58,113,l),
(397,113,l),
(422,137,l),
(422,252,l),
(363,337,l),
(210,337,l),
(210,426,l),
(386,607,l),
(58,607,l),
(58,720,l)
);
}
);
width = 600;
},
{
layerId = "58E25AC2-F473-41C5-84EA-658E208701C1";
shapes = (
{
closed = 1;
nodes = (
(522,700,l),
(522,617,l),
(322,410,l),
(412,410,l),
(522,247,l),
(522,87,l),
(438,0,l),
(78,0,l),
(78,72,l),
(406,72,l),
(442,109,l),
(442,239,l),
(373,337,l),
(230,337,l),
(230,418,l),
(434,628,l),
(78,628,l),
(78,700,l)
);
}
);
width = 600;
}
);
unicode = 51;
},
{
glyphname = four;
lastChange = "2023-12-26 11:38:27 +0000";
layers = (
{
layerId = m01;
shapes = (
{
closed = 1;
nodes = (
(514,720,l),
(514,334,l),
(574,334,l),
(574,221,l),
(514,221,l),
(514,0,l),
(393,0,l),
(393,221,l),
(133,221,l),
(26,378,l),
(357,720,l)
);
},
{
closed = 1;
nodes = (
(190,334,l),
(393,334,l),
(393,595,l),
(169,365,l)
);
}
);
width = 600;
},
{
layerId = "58E25AC2-F473-41C5-84EA-658E208701C1";
shapes = (
{
closed = 1;
nodes = (
(491,700,l),
(491,314,l),
(551,314,l),
(551,241,l),
(491,241,l),
(491,0,l),
(410,0,l),
(410,241,l),
(141,241,l),
(49,376,l),
(363,700,l)
);
},
{
closed = 1;
nodes = (
(177,314,l),
(410,314,l),
(410,645,l),
(141,367,l)
);
}
);
width = 600;
}
);
unicode = 52;
},
{
glyphname = five;
lastChange = "2023-12-26 11:41:46 +0000";
layers = (
{
layerId = m01;
shapes = (
{
closed = 1;
nodes = (
(522,720,l),
(522,607,l),
(179,607,l),
(179,513,l),
(183,503,l),
(421,503,l),
(542,327,l),
(542,99,l),
(447,0,l),
(58,0,l),
(58,112,l),
(396,112,l),
(421,137,l),
(421,306,l),
(362,390,l),
(117,390,l),
(58,477,l),
(58,720,l)
);
}
);
width = 600;
},
{
layerId = "58E25AC2-F473-41C5-84EA-658E208701C1";
shapes = (
{
closed = 1;
nodes = (
(501,700,l),
(501,628,l),
(158,628,l),
(158,493,l),
(164,483,l),
(411,483,l),
(522,321,l),
(522,87,l),
(438,0,l),
(78,0,l),
(78,72,l),
(405,72,l),
(441,109,l),
(441,312,l),
(373,410,l),
(127,410,l),
(78,483,l),
(78,700,l)
);
}
);
width = 600;
}
);
unicode = 53;
},
{
glyphname = six;
lastChange = "2023-12-29 16:15:55 +0000";
layers = (
{
layerId = m01;
shapes = (
{
closed = 1;
nodes = (
(460,721,l),
(460,608,l),
(198,608,l),
(180,588,l),
(180,387,l),
(222,430,l),
(488,430,l),
(541,352,l),
(541,130,l),
(415,0,l),
(139,0,l),
(59,136,l),
(59,625,l),
(151,721,l)
);
},
{
closed = 1;
nodes = (
(210,113,l),
(368,113,l),
(420,167,l),
(420,317,l),
(269,317,l),
(180,227,l),
(180,157,l)
);
}
);
width = 600;
},
{
layerId = "58E25AC2-F473-41C5-84EA-658E208701C1";
shapes = (
{
closed = 1;
nodes = (
(440,700,l),
(440,628,l),
(190,628,l),
(159,596,l),
(159,337,l),
(231,410,l),
(478,410,l),
(521,346,l),
(521,118,l),
(406,0,l),
(159,0,l),
(79,122,l),
(79,617,l),
(159,700,l)
);
},
{
closed = 1;
nodes = (
(200,72,l),
(376,72,l),
(440,139,l),
(440,337,l),
(261,337,l),
(159,235,l),
(159,130,l)
);
}
);
width = 600;
}
);
unicode = 54;
},
{
glyphname = seven;
lastChange = "2023-12-26 11:45:08 +0000";
layers = (
{
layerId = m01;
shapes = (
{
closed = 1;
nodes = (
(541,720,l),
(541,562,l),
(259,274,l),
(259,0,l),
(138,0,l),
(138,311,l),
(420,599,l),
(420,607,l),
(59,607,l),
(59,720,l)
);
}
);
width = 600;
},
{
layerId = "58E25AC2-F473-41C5-84EA-658E208701C1";
shapes = (
{
closed = 1;
nodes = (
(521,700,l),
(521,570,l),
(239,282,l),
(239,0,l),
(158,0,l),
(158,303,l),
(440,591,l),
(440,628,l),
(79,628,l),
(79,700,l)
);
}
);
width = 600;
}
);
unicode = 55;
},
{
glyphname = eight;
lastChange = "2023-12-26 11:46:18 +0000";
layers = (
{
layerId = m01;
shapes = (
{
closed = 1;
nodes = (
(461,720,l),
(541,599,l),
(541,459,l),
(457,371,l),
(541,246,l),
(541,132,l),
(416,0,l),
(150,0,l),
(59,134,l),
(59,261,l),
(144,344,l),
(138,344,l),
(59,461,l),
(59,552,l),
(220,720,l)
);
},
{
closed = 1;
nodes = (
(208,440,l),
(365,440,l),
(420,494,l),
(420,577,l),
(399,607,l),
(268,607,l),
(180,517,l),
(180,483,l)
);
},
{
closed = 1;
nodes = (
(209,113,l),
(365,113,l),
(420,167,l),
(420,224,l),
(350,327,l),
(278,327,l),
(180,224,l),
(180,156,l)
);
}
);
width = 600;
},
{
layerId = "58E25AC2-F473-41C5-84EA-658E208701C1";
shapes = (
{
closed = 1;
nodes = (
(450,700,l),
(521,593,l),
(521,457,l),
(431,363,l),
(521,230,l),
(521,120,l),
(407,0,l),
(160,0,l),
(79,120,l),
(79,243,l),
(172,337,l),
(161,337,l),
(79,457,l),
(79,544,l),
(229,700,l)
);
},
{
closed = 1;
nodes = (
(198,410,l),
(373,410,l),
(440,476,l),
(440,583,l),
(410,628,l),
(260,628,l),
(159,525,l),
(159,467,l)
);
},
{
closed = 1;
nodes = (
(198,72,l),
(373,72,l),
(440,139,l),
(440,220,l),
(361,337,l),
(269,337,l),
(159,222,l),
(159,130,l)
);
}
);
width = 600;
}
);
unicode = 56;
},
{
glyphname = nine;
lastChange = "2023-12-26 11:48:27 +0000";
layers = (
{
layerId = m01;
shapes = (
{
closed = 1;
nodes = (
(425,720,l),
(541,546,l),
(541,160,l),
(399,0,l),
(99,0,l),
(99,113,l),
(348,113,l),
(420,196,l),
(420,317,l),
(175,317,l),
(59,489,l),
(59,657,l),
(120,720,l)
);
},
{
closed = 1;
nodes = (
(234,430,l),
(420,430,l),
(420,523,l),
(363,607,l),
(180,607,l),
(180,512,l)
);
}
);
width = 600;
},
{
layerId = "58E25AC2-F473-41C5-84EA-658E208701C1";
shapes = (
{
closed = 1;
nodes = (
(414,700,l),
(521,540,l),
(521,147,l),
(390,0,l),
(119,0,l),
(119,72,l),
(357,72,l),
(440,168,l),
(440,337,l),
(185,337,l),
(79,495,l),
(79,649,l),
(128,700,l)
);
},
{
closed = 1;
nodes = (
(223,410,l),
(440,410,l),
(440,529,l),
(374,628,l),
(159,628,l),
(159,506,l)
);
}
);
width = 600;
}
);
unicode = 57;
},
{
glyphname = fraction;
lastChange = "2023-12-27 17:05:58 +0000";
layers = (
{
anchors = (
{
name = dnom;
pos = (380,250);
},
{
name = numr;
pos = (180,400);
}
);
layerId = "58E25AC2-F473-41C5-84EA-658E208701C1";
shapes = (
{
closed = 1;
nodes = (
(25,203,l),
(563,460,l),
(583,425,l),
(46,168,l)
);
}
);
width = 600;
},
{
anchors = (
{
name = dnom;
pos = (380,200);
},
{
name = numr;
pos = (180,420);
}
);
layerId = m01;
shapes = (
{
closed = 1;
nodes = (
(17,195,l),
(555,452,l),
(583,405,l),
(46,148,l)
);
}
);
width = 600;
}
);
unicode = 8260;
},
{
glyphname = oneeighth;
lastChange = "2023-12-29 16:47:58 +0000";
layers = (
{
layerId = "58E25AC2-F473-41C5-84EA-658E208701C1";
shapes = (
{
ref = onefraction;
},
{
closed = 1;
nodes = (
(455,239,l),
(490,186,l),
(490,118,l),
(445,71,l),
(490,4,l),
(490,-51,l),
(433,-111,l),
(310,-111,l),
(269,-51,l),
(269,11,l),
(316,58,l),
(310,58,l),
(269,118,l),
(269,161,l),
(344,239,l)
);
},
{
closed = 1;
nodes = (
(329,94,l),
(416,94,l),
(450,127,l),
(450,181,l),
(435,203,l),
(360,203,l),
(309,152,l),
(309,123,l)
);
},
{
closed = 1;
nodes = (
(329,-75,l),
(416,-75,l),
(450,-41,l),
(450,0,l),
(410,58,l),
(364,58,l),
(309,0,l),
(309,-46,l)
);
}
);
width = 600;
},
{
layerId = m01;
shapes = (
{
ref = onefraction;
},
{
closed = 1;
nodes = (
(460,196,l),
(500,136,l),
(500,66,l),
(458,22,l),
(500,-41,l),
(500,-98,l),
(438,-164,l),
(305,-164,l),
(259,-97,l),
(259,-33,l),
(302,8,l),
(299,8,l),
(259,67,l),
(259,112,l),
(340,196,l)
);
},
{
closed = 1;
nodes = (
(334,56,l),
(412,56,l),
(440,83,l),
(440,125,l),
(429,140,l),
(364,140,l),
(320,95,l),
(320,78,l)
);
},
{
closed = 1;
nodes = (
(334,-107,l),
(412,-107,l),
(440,-80,l),
(440,-52,l),
(405,0,l),
(369,0,l),
(320,-52,l),
(320,-86,l)
);
}
);
width = 600;
}
);
metricLeft = Auto;
metricRight = Auto;
unicode = 8539;
},
{
glyphname = fiveeighths;
lastChange = "2023-12-29 16:50:00 +0000";
layers = (
{
layerId = "58E25AC2-F473-41C5-84EA-658E208701C1";
shapes = (
{
ref = fraction;
},
{
pos = (-120,40);
ref = five.numr;
},
{
closed = 1;
nodes = (
(455,239,l),
(490,186,l),
(490,118,l),
(445,71,l),
(490,4,l),
(490,-51,l),
(433,-111,l),
(310,-111,l),
(269,-51,l),
(269,11,l),
(316,58,l),
(310,58,l),
(269,118,l),
(269,161,l),
(344,239,l)
);
},
{
closed = 1;
nodes = (
(329,94,l),
(416,94,l),
(450,127,l),
(450,181,l),
(435,203,l),
(360,203,l),
(309,152,l),
(309,123,l)
);
},
{
closed = 1;
nodes = (
(329,-75,l),
(416,-75,l),
(450,-41,l),
(450,0,l),
(410,58,l),
(364,58,l),
(309,0,l),
(309,-46,l)
);
}
);
width = 600;
},
{
layerId = m01;
shapes = (
{
ref = fraction;
},
{
pos = (-120,60);
ref = five.numr;
},
{
closed = 1;
nodes = (
(460,196,l),
(500,136,l),
(500,66,l),
(458,22,l),
(500,-41,l),
(500,-98,l),
(438,-164,l),
(305,-164,l),
(259,-97,l),
(259,-33,l),
(302,8,l),
(299,8,l),
(259,67,l),
(259,112,l),
(340,196,l)
);
},
{
closed = 1;
nodes = (
(334,56,l),
(412,56,l),
(440,83,l),
(440,125,l),
(429,140,l),
(364,140,l),
(320,95,l),
(320,78,l)
);
},
{
closed = 1;
nodes = (
(334,-107,l),
(412,-107,l),
(440,-80,l),
(440,-52,l),
(405,0,l),
(369,0,l),
(320,-52,l),
(320,-86,l)
);
}
);
width = 600;
}
);
metricLeft = Auto;
metricRight = Auto;
unicode = 8541;
},
{
glyphname = seveneighths;
lastChange = "2023-12-29 16:50:07 +0000";
layers = (
{
layerId = "58E25AC2-F473-41C5-84EA-658E208701C1";
shapes = (
{
ref = fraction;
},
{
pos = (-120,40);
ref = seven.numr;
},
{
closed = 1;
nodes = (
(455,239,l),
(490,186,l),
(490,118,l),
(445,71,l),
(490,4,l),
(490,-51,l),
(433,-111,l),
(310,-111,l),
(269,-51,l),
(269,11,l),
(316,58,l),
(310,58,l),
(269,118,l),
(269,161,l),
(344,239,l)
);
},
{
closed = 1;
nodes = (
(329,94,l),
(416,94,l),
(450,127,l),
(450,181,l),
(435,203,l),
(360,203,l),
(309,152,l),
(309,123,l)
);
},
{
closed = 1;
nodes = (
(329,-75,l),
(416,-75,l),
(450,-41,l),
(450,0,l),
(410,58,l),
(364,58,l),
(309,0,l),
(309,-46,l)
);
}
);
width = 600;
},
{
layerId = m01;
shapes = (
{
ref = fraction;
},
{
pos = (-120,60);
ref = seven.numr;
},
{
closed = 1;
nodes = (
(460,196,l),
(500,136,l),
(500,66,l),
(458,22,l),
(500,-41,l),
(500,-98,l),
(438,-164,l),
(305,-164,l),
(259,-97,l),
(259,-33,l),
(302,8,l),
(299,8,l),
(259,67,l),
(259,112,l),
(340,196,l)
);
},
{
closed = 1;
nodes = (
(334,56,l),
(412,56,l),
(440,83,l),
(440,125,l),
(429,140,l),
(364,140,l),
(320,95,l),
(320,78,l)
);
},
{
closed = 1;
nodes = (
(334,-107,l),
(412,-107,l),
(440,-80,l),
(440,-52,l),
(405,0,l),
(369,0,l),
(320,-52,l),
(320,-86,l)
);
}
);
width = 600;
}
);
metricLeft = Auto;
metricRight = Auto;
unicode = 8542;
},
{
glyphname = zeroinferior;
lastChange = "2023-12-27 15:15:48 +0000";
layers = (
{
layerId = "58E25AC2-F473-41C5-84EA-658E208701C1";
shapes = (
{
closed = 1;
nodes = (
(371,350,l),
(410,291,l),
(410,42,l),
(371,0,l),
(230,0,l),
(189,60,l),
(189,309,l),
(230,350,l)
);
},
{
closed = 1;
nodes = (
(229,121,l),
(370,266,l),
(370,285,l),
(350,314,l),
(245,314,l),
(229,298,l)
);
},
{
closed = 1;
nodes = (
(249,36,l),
(355,36,l),
(370,53,l),
(370,215,l),
(229,69,l),
(229,65,l)
);
}
);
width = 600;
},
{
layerId = m01;
shapes = (
{
closed = 1;
nodes = (
(376,360,l),
(420,294,l),
(420,48,l),
(375,0,l),
(225,0,l),
(179,67,l),
(179,313,l),
(226,360,l)
);
},
{
closed = 1;
nodes = (
(240,151,l),
(360,275,l),
(360,282,l),
(345,304,l),
(249,304,l),
(240,294,l)
);
},
{
closed = 1;
nodes = (
(254,57,l),
(350,57,l),
(360,67,l),
(360,205,l),
(240,80,l),
(240,77,l)
);
}
);
width = 600;
}
);
metricLeft = Auto;
metricRight = Auto;
unicode = 8320;
},
{
glyphname = oneinferior;
lastChange = "2023-12-27 15:15:54 +0000";
layers = (
{
layerId = "58E25AC2-F473-41C5-84EA-658E208701C1";
shapes = (
{
closed = 1;
nodes = (
(320,350,l),
(320,36,l),
(410,36,l),
(410,0,l),
(189,0,l),
(189,36,l),
(280,36,l),
(280,298,l),
(217,233,l),
(196,264,l),
(280,350,l)
);
}
);
width = 600;
},
{
layerId = m01;
shapes = (
{
closed = 1;
nodes = (
(331,360,l),
(331,57,l),
(420,57,l),
(420,0,l),
(179,0,l),
(179,57,l),
(270,57,l),
(270,273,l),
(216,217,l),
(183,265,l),
(276,360,l)
);
}
);
width = 600;
}
);
metricLeft = Auto;
metricRight = Auto;
unicode = 8321;
},
{
glyphname = twoinferior;
lastChange = "2023-12-27 15:15:59 +0000";
layers = (
{
layerId = "58E25AC2-F473-41C5-84EA-658E208701C1";
shapes = (
{
closed = 1;
nodes = (
(373,350,l),
(411,293,l),
(411,240,l),
(229,53,l),
(229,36,l),
(411,36,l),
(411,0,l),
(189,0,l),
(189,63,l),
(385,266,l),
(353,314,l),
(245,314,l),
(210,279,l),
(190,309,l),
(230,350,l)
);
}
);
width = 600;
},
{
layerId = m01;
shapes = (
{
closed = 1;
nodes = (
(379,360,l),
(422,296,l),
(422,246,l),
(241,59,l),
(241,57,l),
(422,57,l),
(422,0,l),
(181,0,l),
(181,77,l),
(366,267,l),
(342,304,l),
(251,304,l),
(210,263,l),
(178,310,l),
(228,360,l)
);
}
);
width = 600;
}
);
metricLeft = Auto;
metricRight = Auto;
unicode = 8322;
},
{
glyphname = threeinferior;
lastChange = "2023-12-27 15:16:03 +0000";
layers = (
{
layerId = "58E25AC2-F473-41C5-84EA-658E208701C1";
shapes = (
{
closed = 1;
nodes = (
(411,350,l),
(411,309,l),
(311,205,l),
(356,205,l),
(411,124,l),
(411,44,l),
(369,0,l),
(189,0,l),
(189,36,l),
(353,36,l),
(371,55,l),
(371,120,l),
(337,169,l),
(265,169,l),
(265,209,l),
(367,314,l),
(189,314,l),
(189,350,l)
);
}
);
width = 600;
},
{
layerId = m01;
shapes = (
{
closed = 1;
nodes = (
(421,360,l),
(421,304,l),
(335,215,l),
(369,215,l),
(421,137,l),
(421,50,l),
(374,0,l),
(179,0,l),
(179,57,l),
(349,57,l),
(361,69,l),
(361,126,l),
(332,169,l),
(255,169,l),
(255,213,l),
(343,304,l),
(179,304,l),
(179,360,l)
);
}
);
width = 600;
}
);
metricLeft = Auto;
metricRight = Auto;
unicode = 8323;
},
{
glyphname = fourinferior;
lastChange = "2023-12-27 15:16:07 +0000";
layers = (
{
layerId = "58E25AC2-F473-41C5-84EA-658E208701C1";
shapes = (
{
closed = 1;
nodes = (
(395,350,l),
(395,157,l),
(425,157,l),
(425,121,l),
(395,121,l),
(395,0,l),
(355,0,l),
(355,121,l),
(220,121,l),
(174,188,l),
(331,350,l)
);
},
{
closed = 1;
nodes = (
(238,157,l),
(355,157,l),
(355,323,l),
(220,184,l)
);
}
);
width = 600;
},
{
layerId = m01;
shapes = (
{
closed = 1;
nodes = (
(407,360,l),
(407,167,l),
(437,167,l),
(437,111,l),
(407,111,l),
(407,0,l),
(347,0,l),
(347,111,l),
(217,111,l),
(163,189,l),
(329,360,l)
);
},
{
closed = 1;
nodes = (
(245,167,l),
(347,167,l),
(347,298,l),
(235,183,l)
);
}
);
width = 600;
}
);
metricLeft = Auto;
metricRight = Auto;
unicode = 8324;
},
{
glyphname = fiveinferior;
lastChange = "2023-12-27 15:16:11 +0000";
layers = (
{
layerId = "58E25AC2-F473-41C5-84EA-658E208701C1";
shapes = (
{
closed = 1;
nodes = (
(401,350,l),
(401,314,l),
(229,314,l),
(229,247,l),
(232,242,l),
(356,242,l),
(411,161,l),
(411,44,l),
(369,0,l),
(189,0,l),
(189,36,l),
(353,36,l),
(371,55,l),
(371,156,l),
(337,205,l),
(214,205,l),
(189,242,l),
(189,350,l)
);
}
);
width = 600;
},
{
layerId = m01;
shapes = (
{
closed = 1;
nodes = (
(411,360,l),
(411,304,l),
(240,304,l),
(240,257,l),
(242,252,l),
(361,252,l),
(421,164,l),
(421,50,l),
(374,0,l),
(179,0,l),
(179,56,l),
(348,56,l),
(361,69,l),
(361,153,l),
(331,195,l),
(209,195,l),
(179,239,l),
(179,360,l)
);
}
);
width = 600;
}
);
metricLeft = Auto;
metricRight = Auto;
unicode = 8325;
},
{
glyphname = sixinferior;
lastChange = "2023-12-27 15:16:15 +0000";
layers = (
{
layerId = "58E25AC2-F473-41C5-84EA-658E208701C1";
shapes = (
{
closed = 1;
nodes = (
(370,351,l),
(370,314,l),
(245,314,l),
(229,298,l),
(229,169,l),
(265,205,l),
(389,205,l),
(410,173,l),
(410,59,l),
(353,0,l),
(229,0,l),
(189,61,l),
(189,309,l),
(229,351,l)
);
},
{
closed = 1;
nodes = (
(250,36,l),
(338,36,l),
(370,70,l),
(370,169,l),
(280,169,l),
(229,118,l),
(229,65,l)
);
}
);
width = 600;
},
{
layerId = m01;
shapes = (
{
closed = 1;
nodes = (
(380,361,l),
(380,304,l),
(249,304,l),
(240,294,l),
(240,194,l),
(261,215,l),
(394,215,l),
(420,176,l),
(420,65,l),
(357,0,l),
(219,0,l),
(179,68,l),
(179,313,l),
(225,361,l)
);
},
{
closed = 1;
nodes = (
(255,57,l),
(334,57,l),
(360,84,l),
(360,159,l),
(284,159,l),
(240,114,l),
(240,79,l)
);
}
);
width = 600;
}
);
metricLeft = Auto;
metricRight = Auto;
unicode = 8326;
},
{
glyphname = seveninferior;
lastChange = "2023-12-27 15:16:19 +0000";
layers = (
{
layerId = "58E25AC2-F473-41C5-84EA-658E208701C1";
shapes = (
{
closed = 1;
nodes = (
(410,350,l),
(410,285,l),
(269,141,l),
(269,0,l),
(229,0,l),
(229,152,l),
(370,296,l),
(370,314,l),
(189,314,l),
(189,350,l)
);
}
);
width = 600;
},
{
layerId = m01;
shapes = (
{
closed = 1;
nodes = (
(420,360,l),
(420,281,l),
(279,137,l),
(279,0,l),
(219,0,l),
(219,156,l),
(360,300,l),
(360,304,l),
(179,304,l),
(179,360,l)
);
}
);
width = 600;
}
);
metricLeft = Auto;
metricRight = Auto;
unicode = 8327;
},
{
glyphname = eightinferior;
lastChange = "2023-12-27 15:16:23 +0000";
layers = (
{
layerId = "58E25AC2-F473-41C5-84EA-658E208701C1";
shapes = (
{
closed = 1;
nodes = (
(375,350,l),
(410,297,l),
(410,229,l),
(365,182,l),
(410,115,l),
(410,60,l),
(353,0,l),
(230,0,l),
(189,60,l),
(189,122,l),
(236,169,l),
(230,169,l),
(189,229,l),
(189,272,l),
(264,350,l)
);
},
{
closed = 1;
nodes = (
(249,205,l),
(336,205,l),
(370,238,l),
(370,292,l),
(355,314,l),
(280,314,l),
(229,263,l),
(229,234,l)
);
},
{
closed = 1;
nodes = (
(249,36,l),
(336,36,l),
(370,70,l),
(370,110,l),
(330,169,l),
(284,169,l),
(229,111,l),
(229,65,l)
);
}
);
width = 600;
},
{
layerId = m01;
shapes = (
{
closed = 1;
nodes = (
(380,360,l),
(420,300,l),
(420,230,l),
(378,186,l),
(420,123,l),
(420,66,l),
(358,0,l),
(225,0,l),
(179,67,l),
(179,131,l),
(222,172,l),
(219,172,l),
(179,231,l),
(179,276,l),
(260,360,l)
);
},
{
closed = 1;
nodes = (
(254,220,l),
(332,220,l),
(360,247,l),
(360,289,l),
(349,304,l),
(284,304,l),
(240,259,l),
(240,242,l)
);
},
{
closed = 1;
nodes = (
(254,57,l),
(332,57,l),
(360,84,l),
(360,112,l),
(325,164,l),
(289,164,l),
(240,112,l),
(240,78,l)
);
}
);
width = 600;
}
);
metricLeft = Auto;
metricRight = Auto;
unicode = 8328;
},
{
glyphname = nineinferior;
lastChange = "2023-12-27 15:16:34 +0000";
layers = (
{
layerId = "58E25AC2-F473-41C5-84EA-658E208701C1";
shapes = (
{
closed = 1;
nodes = (
(357,350,l),
(410,270,l),
(410,74,l),
(345,0,l),
(209,0,l),
(209,36,l),
(328,36,l),
(370,84,l),
(370,169,l),
(242,169,l),
(189,248,l),
(189,325,l),
(214,350,l)
);
},
{
closed = 1;
nodes = (
(261,205,l),
(370,205,l),
(370,265,l),
(337,314,l),
(229,314,l),
(229,253,l)
);
}
);
width = 600;
},
{
layerId = m01;
shapes = (
{
closed = 1;
nodes = (
(362,360,l),
(420,273,l),
(420,80,l),
(349,0,l),
(199,0,l),
(199,57,l),
(324,57,l),
(360,98,l),
(360,159,l),
(237,159,l),
(179,245,l),
(179,329,l),
(210,360,l)
);
},
{
closed = 1;
nodes = (
(267,215,l),
(360,215,l),
(360,262,l),
(331,304,l),
(240,304,l),
(240,256,l)
);
}
);
width = 600;
}
);
metricLeft = Auto;
metricRight = Auto;
unicode = 8329;
},
{
glyphname = zerosuperior;
lastChange = "2023-12-27 15:17:41 +0000";
layers = (
{
layerId = "58E25AC2-F473-41C5-84EA-658E208701C1";
shapes = (
{
closed = 1;
nodes = (
(371,700,l),
(410,641,l),
(410,392,l),
(371,350,l),
(230,350,l),
(189,410,l),
(189,659,l),
(230,700,l)
);
},
{
closed = 1;
nodes = (
(229,471,l),
(370,616,l),
(370,635,l),
(350,664,l),
(245,664,l),
(229,648,l)
);
},
{
closed = 1;
nodes = (
(249,386,l),
(355,386,l),
(370,403,l),
(370,565,l),
(229,419,l),
(229,415,l)
);
}
);
width = 600;
},
{
layerId = m01;
shapes = (
{
closed = 1;
nodes = (
(376,720,l),
(420,654,l),
(420,408,l),
(375,360,l),
(225,360,l),
(179,427,l),
(179,673,l),
(226,720,l)
);
},
{
closed = 1;
nodes = (
(240,511,l),
(360,635,l),
(360,642,l),
(345,664,l),
(249,664,l),
(240,654,l)
);
},
{
closed = 1;
nodes = (
(254,417,l),
(350,417,l),
(360,427,l),
(360,565,l),
(240,440,l),
(240,437,l)
);
}
);
width = 600;
}
);
metricLeft = Auto;
metricRight = Auto;
unicode = 8304;
},
{
glyphname = onesuperior;
lastChange = "2023-12-27 15:17:41 +0000";
layers = (
{
layerId = "58E25AC2-F473-41C5-84EA-658E208701C1";
shapes = (
{
closed = 1;
nodes = (
(320,700,l),
(320,386,l),
(410,386,l),
(410,350,l),
(189,350,l),
(189,386,l),
(280,386,l),
(280,648,l),
(217,583,l),
(196,614,l),
(280,700,l)
);
}
);
width = 600;
},
{
layerId = m01;
shapes = (
{
closed = 1;
nodes = (
(331,720,l),
(331,417,l),
(420,417,l),
(420,360,l),
(179,360,l),
(179,417,l),
(270,417,l),
(270,633,l),
(216,577,l),
(183,625,l),
(276,720,l)
);
}
);
width = 600;
}
);
metricLeft = Auto;
metricRight = Auto;
unicode = 185;
},
{
glyphname = twosuperior;
lastChange = "2023-12-27 15:17:41 +0000";
layers = (
{
layerId = "58E25AC2-F473-41C5-84EA-658E208701C1";
shapes = (
{
closed = 1;
nodes = (
(373,700,l),
(411,643,l),
(411,590,l),
(229,403,l),
(229,386,l),
(411,386,l),
(411,350,l),
(189,350,l),
(189,413,l),
(385,616,l),
(353,664,l),
(245,664,l),
(210,629,l),
(190,659,l),
(230,700,l)
);
}
);
width = 600;
},
{
layerId = m01;
shapes = (
{
closed = 1;
nodes = (
(379,720,l),
(422,656,l),
(422,606,l),
(241,419,l),
(241,417,l),
(422,417,l),
(422,360,l),
(181,360,l),
(181,437,l),
(366,627,l),
(342,664,l),
(251,664,l),
(210,623,l),
(178,670,l),
(228,720,l)
);
}
);
width = 600;
}
);
metricLeft = Auto;
metricRight = Auto;
unicode = 178;
},
{
glyphname = threesuperior;
lastChange = "2023-12-27 15:17:41 +0000";
layers = (
{
layerId = "58E25AC2-F473-41C5-84EA-658E208701C1";
shapes = (
{
closed = 1;
nodes = (
(411,700,l),
(411,659,l),
(311,555,l),
(356,555,l),
(411,474,l),
(411,394,l),
(369,350,l),
(189,350,l),
(189,386,l),
(353,386,l),
(371,405,l),
(371,470,l),
(337,519,l),
(265,519,l),
(265,559,l),
(367,664,l),
(189,664,l),
(189,700,l)
);
}
);
width = 600;
},
{
layerId = m01;
shapes = (
{
closed = 1;
nodes = (
(421,720,l),
(421,664,l),
(335,575,l),
(369,575,l),
(421,497,l),
(421,410,l),
(374,360,l),
(179,360,l),
(179,417,l),
(349,417,l),
(361,429,l),
(361,486,l),
(332,529,l),
(255,529,l),
(255,573,l),
(343,664,l),
(179,664,l),
(179,720,l)
);
}
);
width = 600;
}
);
metricLeft = Auto;
metricRight = Auto;
unicode = 179;
},
{
glyphname = foursuperior;
lastChange = "2023-12-27 15:17:41 +0000";
layers = (
{
layerId = "58E25AC2-F473-41C5-84EA-658E208701C1";
shapes = (
{
closed = 1;
nodes = (
(395,700,l),
(395,507,l),
(425,507,l),
(425,471,l),
(395,471,l),
(395,350,l),
(355,350,l),
(355,471,l),
(220,471,l),
(174,538,l),
(331,700,l)
);
},
{
closed = 1;
nodes = (
(238,507,l),
(355,507,l),
(355,673,l),
(220,534,l)
);
}
);
width = 600;
},
{
layerId = m01;
shapes = (
{
closed = 1;
nodes = (
(407,720,l),
(407,527,l),
(437,527,l),
(437,471,l),
(407,471,l),
(407,360,l),
(347,360,l),
(347,471,l),
(217,471,l),
(163,549,l),
(329,720,l)
);
},
{
closed = 1;
nodes = (
(245,527,l),
(347,527,l),
(347,658,l),
(235,543,l)
);
}
);
width = 600;
}
);
metricLeft = Auto;
metricRight = Auto;
unicode = 8308;
},
{
glyphname = fivesuperior;
lastChange = "2023-12-27 15:20:16 +0000";
layers = (
{
layerId = "58E25AC2-F473-41C5-84EA-658E208701C1";
shapes = (
{
closed = 1;
nodes = (
(401,700,l),
(401,664,l),
(229,664,l),
(229,597,l),
(232,592,l),
(356,592,l),
(411,511,l),
(411,394,l),
(369,350,l),
(189,350,l),
(189,386,l),
(353,386,l),
(371,405,l),
(371,506,l),
(337,555,l),
(214,555,l),
(189,592,l),
(189,700,l)
);
}
);
width = 600;
},
{
layerId = m01;
shapes = (
{
closed = 1;
nodes = (
(411,720,l),
(411,664,l),
(240,664,l),
(240,617,l),
(242,612,l),
(361,612,l),
(421,524,l),
(421,410,l),
(374,360,l),
(179,360,l),
(179,416,l),
(348,416,l),
(361,429,l),
(361,513,l),
(331,555,l),
(209,555,l),
(179,599,l),
(179,720,l)
);
}
);
width = 600;
}
);
metricLeft = Auto;
metricRight = Auto;
unicode = 8309;
},
{
glyphname = sixsuperior;
lastChange = "2023-12-27 15:17:41 +0000";
layers = (
{
layerId = "58E25AC2-F473-41C5-84EA-658E208701C1";
shapes = (
{
closed = 1;
nodes = (
(370,700,l),
(370,665,l),
(245,665,l),
(229,649,l),
(229,520,l),
(265,556,l),
(389,556,l),
(410,524,l),
(410,410,l),
(353,351,l),
(229,351,l),
(189,412,l),
(189,660,l),
(229,700,l)
);
},
{
closed = 1;
nodes = (
(250,387,l),
(338,387,l),
(370,421,l),
(370,520,l),
(280,520,l),
(229,469,l),
(229,416,l)
);
}
);
width = 600;
},
{
layerId = m01;
shapes = (
{
closed = 1;
nodes = (
(380,722,l),
(380,665,l),
(249,665,l),
(240,655,l),
(240,555,l),
(261,576,l),
(394,576,l),
(420,537,l),
(420,426,l),
(357,361,l),
(219,361,l),
(179,429,l),
(179,674,l),
(225,722,l)
);
},
{
closed = 1;
nodes = (
(255,418,l),
(334,418,l),
(360,445,l),
(360,520,l),
(284,520,l),
(240,475,l),
(240,440,l)
);
}
);
width = 600;
}
);
metricLeft = Auto;
metricRight = Auto;
unicode = 8310;
},
{
glyphname = sevensuperior;
lastChange = "2023-12-27 15:17:41 +0000";
layers = (
{
layerId = "58E25AC2-F473-41C5-84EA-658E208701C1";
shapes = (
{
closed = 1;
nodes = (
(410,700,l),
(410,635,l),
(269,491,l),
(269,350,l),
(229,350,l),
(229,502,l),
(370,646,l),
(370,664,l),
(189,664,l),
(189,700,l)
);
}
);
width = 600;
},
{
layerId = m01;
shapes = (
{
closed = 1;
nodes = (
(420,720,l),
(420,641,l),
(279,497,l),
(279,360,l),
(219,360,l),
(219,516,l),
(360,660,l),
(360,664,l),
(179,664,l),
(179,720,l)
);
}
);
width = 600;
}
);
metricLeft = Auto;
metricRight = Auto;
unicode = 8311;
},
{
glyphname = eightsuperior;
lastChange = "2023-12-27 15:17:41 +0000";
layers = (
{
layerId = "58E25AC2-F473-41C5-84EA-658E208701C1";
shapes = (
{
closed = 1;
nodes = (
(375,700,l),
(410,647,l),
(410,579,l),
(365,532,l),
(410,465,l),
(410,410,l),
(353,350,l),
(230,350,l),
(189,410,l),
(189,472,l),
(236,519,l),
(230,519,l),
(189,579,l),
(189,622,l),
(264,700,l)
);
},
{
closed = 1;
nodes = (
(249,555,l),
(336,555,l),
(370,588,l),
(370,642,l),
(355,664,l),
(280,664,l),
(229,613,l),
(229,584,l)
);
},
{
closed = 1;
nodes = (
(249,386,l),
(336,386,l),
(370,420,l),
(370,460,l),
(330,519,l),
(284,519,l),
(229,461,l),
(229,415,l)
);
}
);
width = 600;
},
{
layerId = m01;
shapes = (
{
closed = 1;
nodes = (
(380,720,l),
(420,660,l),
(420,590,l),
(378,546,l),
(420,483,l),
(420,426,l),
(358,360,l),
(225,360,l),
(179,427,l),
(179,491,l),
(222,532,l),
(219,532,l),
(179,591,l),
(179,636,l),
(260,720,l)
);
},
{
closed = 1;
nodes = (
(254,580,l),
(332,580,l),
(360,607,l),
(360,649,l),
(349,664,l),
(284,664,l),
(240,619,l),
(240,602,l)
);
},
{
closed = 1;
nodes = (
(254,417,l),
(332,417,l),
(360,444,l),
(360,472,l),
(325,524,l),
(289,524,l),
(240,472,l),
(240,438,l)
);
}
);
width = 600;
}
);
metricLeft = Auto;
metricRight = Auto;
unicode = 8312;
},
{
glyphname = ninesuperior;
lastChange = "2023-12-27 15:17:41 +0000";
layers = (
{
layerId = "58E25AC2-F473-41C5-84EA-658E208701C1";
shapes = (
{
closed = 1;
nodes = (
(357,700,l),
(410,620,l),
(410,424,l),
(345,350,l),
(209,350,l),
(209,386,l),
(328,386,l),
(370,434,l),
(370,519,l),
(242,519,l),
(189,598,l),
(189,675,l),
(214,700,l)
);
},
{
closed = 1;
nodes = (
(261,555,l),
(370,555,l),
(370,615,l),
(337,664,l),
(229,664,l),
(229,603,l)
);
}
);
width = 600;
},
{
layerId = m01;
shapes = (
{
closed = 1;
nodes = (
(362,720,l),
(420,633,l),
(420,440,l),
(349,360,l),
(199,360,l),
(199,417,l),
(324,417,l),
(360,458,l),
(360,519,l),
(237,519,l),
(179,605,l),
(179,689,l),
(210,720,l)
);
},
{
closed = 1;
nodes = (
(267,575,l),
(360,575,l),
(360,622,l),
(331,664,l),
(240,664,l),
(240,616,l)
);
}
);
width = 600;
}
);
metricLeft = Auto;
metricRight = Auto;
unicode = 8313;
},
{
glyphname = .notdef;
lastChange = "2023-12-30 21:49:46 +0000";
layers = (
{
layerId = "58E25AC2-F473-41C5-84EA-658E208701C1";
shapes = (
{
closed = 1;
nodes = (
(159,604,l),
(439,604,l),
(561,420,l),
(340,189,l),
(340,97,l),
(258,97,l),
(258,208,l),
(470,427,l),
(399,532,l),
(189,532,l),
(78,418,l),
(39,479,l)
);
},
{
closed = 1;
nodes = (
(390,35,l),
(494,35,l),
(494,-57,l),
(390,-57,l)
);
},
{
closed = 1;
nodes = (
(390,177,l),
(494,177,l),
(494,85,l),
(390,85,l)
);
},
{
closed = 1;
nodes = (
(104,35,l),
(208,35,l),
(208,-57,l),
(104,-57,l)
);
},
{
closed = 1;
nodes = (
(104,177,l),
(208,177,l),
(208,85,l),
(104,85,l)
);
},
{
closed = 1;
nodes = (
(390,-107,l),
(494,-107,l),
(494,-199,l),
(390,-199,l)
);
},
{
closed = 1;
nodes = (
(104,-107,l),
(208,-107,l),
(208,-199,l),
(104,-199,l)
);
},
{
closed = 1;
nodes = (
(258,-107,l),
(340,-107,l),
(340,-199,l),
(258,-199,l)
);
}
);
width = 600;
},
{
layerId = m01;
shapes = (
{
closed = 1;
nodes = (
(150,630,l),
(450,630,l),
(587,423,l),
(360,187,l),
(360,103,l),
(238,103,l),
(238,222,l),
(444,435,l),
(389,517,l),
(198,517,l),
(75,391,l),
(13,487,l)
);
},
{
closed = 1;
nodes = (
(422,37,l),
(546,37,l),
(546,-77,l),
(422,-77,l)
);
},
{
closed = 1;
nodes = (
(422,211,l),
(546,211,l),
(546,97,l),
(422,97,l)
);
},
{
closed = 1;
nodes = (
(54,37,l),
(178,37,l),
(178,-77,l),
(54,-77,l)
);
},
{
closed = 1;
nodes = (
(54,211,l),
(178,211,l),
(178,97,l),
(54,97,l)
);
},
{
closed = 1;
nodes = (
(422,-137,l),
(546,-137,l),
(546,-251,l),
(422,-251,l)
);
},
{
closed = 1;
nodes = (
(54,-137,l),
(178,-137,l),
(178,-251,l),
(54,-251,l)
);
},
{
closed = 1;
nodes = (
(238,-137,l),
(362,-137,l),
(362,-251,l),
(238,-251,l)
);
}
);
width = 600;
}
);
},
{
glyphname = hyphen_greater.liga;
lastChange = "2023-12-31 13:35:17 +0000";
layers = (
{
layerId = "58E25AC2-F473-41C5-84EA-658E208701C1";
shapes = (
{
closed = 1;
nodes = (
(286,336,l),
(-342,336,l),
(-342,264,l),
(286,264,l)
);
},
{
pos = (-127,-41);
ref = greater;
}
);
width = 600;
},
{
layerId = m01;
shapes = (
{
closed = 1;
nodes = (
(276,356,l),
(-382,356,l),
(-382,244,l),
(276,244,l)
);
},
{
pos = (-113,-41);
ref = greater;
}
);
width = 600;
}
);
metricWidth = space;
},
{
glyphname = exclam_equal.liga;
lastChange = "2024-01-08 11:07:35 +0000";
layers = (
{
layerId = "58E25AC2-F473-41C5-84EA-658E208701C1";
shapes = (
{
closed = 1;
nodes = (
(-343,351,l),
(344,351,l),
(344,423,l),
(-343,423,l)
);
},
{
closed = 1;
nodes = (
(-343,176,l),
(344,176,l),
(344,248,l),
(-343,248,l)
);
},
{
closed = 1;
nodes = (
(-192,-154,l),
(-125,-177,l),
(192,754,l),
(124,777,l)
);
}
);
width = 600;
},
{
layerId = m01;
shapes = (
{
closed = 1;
nodes = (
(-344,447,l),
(-344,326,l),
(344,326,l),
(344,447,l)
);
},
{
closed = 1;
nodes = (
(-344,222,l),
(-344,101,l),
(344,101,l),
(344,222,l)
);
},
{
closed = 1;
nodes = (
(-273,-138,l),
(-172,-186,l),
(272,736,l),
(172,784,l)
);
}
);
width = 600;
}
);
metricWidth = space;
},
{
glyphname = slash_equal.liga;
lastChange = "2024-01-08 11:11:52 +0000";
layers = (
{
layerId = "58E25AC2-F473-41C5-84EA-658E208701C1";
shapes = (
{
pos = (-670,0);
ref = slash;
},
{
closed = 1;
nodes = (
(-352,351,l),
(0,351,l),
(0,423,l),
(-352,423,l)
);
},
{
closed = 1;
nodes = (
(-392,176,l),
(0,176,l),
(0,248,l),
(-392,248,l)
);
},
{
pos = (-114,0);
ref = equal;
}
);
width = 600;
},
{
layerId = m01;
shapes = (
{
pos = (-750,0);
ref = slash;
},
{
closed = 1;
nodes = (
(-412,351,l),
(0,351,l),
(0,464,l),
(-412,464,l)
);
},
{
closed = 1;
nodes = (
(-492,126,l),
(0,126,l),
(0,239,l),
(-492,239,l)
);
},
{
pos = (-74,0);
ref = equal;
}
);
width = 600;
}
);
metricWidth = space;
},
{
glyphname = period;
lastChange = "2023-12-26 08:46:24 +0000";
layers = (
{
layerId = m01;
shapes = (
{
closed = 1;
nodes = (
(398,0,l),
(398,196,l),
(202,196,l),
(202,0,l)
);
}
);
width = 600;
},
{
layerId = "58E25AC2-F473-41C5-84EA-658E208701C1";
shapes = (
{
closed = 1;
nodes = (
(370,0,l),
(370,140,l),
(230,140,l),
(230,0,l)
);
}
);
width = 600;
}
);
unicode = 46;
},
{
glyphname = comma;
lastChange = "2023-12-27 11:13:54 +0000";
layers = (
{
layerId = m01;
shapes = (
{
closed = 1;
nodes = (
(391,173,l),
(391,-117,l),
(280,-228,l),
(217,-131,l),
(270,-76,l),
(270,0,l),
(209,0,l),
(209,173,l)
);
}
);
width = 600;
},
{
layerId = "58E25AC2-F473-41C5-84EA-658E208701C1";
shapes = (
{
closed = 1;
nodes = (
(370,133,l),
(370,-129,l),
(283,-217,l),
(242,-154,l),
(290,-104,l),
(290,0,l),
(230,0,l),
(230,133,l)
);
}
);
width = 600;
}
);
unicode = 44;
},
{
glyphname = colon;
lastChange = "2023-12-29 02:12:58 +0000";
layers = (
{
layerId = "58E25AC2-F473-41C5-84EA-658E208701C1";
shapes = (
{
closed = 1;
nodes = (
(230,368,l),
(370,368,l),
(370,508,l),
(230,508,l)
);
},
{
closed = 1;
nodes = (
(230,28,l),
(370,28,l),
(370,168,l),
(230,168,l)
);
}
);
width = 600;
},
{
layerId = m01;
shapes = (
{
closed = 1;
nodes = (
(209,403,l),
(391,403,l),
(391,585,l),
(209,585,l)
);
},
{
closed = 1;
nodes = (
(209,19,l),
(391,19,l),
(391,201,l),
(209,201,l)
);
}
);
width = 600;
}
);
unicode = 58;
},
{
glyphname = semicolon;
lastChange = "2023-12-29 02:11:06 +0000";
layers = (
{
layerId = "58E25AC2-F473-41C5-84EA-658E208701C1";
shapes = (
{
closed = 1;
nodes = (
(370,368,l),
(370,508,l),
(230,508,l),
(230,368,l)
);
},
{
closed = 1;
nodes = (
(370,110,l),
(370,-111,l),
(285,-194,l),
(236,-122,l),
(277,-80,l),
(277,-21,l),
(230,-21,l),
(230,110,l)
);
}
);
width = 600;
},
{
layerId = m01;
shapes = (
{
closed = 1;
nodes = (
(391,403,l),
(391,585,l),
(209,585,l),
(209,403,l)
);
},
{
closed = 1;
nodes = (
(391,169,l),
(391,-119,l),
(281,-227,l),
(217,-132,l),
(270,-77,l),
(270,0,l),
(209,0,l),
(209,169,l)
);
}
);
width = 600;
}
);
unicode = 59;
},
{
glyphname = ellipsis;
lastChange = "2023-12-27 19:07:24 +0000";
layers = (
{
layerId = "58E25AC2-F473-41C5-84EA-658E208701C1";
shapes = (
{
closed = 1;
nodes = (
(140,0,l),
(140,120,l),
(20,120,l),
(20,0,l)
);
},
{
closed = 1;
nodes = (
(360,0,l),
(360,120,l),
(240,120,l),
(240,0,l)
);
},
{
closed = 1;
nodes = (
(580,0,l),
(580,120,l),
(460,120,l),
(460,0,l)
);
}
);
width = 600;
},
{
layerId = m01;
shapes = (
{
closed = 1;
nodes = (
(160,0,l),
(160,140,l),
(20,140,l),
(20,0,l)
);
},
{
closed = 1;
nodes = (
(370,0,l),
(370,140,l),
(230,140,l),
(230,0,l)
);
},
{
closed = 1;
nodes = (
(580,0,l),
(580,140,l),
(440,140,l),
(440,0,l)
);
}
);
width = 600;
}
);
unicode = 8230;
},
{
glyphname = exclam;
lastChange = "2023-12-29 16:14:24 +0000";
layers = (
{
layerId = "58E25AC2-F473-41C5-84EA-658E208701C1";
shapes = (
{
closed = 1;
nodes = (
(352,-18,l),
(248,-18,l),
(248,74,l),
(352,74,l)
);
},
{
closed = 1;
nodes = (
(260,700,l),
(342,700,l),
(342,194,l),
(260,194,l)
);
}
);
width = 600;
},
{
layerId = m01;
shapes = (
{
closed = 1;
nodes = (
(372,-48,l),
(228,-48,l),
(228,84,l),
(372,84,l)
);
},
{
closed = 1;
nodes = (
(240,731,l),
(362,731,l),
(362,204,l),
(240,204,l)
);
}
);
width = 600;
}
);
unicode = 33;
},
{
glyphname = question;
lastChange = "2023-12-28 20:11:40 +0000";
layers = (
{
layerId = "58E25AC2-F473-41C5-84EA-658E208701C1";
shapes = (
{
closed = 1;
nodes = (
(439,700,l),
(561,517,l),
(340,286,l),
(340,194,l),
(258,194,l),
(258,305,l),
(470,524,l),
(399,628,l),
(189,628,l),
(78,514,l),
(39,576,l),
(159,700,l)
);
},
{
closed = 1;
nodes = (
(248,71,l),
(352,71,l),
(352,-21,l),
(248,-21,l)
);
}
);
width = 600;
},
{
layerId = m01;
shapes = (
{
closed = 1;
nodes = (
(450,711,l),
(587,504,l),
(360,268,l),
(360,184,l),
(238,184,l),
(238,303,l),
(444,516,l),
(389,598,l),
(198,598,l),
(75,472,l),
(13,568,l),
(150,711,l)
);
},
{
closed = 1;
nodes = (
(228,101,l),
(372,101,l),
(372,-31,l),
(228,-31,l)
);
}
);
width = 600;
}
);
unicode = 63;
},
{
glyphname = periodcentered;
lastChange = "2023-12-28 20:17:03 +0000";
layers = (
{
layerId = "58E25AC2-F473-41C5-84EA-658E208701C1";
shapes = (
{
closed = 1;
nodes = (
(370,230,l),
(370,370,l),
(230,370,l),
(230,230,l)
);
}
);
width = 600;
},
{
layerId = m01;
shapes = (
{
closed = 1;
nodes = (
(398,202,l),
(398,398,l),
(202,398,l),
(202,202,l)
);
}
);
width = 600;
}
);
unicode = 183;
},
{
glyphname = bullet;
lastChange = "2023-12-28 20:04:28 +0000";
layers = (
{
layerId = "58E25AC2-F473-41C5-84EA-658E208701C1";
shapes = (
{
closed = 1;
nodes = (
(331,375,l),
(375,331,l),
(375,268,l),
(331,225,l),
(268,225,l),
(225,268,l),
(225,331,l),
(268,375,l)
);
}
);
width = 600;
},
{
layerId = m01;
shapes = (
{
closed = 1;
nodes = (
(339,397,l),
(397,341,l),
(397,259,l),
(339,204,l),
(259,204,l),
(203,259,l),
(203,341,l),
(259,397,l)
);
}
);
width = 600;
}
);
unicode = 8226;
},
{
glyphname = asterisk;
lastChange = "2023-12-28 20:18:21 +0000";
layers = (
{
layerId = "58E25AC2-F473-41C5-84EA-658E208701C1";
shapes = (
{
closed = 1;
nodes = (
(340,540,l),
(340,403,l),
(471,445,l),
(496,369,l),
(366,327,l),
(446,215,l),
(381,168,l),
(300,280,l),
(219,168,l),
(154,215,l),
(235,327,l),
(104,369,l),
(130,445,l),
(261,403,l),
(261,540,l)
);
}
);
width = 600;
},
{
layerId = m01;
shapes = (
{
closed = 1;
nodes = (
(361,540,l),
(361,410,l),
(485,450,l),
(521,336,l),
(399,296,l),
(474,191,l),
(376,120,l),
(300,225,l),
(224,120,l),
(127,191,l),
(203,296,l),
(79,336,l),
(118,450,l),
(241,410,l),
(241,540,l)
);
}
);
width = 600;
}
);
unicode = 42;
},
{
glyphname = numbersign;
lastChange = "2023-12-29 16:15:19 +0000";
layers = (
{
layerId = "58E25AC2-F473-41C5-84EA-658E208701C1";
shapes = (
{
closed = 1;
nodes = (
(354,241,l),
(393,459,l),
(245,459,l),
(205,241,l)
);
},
{
closed = 1;
nodes = (
(562,459,l),
(468,459,l),
(427,241,l),
(508,241,l),
(508,168,l),
(414,168,l),
(382,0,l),
(309,0,l),
(339,168,l),
(192,168,l),
(162,0,l),
(88,0,l),
(119,168,l),
(38,168,l),
(38,241,l),
(132,241,l),
(173,459,l),
(92,459,l),
(92,532,l),
(186,532,l),
(216,700,l),
(289,700,l),
(258,532,l),
(408,532,l),
(437,700,l),
(511,700,l),
(480,532,l),
(562,532,l)
);
}
);
width = 600;
},
{
layerId = m01;
shapes = (
{
closed = 1;
nodes = (
(337,281,l),
(369,459,l),
(262,459,l),
(229,281,l)
);
},
{
closed = 1;
nodes = (
(582,459,l),
(484,459,l),
(451,281,l),
(529,281,l),
(529,168,l),
(431,168,l),
(398,0,l),
(285,0,l),
(315,168,l),
(209,168,l),
(179,0,l),
(63,0,l),
(95,168,l),
(18,168,l),
(18,281,l),
(116,281,l),
(148,459,l),
(71,459,l),
(71,572,l),
(169,572,l),
(201,740,l),
(314,740,l),
(282,572,l),
(391,572,l),
(421,740,l),
(537,740,l),
(504,572,l),
(582,572,l)
);
}
);
width = 600;
}
);
unicode = 35;
},
{
glyphname = overline;
lastChange = "2023-12-28 23:38:10 +0000";
layers = (
{
anchors = (
{
name = _top;
pos = (300,800);
}
);
layerId = "58E25AC2-F473-41C5-84EA-658E208701C1";
shapes = (
{
closed = 1;
nodes = (
(600,872,l),
(0,872,l),
(0,800,l),
(600,800,l)
);
}
);
width = 600;
},
{
anchors = (
{
name = _top;
pos = (300,800);
}
);
layerId = m01;
shapes = (
{
closed = 1;
nodes = (
(600,912,l),
(0,912,l),
(0,800,l),
(600,800,l)
);
}
);
width = 600;
}
);
unicode = 8254;
},
{
glyphname = slash;
lastChange = "2023-12-28 20:23:55 +0000";
layers = (
{
layerId = "58E25AC2-F473-41C5-84EA-658E208701C1";
shapes = (
{
closed = 1;
nodes = (
(108,-154,l),
(175,-177,l),
(492,754,l),
(424,777,l)
);
}
);
width = 600;
},
{
layerId = m01;
shapes = (
{
closed = 1;
nodes = (
(83,-167,l),
(188,-202,l),
(517,767,l),
(412,802,l)
);
}
);
width = 600;
}
);
unicode = 47;
},
{
glyphname = hyphen;
lastChange = "2023-12-27 12:41:34 +0000";
layers = (
{
layerId = m01;
shapes = (
{
closed = 1;
nodes = (
(491,356,l),
(109,356,l),
(109,244,l),
(491,244,l)
);
}
);
width = 600;
},
{
layerId = "58E25AC2-F473-41C5-84EA-658E208701C1";
shapes = (
{
closed = 1;
nodes = (
(471,336,l),
(129,336,l),
(129,264,l),
(471,264,l)
);
}
);
width = 600;
}
);
unicode = 45;
},
{
glyphname = endash;
lastChange = "2023-12-27 17:16:40 +0000";
layers = (
{
layerId = "58E25AC2-F473-41C5-84EA-658E208701C1";
shapes = (
{
closed = 1;
nodes = (
(580,336,l),
(20,336,l),
(20,264,l),
(580,264,l)
);
}
);
width = 600;
},
{
layerId = m01;
shapes = (
{
closed = 1;
nodes = (
(580,356,l),
(20,356,l),
(20,244,l),
(580,244,l)
);
}
);
width = 600;
}
);
unicode = 8211;
},
{
glyphname = emdash;
lastChange = "2023-12-27 17:18:03 +0000";
layers = (
{
layerId = "58E25AC2-F473-41C5-84EA-658E208701C1";
shapes = (
{
closed = 1;
nodes = (
(600,336,l),
(0,336,l),
(0,264,l),
(600,264,l)
);
}
);
width = 600;
},
{
layerId = m01;
shapes = (
{
closed = 1;
nodes = (
(600,356,l),
(0,356,l),
(0,244,l),
(600,244,l)
);
}
);
width = 600;
}
);
unicode = 8212;
},
{
glyphname = underscore;
lastChange = "2023-12-27 17:20:41 +0000";
layers = (
{
layerId = "58E25AC2-F473-41C5-84EA-658E208701C1";
shapes = (
{
closed = 1;
nodes = (
(560,-50,l),
(40,-50,l),
(40,-122,l),
(560,-122,l)
);
}
);
width = 600;
},
{
layerId = m01;
shapes = (
{
closed = 1;
nodes = (
(560,-50,l),
(40,-50,l),
(40,-162,l),
(560,-162,l)
);
}
);
width = 600;
}
);
unicode = 95;
},
{
glyphname = parenleft;
lastChange = "2023-12-27 18:16:18 +0000";
layers = (
{
layerId = "58E25AC2-F473-41C5-84EA-658E208701C1";
shapes = (
{
closed = 1;
nodes = (
(451,744,l),
(229,514,l),
(229,86,l),
(451,-144,l),
(400,-195,l),
(149,65,l),
(149,535,l),
(400,795,l)
);
}
);
width = 600;
},
{
layerId = m01;
shapes = (
{
closed = 1;
nodes = (
(490,744,l),
(251,498,l),
(251,102,l),
(490,-144,l),
(402,-252,l),
(110,49,l),
(110,551,l),
(402,852,l)
);
}
);
width = 600;
}
);
unicode = 40;
},
{
glyphname = parenright;
lastChange = "2023-12-27 18:17:10 +0000";
layers = (
{
layerId = "58E25AC2-F473-41C5-84EA-658E208701C1";
shapes = (
{
closed = 1;
nodes = (
(452,535,l),
(452,65,l),
(202,-195,l),
(148,-144,l),
(371,86,l),
(371,514,l),
(148,744,l),
(202,795,l)
);
}
);
width = 600;
},
{
layerId = m01;
shapes = (
{
closed = 1;
nodes = (
(491,551,l),
(491,49,l),
(202,-252,l),
(109,-145,l),
(350,102,l),
(350,498,l),
(109,745,l),
(202,852,l)
);
}
);
width = 600;
}
);
unicode = 41;
},
{
glyphname = braceleft;
lastChange = "2023-12-27 18:18:03 +0000";
layers = (
{
layerId = "58E25AC2-F473-41C5-84EA-658E208701C1";
shapes = (
{
closed = 1;
nodes = (
(499,783,l),
(499,709,l),
(360,709,l),
(360,462,l),
(201,300,l),
(360,138,l),
(360,-109,l),
(499,-109,l),
(499,-183,l),
(328,-183,l),
(278,-130,l),
(278,117,l),
(101,300,l),
(278,483,l),
(278,730,l),
(328,783,l)
);
}
);
width = 600;
},
{
layerId = m01;
shapes = (
{
closed = 1;
nodes = (
(523,803,l),
(523,689,l),
(384,689,l),
(384,454,l),
(234,300,l),
(384,146,l),
(384,-89,l),
(523,-89,l),
(523,-203,l),
(324,-203,l),
(262,-138,l),
(262,109,l),
(77,300,l),
(262,491,l),
(262,738,l),
(324,803,l)
);
}
);
width = 600;
}
);
unicode = 123;
},
{
glyphname = braceright;
lastChange = "2023-12-27 18:28:53 +0000";
layers = (
{
layerId = "58E25AC2-F473-41C5-84EA-658E208701C1";
shapes = (
{
closed = 1;
nodes = (
(272,783,l),
(322,730,l),
(322,483,l),
(499,300,l),
(322,117,l),
(322,-130,l),
(272,-183,l),
(101,-183,l),
(101,-109,l),
(243,-109,l),
(243,138,l),
(399,300,l),
(243,462,l),
(243,709,l),
(101,709,l),
(101,783,l)
);
}
);
width = 600;
},
{
layerId = m01;
shapes = (
{
closed = 1;
nodes = (
(276,803,l),
(338,738,l),
(338,491,l),
(523,300,l),
(338,109,l),
(338,-138,l),
(276,-203,l),
(77,-203,l),
(77,-89,l),
(219,-89,l),
(219,146,l),
(366,300,l),
(219,454,l),
(219,689,l),
(77,689,l),
(77,803,l)
);
}
);
width = 600;
}
);
unicode = 125;
},
{
glyphname = bracketleft;
lastChange = "2023-12-27 18:29:38 +0000";
layers = (
{
layerId = "58E25AC2-F473-41C5-84EA-658E208701C1";
shapes = (
{
closed = 1;
nodes = (
(440,783,l),
(440,709,l),
(240,709,l),
(240,-109,l),
(440,-109,l),
(440,-183,l),
(160,-183,l),
(160,783,l)
);
}
);
width = 600;
},
{
layerId = m01;
shapes = (
{
closed = 1;
nodes = (
(460,803,l),
(460,689,l),
(260,689,l),
(260,-89,l),
(460,-89,l),
(460,-203,l),
(140,-203,l),
(140,803,l)
);
}
);
width = 600;
}
);
unicode = 91;
},
{
glyphname = bracketright;
lastChange = "2023-12-27 18:30:16 +0000";
layers = (
{
layerId = "58E25AC2-F473-41C5-84EA-658E208701C1";
shapes = (
{
closed = 1;
nodes = (
(441,783,l),
(441,-183,l),
(159,-183,l),
(159,-107,l),
(360,-107,l),
(360,707,l),
(159,707,l),
(159,783,l)
);
}
);
width = 600;
},
{
layerId = m01;
shapes = (
{
closed = 1;
nodes = (
(461,803,l),
(461,-203,l),
(139,-203,l),
(139,-87,l),
(340,-87,l),
(340,687,l),
(139,687,l),
(139,803,l)
);
}
);
width = 600;
}
);
unicode = 93;
},
{
glyphname = guilsinglleft;
lastChange = "2023-12-27 18:50:08 +0000";
layers = (
{
layerId = "58E25AC2-F473-41C5-84EA-658E208701C1";
shapes = (
{
closed = 1;
nodes = (
(367,69,l),
(197,274,l),
(197,324,l),
(367,531,l),
(403,509,l),
(267,299,l),
(403,91,l)
);
}
);
width = 600;
},
{
layerId = m01;
shapes = (
{
closed = 1;
nodes = (
(358,43,l),
(173,267,l),
(173,331,l),
(358,557,l),
(427,515,l),
(287,299,l),
(427,84,l)
);
}
);
width = 600;
}
);
unicode = 8249;
},
{
glyphname = guilsinglright;
lastChange = "2023-12-27 18:48:11 +0000";
layers = (
{
layerId = "58E25AC2-F473-41C5-84EA-658E208701C1";
shapes = (
{
closed = 1;
nodes = (
(197,509,l),
(234,531,l),
(403,324,l),
(403,275,l),
(234,69,l),
(197,91,l),
(334,300,l)
);
}
);
width = 600;
},
{
layerId = m01;
shapes = (
{
closed = 1;
nodes = (
(173,515,l),
(242,557,l),
(427,331,l),
(427,267,l),
(242,43,l),
(173,84,l),
(314,299,l)
);
}
);
width = 600;
}
);
unicode = 8250;
},
{
glyphname = quotedbl;
lastChange = "2023-12-27 18:45:35 +0000";
layers = (
{
layerId = "58E25AC2-F473-41C5-84EA-658E208701C1";
shapes = (
{
closed = 1;
nodes = (
(169,700,l),
(250,700,l),
(250,433,l),
(169,433,l)
);
},
{
closed = 1;
nodes = (
(350,700,l),
(431,700,l),
(431,433,l),
(350,433,l)
);
}
);
width = 600;
},
{
layerId = m01;
shapes = (
{
closed = 1;
nodes = (
(129,700,l),
(250,700,l),
(250,394,l),
(129,394,l)
);
},
{
closed = 1;
nodes = (
(350,700,l),
(471,700,l),
(471,394,l),
(350,394,l)
);
}
);
width = 600;
}
);
unicode = 34;
},
{
glyphname = quotesingle;
lastChange = "2023-12-27 18:46:28 +0000";
layers = (
{
layerId = "58E25AC2-F473-41C5-84EA-658E208701C1";
shapes = (
{
closed = 1;
nodes = (
(260,700,l),
(341,700,l),
(341,433,l),
(260,433,l)
);
}
);
width = 600;
},
{
layerId = m01;
shapes = (
{
closed = 1;
nodes = (
(240,700,l),
(361,700,l),
(361,394,l),
(240,394,l)
);
}
);
width = 600;
}
);
unicode = 39;
},
{
glyphname = ampersand_ampersand.liga;
lastChange = "2023-12-31 15:09:56 +0000";
layers = (
{
layerId = "58E25AC2-F473-41C5-84EA-658E208701C1";
shapes = (
{
closed = 1;
nodes = (
(-89,701,l),
(-33,620,l),
(-33,571,l),
(-198,400,l),
(-80,223,l),
(99,408,l),
(0,554,l),
(0,616,l),
(82,701,l),
(301,701,l),
(357,620,l),
(357,571,l),
(193,400,l),
(334,189,l),
(408,267,l),
(342,267,l),
(342,339,l),
(483,339,l),
(483,238,l),
(374,127,l),
(462,0,l),
(374,0,l),
(323,75,l),
(253,0,l),
(-16,0,l),
(-67,74,l),
(-138,0,l),
(-407,0,l),
(-471,95,l),
(-471,223,l),
(-292,408,l),
(-390,554,l),
(-390,616,l),
(-309,701,l)
);
},
{
closed = 1;
nodes = (
(-241,462,l),
(-106,598,l),
(-125,629,l),
(-277,629,l),
(-322,581,l)
);
},
{
closed = 1;
nodes = (
(150,462,l),
(284,598,l),
(265,629,l),
(113,629,l),
(69,581,l)
);
},
{
closed = 1;
nodes = (
(-369,73,l),
(-168,73,l),
(-108,135,l),
(-252,346,l),
(-390,201,l),
(-390,105,l)
);
},
{
closed = 1;
nodes = (
(223,73,l),
(282,135,l),
(139,346,l),
(-38,162,l),
(22,73,l)
);
}
);
width = 600;
},
{
layerId = m01;
shapes = (
{
closed = 1;
nodes = (
(-98,741,l),
(-33,646,l),
(-33,583,l),
(-192,417,l),
(-80,251,l),
(93,430,l),
(0,568,l),
(0,643,l),
(93,741,l),
(332,741,l),
(397,646,l),
(397,583,l),
(238,417,l),
(356,241,l),
(381,267,l),
(362,267,l),
(362,379,l),
(523,379,l),
(523,250,l),
(420,145,l),
(520,0,l),
(384,0,l),
(340,63,l),
(281,0,l),
(-7,0,l),
(-65,87,l),
(-149,0,l),
(-437,0,l),
(-510,108,l),
(-510,251,l),
(-337,430,l),
(-430,568,l),
(-430,643,l),
(-337,741,l)
);
},
{
closed = 1;
nodes = (
(-257,513,l),
(-151,621,l),
(-156,628,l),
(-288,628,l),
(-316,599,l)
);
},
{
closed = 1;
nodes = (
(173,513,l),
(279,621,l),
(274,628,l),
(142,628,l),
(114,599,l)
);
},
{
closed = 1;
nodes = (
(-378,113,l),
(-196,113,l),
(-153,157,l),
(-274,335,l),
(-390,213,l),
(-390,131,l)
);
},
{
closed = 1;
nodes = (
(234,113,l),
(277,157,l),
(156,335,l),
(8,180,l),
(52,113,l)
);
}
);
width = 600;
}
);
metricWidth = space;
},
{
glyphname = dollar_greater.liga;
lastChange = "2024-01-08 13:14:59 +0000";
layers = (
{
layerId = "58E25AC2-F473-41C5-84EA-658E208701C1";
shapes = (
{
closed = 1;
nodes = (
(226,677,l),
(580,334,l),
(580,291,l),
(290,11,l),
(241,64,l),
(498,313,l),
(195,604,l),
(-412,604,l),
(-441,573,l),
(-441,436,l),
(-402,378,l),
(-150,378,l),
(-79,272,l),
(-79,73,l),
(-150,0,l),
(-258,0,l),
(-258,-145,l),
(-341,-145,l),
(-341,0,l),
(-552,0,l),
(-522,72,l),
(-184,72,l),
(-160,93,l),
(-160,264,l),
(-190,306,l),
(-441,306,l),
(-522,426,l),
(-522,593,l),
(-441,677,l),
(-341,677,l),
(-341,823,l),
(-258,823,l),
(-258,677,l)
);
}
);
width = 600;
},
{
layerId = m01;
shapes = (
{
closed = 1;
nodes = (
(237,677,l),
(580,346,l),
(580,286,l),
(270,-14,l),
(193,67,l),
(449,316,l),
(191,564,l),
(-411,564,l),
(-429,545,l),
(-429,430,l),
(-400,387,l),
(-148,387,l),
(-67,266,l),
(-67,85,l),
(-149,0,l),
(-246,0,l),
(-246,-167,l),
(-369,-167,l),
(-369,0,l),
(-596,0,l),
(-549,113,l),
(-199,113,l),
(-188,122,l),
(-188,245,l),
(-208,274,l),
(-460,274,l),
(-550,408,l),
(-550,581,l),
(-458,677,l),
(-369,677,l),
(-369,843,l),
(-246,843,l),
(-246,677,l)
);
}
);
width = 600;
}
);
metricWidth = space;
},
{
glyphname = equal_equal_equal.liga;
lastChange = "2023-12-31 12:27:49 +0000";
layers = (
{
layerId = "58E25AC2-F473-41C5-84EA-658E208701C1";
shapes = (
{
closed = 1;
nodes = (
(-858,271,l),
(258,271,l),
(258,343,l),
(-858,343,l)
);
},
{
closed = 1;
nodes = (
(-858,107,l),
(258,107,l),
(258,179,l),
(-858,179,l)
);
},
{
closed = 1;
nodes = (
(-858,435,l),
(258,435,l),
(258,507,l),
(-858,507,l)
);
}
);
width = 600;
},
{
layerId = m01;
shapes = (
{
closed = 1;
nodes = (
(-978,251,l),
(378,251,l),
(378,364,l),
(-978,364,l)
);
},
{
closed = 1;
nodes = (
(-978,36,l),
(378,36,l),
(378,149,l),
(-978,149,l)
);
},
{
closed = 1;
nodes = (
(-978,466,l),
(378,466,l),
(378,579,l),
(-978,579,l)
);
}
);
width = 600;
}
);
metricWidth = space;
},
{
glyphname = equal_greater.liga;
lastChange = "2024-01-08 11:12:27 +0000";
layers = (
{
layerId = "58E25AC2-F473-41C5-84EA-658E208701C1";
shapes = (
{
closed = 1;
nodes = (
(-372,351,l),
(307,351,l),
(234,423,l),
(-372,423,l)
);
},
{
closed = 1;
nodes = (
(-372,176,l),
(234,176,l),
(307,248,l),
(-372,248,l)
);
},
{
pos = (-97,-40);
ref = greater;
}
);
width = 600;
},
{
layerId = m01;
shapes = (
{
closed = 1;
nodes = (
(-452,351,l),
(286,351,l),
(286,464,l),
(-452,464,l)
);
},
{
closed = 1;
nodes = (
(-452,126,l),
(286,126,l),
(286,239,l),
(-452,239,l)
);
},
{
pos = (-42,-46);
ref = greater;
}
);
width = 600;
}
);
metricWidth = space;
},
{
glyphname = equal_greater_equal.liga;
lastChange = "2024-01-08 11:12:57 +0000";
layers = (
{
layerId = "58E25AC2-F473-41C5-84EA-658E208701C1";
shapes = (
{
closed = 1;
nodes = (
(-144,351,l),
(223,351,l),
(223,423,l),
(-213,423,l)
);
},
{
closed = 1;
nodes = (
(-213,176,l),
(223,176,l),
(223,248,l),
(-144,248,l)
);
},
{
pos = (-451,0);
ref = equal_greater.liga;
}
);
width = 600;
},
{
layerId = m01;
shapes = (
{
closed = 1;
nodes = (
(-120,351,l),
(302,351,l),
(302,464,l),
(-170,464,l)
);
},
{
closed = 1;
nodes = (
(-170,126,l),
(302,126,l),
(302,239,l),
(-120,239,l)
);
},
{
pos = (-452,0);
ref = equal_greater.liga;
}
);
width = 600;
}
);
metricWidth = space;
},
{
glyphname = equal_less_less.liga;
lastChange = "2024-01-08 11:13:41 +0000";
layers = (
{
layerId = "58E25AC2-F473-41C5-84EA-658E208701C1";
shapes = (
{
pos = (-639,-39);
ref = less;
},
{
pos = (389,-39);
ref = greater;
scale = (-1,1);
},
{
closed = 1;
nodes = (
(-849,352,l),
(-382,352,l),
(-382,424,l),
(-849,424,l)
);
},
{
closed = 1;
nodes = (
(-849,177,l),
(-382,177,l),
(-382,249,l),
(-849,249,l)
);
}
);
width = 600;
},
{
layerId = m01;
shapes = (
{
pos = (-631,-39);
ref = less;
},
{
pos = (387,-39);
ref = greater;
scale = (-1,1);
},
{
closed = 1;
nodes = (
(-901,352,l),
(-359,352,l),
(-359,465,l),
(-901,465,l)
);
},
{
closed = 1;
nodes = (
(-901,127,l),
(-359,127,l),
(-359,240,l),
(-901,240,l)
);
}
);
width = 600;
}
);
metricWidth = space;
},
{
glyphname = less_dollar.liga;
lastChange = "2024-01-08 13:19:40 +0000";
layers = (
{
layerId = "58E25AC2-F473-41C5-84EA-658E208701C1";
shapes = (
{
closed = 1;
nodes = (
(551,677,l),
(520,604,l),
(218,604,l),
(189,573,l),
(189,436,l),
(228,378,l),
(480,378,l),
(551,272,l),
(551,73,l),
(480,0,l),
(372,0,l),
(372,-145,l),
(289,-145,l),
(289,0,l),
(-223,0,l),
(-550,318,l),
(-550,361,l),
(-262,639,l),
(-211,587,l),
(-468,340,l),
(-193,72,l),
(446,72,l),
(470,93,l),
(470,264,l),
(440,306,l),
(189,306,l),
(108,426,l),
(108,593,l),
(189,677,l),
(289,677,l),
(289,823,l),
(372,823,l),
(372,677,l)
);
}
);
width = 600;
},
{
layerId = m01;
shapes = (
{
closed = 1;
nodes = (
(558,677,l),
(512,564,l),
(212,564,l),
(194,545,l),
(194,430,l),
(223,387,l),
(475,387,l),
(556,266,l),
(556,85,l),
(474,0,l),
(377,0,l),
(377,-167,l),
(254,-167,l),
(254,0,l),
(-240,0,l),
(-557,309,l),
(-557,369,l),
(-249,667,l),
(-170,585,l),
(-426,339,l),
(-193,113,l),
(424,113,l),
(435,122,l),
(435,245,l),
(415,274,l),
(163,274,l),
(73,408,l),
(73,581,l),
(165,677,l),
(254,677,l),
(254,843,l),
(377,843,l),
(377,677,l)
);
}
);
width = 600;
}
);
metricWidth = space;
},
{
glyphname = less_dollar_greater.liga;
lastChange = "2023-12-31 15:34:23 +0000";
layers = (
{
layerId = "58E25AC2-F473-41C5-84EA-658E208701C1";
shapes = (
{
closed = 1;
nodes = (
(226,677,l),
(580,334,l),
(580,291,l),
(290,11,l),
(241,64,l),
(498,313,l),
(195,604,l),
(-412,604,l),
(-441,573,l),
(-441,436,l),
(-402,378,l),
(-150,378,l),
(-79,272,l),
(-79,73,l),
(-150,0,l),
(-258,0,l),
(-258,-145,l),
(-341,-145,l),
(-341,0,l),
(-853,0,l),
(-1180,318,l),
(-1180,361,l),
(-892,639,l),
(-841,587,l),
(-1098,340,l),
(-823,72,l),
(-184,72,l),
(-160,93,l),
(-160,264,l),
(-190,306,l),
(-441,306,l),
(-522,426,l),
(-522,593,l),
(-441,677,l),
(-341,677,l),
(-341,823,l),
(-258,823,l),
(-258,677,l)
);
}
);
width = 600;
},
{
layerId = m01;
shapes = (
{
closed = 1;
nodes = (
(237,677,l),
(580,346,l),
(580,286,l),
(270,-14,l),
(193,67,l),
(449,316,l),
(191,564,l),
(-411,564,l),
(-429,545,l),
(-429,430,l),
(-400,387,l),
(-148,387,l),
(-67,266,l),
(-67,85,l),
(-149,0,l),
(-246,0,l),
(-246,-167,l),
(-369,-167,l),
(-369,0,l),
(-863,0,l),
(-1180,309,l),
(-1180,369,l),
(-872,667,l),
(-793,585,l),
(-1049,339,l),
(-816,113,l),
(-199,113,l),
(-188,122,l),
(-188,245,l),
(-208,274,l),
(-460,274,l),
(-550,408,l),
(-550,581,l),
(-458,677,l),
(-369,677,l),
(-369,843,l),
(-246,843,l),
(-246,677,l)
);
}
);
width = 600;
}
);
metricWidth = space;
},
{
glyphname = at;
lastChange = "2023-12-29 00:51:40 +0000";
layers = (
{
layerId = "58E25AC2-F473-41C5-84EA-658E208701C1";
shapes = (
{
closed = 1;
nodes = (
(429,652,l),
(597,493,l),
(597,156,l),
(524,109,l),
(235,109,l),
(154,219,l),
(154,332,l),
(260,439,l),
(375,439,l),
(456,366,l),
(456,178,l),
(516,178,l),
(516,469,l),
(391,580,l),
(225,580,l),
(84,445,l),
(84,110,l),
(195,-32,l),
(456,-32,l),
(456,-104,l),
(157,-104,l),
(3,100,l),
(3,466,l),
(193,652,l)
);
},
{
closed = 1;
nodes = (
(269,178,l),
(370,178,l),
(370,367,l),
(283,367,l),
(230,311,l),
(230,235,l)
);
}
);
width = 600;
},
{
layerId = m01;
shapes = (
{
closed = 1;
nodes = (
(429,677,l),
(597,518,l),
(597,154,l),
(524,107,l),
(235,107,l),
(154,217,l),
(154,359,l),
(260,466,l),
(375,466,l),
(456,393,l),
(456,195,l),
(496,195,l),
(496,493,l),
(391,585,l),
(225,585,l),
(104,470,l),
(104,110,l),
(195,-11,l),
(456,-11,l),
(456,-104,l),
(157,-104,l),
(3,100,l),
(3,491,l),
(193,677,l)
);
},
{
closed = 1;
nodes = (
(279,195,l),
(350,195,l),
(350,374,l),
(291,374,l),
(250,330,l),
(250,239,l)
);
}
);
width = 600;
}
);
unicode = 64;
},
{
glyphname = ampersand;
lastChange = "2023-12-29 16:15:38 +0000";
layers = (
{
layerId = "58E25AC2-F473-41C5-84EA-658E208701C1";
shapes = (
{
closed = 1;
nodes = (
(400,700,l),
(456,620,l),
(456,570,l),
(291,399,l),
(432,188,l),
(506,267,l),
(441,267,l),
(441,339,l),
(582,339,l),
(582,237,l),
(473,126,l),
(560,0,l),
(473,0,l),
(422,75,l),
(351,0,l),
(82,0,l),
(18,94,l),
(18,222,l),
(197,408,l),
(99,553,l),
(99,615,l),
(180,700,l)
);
},
{
closed = 1;
nodes = (
(249,461,l),
(383,598,l),
(364,628,l),
(212,628,l),
(167,581,l)
);
},
{
closed = 1;
nodes = (
(120,72,l),
(321,72,l),
(381,135,l),
(238,346,l),
(99,201,l),
(99,105,l)
);
}
);
width = 600;
},
{
layerId = m01;
shapes = (
{
closed = 1;
nodes = (
(411,741,l),
(476,646,l),
(476,582,l),
(317,417,l),
(435,240,l),
(459,267,l),
(441,267,l),
(441,379,l),
(602,379,l),
(602,249,l),
(499,144,l),
(599,0,l),
(462,0,l),
(419,63,l),
(360,0,l),
(72,0,l),
(-2,108,l),
(-2,250,l),
(172,430,l),
(79,567,l),
(79,643,l),
(172,741,l)
);
},
{
closed = 1;
nodes = (
(252,513,l),
(357,621,l),
(353,628,l),
(221,628,l),
(193,599,l)
);
},
{
closed = 1;
nodes = (
(131,113,l),
(313,113,l),
(355,157,l),
(235,334,l),
(119,213,l),
(119,131,l)
);
}
);
width = 600;
}
);
unicode = 38;
},
{
glyphname = paragraph;
lastChange = "2023-12-30 22:11:29 +0000";
layers = (
{
layerId = "58E25AC2-F473-41C5-84EA-658E208701C1";
shapes = (
{
closed = 1;
nodes = (
(549,767,l),
(549,-80,l),
(477,-80,l),
(477,655,l),
(377,655,l),
(377,-80,l),
(305,-80,l),
(305,249,l),
(250,217,l),
(141,217,l),
(51,351,l),
(51,673,l),
(143,767,l)
);
}
);
width = 600;
},
{
layerId = m01;
shapes = (
{
closed = 1;
nodes = (
(548,767,l),
(548,-80,l),
(473,-80,l),
(473,655,l),
(427,655,l),
(427,-80,l),
(306,-80,l),
(306,249,l),
(251,217,l),
(142,217,l),
(52,351,l),
(52,673,l),
(144,767,l)
);
}
);
width = 600;
}
);
unicode = 182;
},
{
glyphname = section;
lastChange = "2023-12-29 00:48:25 +0000";
layers = (
{
layerId = "58E25AC2-F473-41C5-84EA-658E208701C1";
shapes = (
{
closed = 1;
nodes = (
(426,772,l),
(478,695,l),
(429,644,l),
(389,700,l),
(215,700,l),
(184,675,l),
(184,609,l),
(222,555,l),
(427,555,l),
(496,453,l),
(496,317,l),
(455,272,l),
(496,212,l),
(496,75,l),
(428,0,l),
(144,0,l),
(104,62,l),
(153,113,l),
(180,72,l),
(395,72,l),
(416,96,l),
(416,200,l),
(386,241,l),
(180,241,l),
(104,356,l),
(104,481,l),
(151,527,l),
(104,597,l),
(104,700,l),
(180,772,l)
);
},
{
closed = 1;
nodes = (
(395,314,l),
(416,337,l),
(416,442,l),
(386,483,l),
(212,483,l),
(184,459,l),
(184,368,l),
(222,314,l)
);
}
);
width = 600;
},
{
layerId = m01;
shapes = (
{
closed = 1;
nodes = (
(440,780,l),
(508,681,l),
(430,600,l),
(382,670,l),
(226,670,l),
(208,654,l),
(208,593,l),
(236,553,l),
(442,553,l),
(520,437,l),
(520,299,l),
(484,258,l),
(518,208,l),
(518,88,l),
(438,0,l),
(134,0,l),
(80,84,l),
(158,164,l),
(192,113,l),
(387,113,l),
(397,124,l),
(397,184,l),
(377,211,l),
(171,211,l),
(85,340,l),
(85,465,l),
(129,508,l),
(88,569,l),
(88,694,l),
(176,780,l)
);
},
{
closed = 1;
nodes = (
(390,324,l),
(400,335,l),
(400,412,l),
(380,441,l),
(224,441,l),
(206,425,l),
(206,364,l),
(234,324,l)
);
}
);
width = 600;
}
);
unicode = 167;
},
{
glyphname = copyright;
lastChange = "2023-12-29 00:54:00 +0000";
layers = (
{
layerId = "58E25AC2-F473-41C5-84EA-658E208701C1";
shapes = (
{
closed = 1;
nodes = (
(120,432,l),
(120,254,l),
(201,133,l),
(409,133,l),
(478,205,l),
(437,267,l),
(377,205,l),
(240,205,l),
(200,263,l),
(200,411,l),
(232,443,l),
(370,443,l),
(429,355,l),
(480,409,l),
(408,515,l),
(200,515,l)
);
},
{
closed = 1;
nodes = (
(415,603,l),
(582,440,l),
(582,201,l),
(415,40,l),
(181,40,l),
(18,201,l),
(18,440,l),
(181,603,l)
);
}
);
width = 600;
},
{
layerId = m01;
shapes = (
{
closed = 1;
nodes = (
(120,431,l),
(120,253,l),
(201,133,l),
(409,133,l),
(478,205,l),
(437,266,l),
(377,205,l),
(240,205,l),
(200,263,l),
(200,411,l),
(232,442,l),
(370,442,l),
(429,355,l),
(480,408,l),
(408,514,l),
(200,514,l)
);
},
{
closed = 1;
nodes = (
(415,602,l),
(582,440,l),
(582,201,l),
(415,40,l),
(181,40,l),
(18,201,l),
(18,440,l),
(181,602,l)
);
}
);
width = 600;
}
);
unicode = 169;
},
{
glyphname = registered;
lastChange = "2023-12-29 00:55:00 +0000";
layers = (
{
layerId = "58E25AC2-F473-41C5-84EA-658E208701C1";
shapes = (
{
closed = 1;
nodes = (
(381,700,l),
(500,584,l),
(500,414,l),
(381,300,l),
(215,300,l),
(100,414,l),
(100,584,l),
(215,700,l)
);
},
{
closed = 1;
nodes = (
(197,592,l),
(197,377,l),
(254,377,l),
(254,474,l),
(302,474,l),
(345,419,l),
(345,377,l),
(402,377,l),
(402,425,l),
(361,477,l),
(405,531,l),
(405,564,l),
(354,629,l),
(234,629,l)
);
},
{
closed = 1;
nodes = (
(326,577,l),
(348,556,l),
(348,544,l),
(337,507,l),
(254,507,l),
(254,577,l)
);
}
);
width = 600;
},
{
layerId = m01;
shapes = (
{
closed = 1;
nodes = (
(381,700,l),
(500,584,l),
(500,414,l),
(381,300,l),
(215,300,l),
(100,414,l),
(100,584,l),
(215,700,l)
);
},
{
closed = 1;
nodes = (
(197,592,l),
(197,377,l),
(254,377,l),
(254,474,l),
(302,474,l),
(345,419,l),
(345,377,l),
(402,377,l),
(402,425,l),
(361,477,l),
(405,531,l),
(405,564,l),
(354,629,l),
(234,629,l)
);
},
{
closed = 1;
nodes = (
(326,577,l),
(348,556,l),
(348,544,l),
(337,507,l),
(254,507,l),
(254,577,l)
);
}
);
width = 600;
}
);
unicode = 174;
},
{
glyphname = trademark;
lastChange = "2023-12-29 00:55:57 +0000";
layers = (
{
layerId = "58E25AC2-F473-41C5-84EA-658E208701C1";
shapes = (
{
closed = 1;
nodes = (
(343,647,l),
(343,593,l),
(399,510,l),
(532,647,l),
(592,647,l),
(592,300,l),
(532,300,l),
(532,569,l),
(457,491,l),
(457,422,l),
(393,422,l),
(393,424,l),
(321,531,l),
(321,300,l),
(260,300,l),
(260,593,l),
(119,593,l),
(177,558,l),
(177,300,l),
(117,300,l),
(117,550,l),
(88,593,l),
(8,593,l),
(8,647,l)
);
}
);
width = 600;
},
{
layerId = m01;
shapes = (
{
closed = 1;
nodes = (
(343,647,l),
(343,593,l),
(399,510,l),
(532,647,l),
(592,647,l),
(592,300,l),
(532,300,l),
(532,569,l),
(457,491,l),
(457,422,l),
(393,422,l),
(393,424,l),
(321,531,l),
(321,300,l),
(260,300,l),
(260,593,l),
(119,593,l),
(177,558,l),
(177,300,l),
(117,300,l),
(117,550,l),
(88,593,l),
(8,593,l),
(8,647,l)
);
}
);
width = 600;
}
);
unicode = 8482;
},
{
glyphname = degree;
lastChange = "2023-12-29 00:57:08 +0000";
layers = (
{
layerId = "58E25AC2-F473-41C5-84EA-658E208701C1";
shapes = (
{
closed = 1;
nodes = (
(343,700,l),
(407,638,l),
(407,548,l),
(343,487,l),
(254,487,l),
(193,548,l),
(193,638,l),
(254,700,l)
);
},
{
closed = 1;
nodes = (
(245,617,l),
(245,570,l),
(277,539,l),
(322,539,l),
(355,570,l),
(355,617,l),
(322,648,l),
(277,648,l)
);
}
);
width = 600;
},
{
layerId = m01;
shapes = (
{
closed = 1;
nodes = (
(348,700,l),
(417,632,l),
(417,534,l),
(348,467,l),
(250,467,l),
(183,534,l),
(183,632,l),
(250,700,l)
);
},
{
closed = 1;
nodes = (
(255,602,l),
(255,564,l),
(281,539,l),
(318,539,l),
(345,564,l),
(345,602,l),
(318,628,l),
(281,628,l)
);
}
);
width = 600;
}
);
unicode = 176;
},
{
glyphname = bar;
lastChange = "2023-12-29 01:17:43 +0000";
layers = (
{
layerId = "58E25AC2-F473-41C5-84EA-658E208701C1";
shapes = (
{
closed = 1;
nodes = (
(340,-160,l),
(340,760,l),
(260,760,l),
(260,-160,l)
);
}
);
width = 600;
},
{
layerId = m01;
shapes = (
{
closed = 1;
nodes = (
(360,-160,l),
(360,760,l),
(240,760,l),
(240,-160,l)
);
}
);
width = 600;
}
);
unicode = 124;
},
{
glyphname = brokenbar;
lastChange = "2023-12-29 01:18:51 +0000";
layers = (
{
layerId = "58E25AC2-F473-41C5-84EA-658E208701C1";
shapes = (
{
closed = 1;
nodes = (
(340,410,l),
(260,410,l),
(260,760,l),
(340,760,l)
);
},
{
closed = 1;
nodes = (
(340,-160,l),
(260,-160,l),
(260,190,l),
(340,190,l)
);
}
);
width = 600;
},
{
layerId = m01;
shapes = (
{
closed = 1;
nodes = (
(360,410,l),
(240,410,l),
(240,760,l),
(360,760,l)
);
},
{
closed = 1;
nodes = (
(360,-160,l),
(240,-160,l),
(240,190,l),
(360,190,l)
);
}
);
width = 600;
}
);
unicode = 166;
},
{
glyphname = dagger;
lastChange = "2023-12-29 01:14:14 +0000";
layers = (
{
layerId = "58E25AC2-F473-41C5-84EA-658E208701C1";
shapes = (
{
closed = 1;
nodes = (
(336,0,l),
(336,700,l),
(264,700,l),
(264,0,l)
);
},
{
closed = 1;
nodes = (
(471,500,l),
(129,500,l),
(129,428,l),
(471,428,l)
);
}
);
width = 600;
},
{
layerId = m01;
shapes = (
{
closed = 1;
nodes = (
(345,0,l),
(345,700,l),
(255,700,l),
(255,0,l)
);
},
{
closed = 1;
nodes = (
(471,500,l),
(129,500,l),
(129,410,l),
(471,410,l)
);
}
);
width = 600;
}
);
unicode = 8224;
},
{
glyphname = daggerdbl;
lastChange = "2023-12-29 01:15:20 +0000";
layers = (
{
layerId = "58E25AC2-F473-41C5-84EA-658E208701C1";
shapes = (
{
closed = 1;
nodes = (
(336,0,l),
(336,700,l),
(264,700,l),
(264,0,l)
);
},
{
closed = 1;
nodes = (
(471,500,l),
(129,500,l),
(129,428,l),
(471,428,l)
);
},
{
closed = 1;
nodes = (
(471,260,l),
(129,260,l),
(129,188,l),
(471,188,l)
);
}
);
width = 600;
},
{
layerId = m01;
shapes = (
{
closed = 1;
nodes = (
(345,0,l),
(345,700,l),
(255,700,l),
(255,0,l)
);
},
{
closed = 1;
nodes = (
(471,500,l),
(129,500,l),
(129,410,l),
(471,410,l)
);
},
{
closed = 1;
nodes = (
(471,250,l),
(129,250,l),
(129,160,l),
(471,160,l)
);
}
);
width = 600;
}
);
unicode = 8225;
},
{
glyphname = at.001;
lastChange = "2023-12-30 21:09:08 +0000";
layers = (
{
layerId = "58E25AC2-F473-41C5-84EA-658E208701C1";
shapes = (
{
closed = 1;
nodes = (
(429,652,l),
(597,493,l),
(597,156,l),
(524,109,l),
(235,109,l),
(154,219,l),
(154,332,l),
(260,439,l),
(375,439,l),
(456,366,l),
(456,178,l),
(516,178,l),
(516,469,l),
(391,580,l),
(225,580,l),
(84,445,l),
(84,110,l),
(195,-32,l),
(456,-32,l),
(456,-104,l),
(157,-104,l),
(3,100,l),
(3,466,l),
(193,652,l)
);
},
{
closed = 1;
nodes = (
(269,178,l),
(370,178,l),
(370,367,l),
(283,367,l),
(230,311,l),
(230,235,l)
);
}
);
width = 600;
},
{
layerId = m01;
shapes = (
{
closed = 1;
nodes = (
(429,677,l),
(597,518,l),
(597,154,l),
(524,107,l),
(235,107,l),
(154,217,l),
(154,359,l),
(260,466,l),
(375,466,l),
(456,393,l),
(456,195,l),
(496,195,l),
(496,493,l),
(391,585,l),
(225,585,l),
(104,470,l),
(104,110,l),
(195,-11,l),
(456,-11,l),
(456,-104,l),
(157,-104,l),
(3,100,l),
(3,491,l),
(193,677,l)
);
},
{
closed = 1;
nodes = (
(279,195,l),
(350,195,l),
(350,374,l),
(291,374,l),
(250,330,l),
(250,239,l)
);
}
);
width = 600;
}
);
},
{
glyphname = K.circled;
lastChange = "2023-12-27 14:33:07 +0000";
layers = (
{
layerId = "58E25AC2-F473-41C5-84EA-658E208701C1";
shapes = (
{
closed = 1;
nodes = (
(465,0,o),
(600,134,o),
(600,300,cs),
(600,466,o),
(465,600,o),
(300,600,cs),
(134,600,o),
(0,466,o),
(0,300,cs),
(0,134,o),
(134,0,o),
(300,0,cs)
);
},
{
closed = 1;
nodes = (
(175,75,o),
(75,175,o),
(75,300,cs),
(75,425,o),
(175,525,o),
(300,525,cs),
(425,525,o),
(525,425,o),
(525,300,cs),
(525,175,o),
(425,75,o),
(300,75,cs)
);
},
{
closed = 1;
nodes = (
(226,264,l),
(340,175,l),
(430,175,l),
(272,301,l)
);
},
{
closed = 1;
nodes = (
(339,425,l),
(226,337,l),
(272,301,l),
(430,425,l)
);
},
{
closed = 1;
nodes = (
(170,381,l),
(170,220,l),
(227,176,l),
(227,425,l)
);
}
);
width = 600;
},
{
layerId = m01;
shapes = (
{
closed = 1;
nodes = (
(465,0,o),
(600,134,o),
(600,300,cs),
(600,466,o),
(465,600,o),
(300,600,cs),
(134,600,o),
(0,466,o),
(0,300,cs),
(0,134,o),
(134,0,o),
(300,0,cs)
);
},
{
closed = 1;
nodes = (
(175,75,o),
(75,175,o),
(75,300,cs),
(75,425,o),
(175,525,o),
(300,525,cs),
(425,525,o),
(525,425,o),
(525,300,cs),
(525,175,o),
(425,75,o),
(300,75,cs)
);
},
{
closed = 1;
nodes = (
(226,264,l),
(340,175,l),
(430,175,l),
(272,301,l)
);
},
{
closed = 1;
nodes = (
(339,425,l),
(226,337,l),
(272,301,l),
(430,425,l)
);
},
{
closed = 1;
nodes = (
(170,381,l),
(170,220,l),
(227,176,l),
(227,425,l)
);
}
);
width = 600;
}
);
unicode = 9408;
},
{
glyphname = bitcoin;
lastChange = "2023-12-30 22:16:12 +0000";
layers = (
{
layerId = "58E25AC2-F473-41C5-84EA-658E208701C1";
shapes = (
{
closed = 1;
nodes = (
(474,700,l),
(521,632,l),
(521,540,l),
(398,410,l),
(438,410,l),
(531,273,l),
(531,49,l),
(451,0,l),
(89,0,l),
(89,700,l)
);
},
{
closed = 1;
nodes = (
(169,410,l),
(297,410,l),
(441,559,l),
(441,628,l),
(169,628,l)
);
},
{
closed = 1;
nodes = (
(169,72,l),
(451,72,l),
(451,265,l),
(400,337,l),
(169,337,l)
);
},
{
closed = 1;
nodes = (
(180,818,l),
(260,818,l),
(260,628,l),
(180,628,l)
);
},
{
closed = 1;
nodes = (
(340,818,l),
(420,818,l),
(420,628,l),
(340,628,l)
);
},
{
closed = 1;
nodes = (
(180,61,l),
(260,61,l),
(260,-120,l),
(180,-120,l)
);
},
{
closed = 1;
nodes = (
(340,61,l),
(420,61,l),
(420,-120,l),
(340,-120,l)
);
}
);
width = 600;
},
{
layerId = m01;
shapes = (
{
closed = 1;
nodes = (
(476,700,l),
(533,619,l),
(533,512,l),
(435,410,l),
(440,410,l),
(542,260,l),
(542,58,l),
(448,0,l),
(59,0,l),
(59,700,l)
);
},
{
closed = 1;
nodes = (
(180,410,l),
(279,410,l),
(411,549,l),
(411,588,l),
(180,588,l)
);
},
{
closed = 1;
nodes = (
(180,113,l),
(422,113,l),
(422,240,l),
(380,298,l),
(180,298,l)
);
},
{
closed = 1;
nodes = (
(119,842,l),
(240,842,l),
(240,634,l),
(119,634,l)
);
},
{
closed = 1;
nodes = (
(309,842,l),
(430,842,l),
(430,634,l),
(309,634,l)
);
},
{
closed = 1;
nodes = (
(119,59,l),
(240,59,l),
(240,-149,l),
(119,-149,l)
);
},
{
closed = 1;
nodes = (
(309,59,l),
(430,59,l),
(430,-149,l),
(309,-149,l)
);
}
);
width = 600;
}
);
metricWidth = space;
unicode = 8383;
},
{
glyphname = cent;
lastChange = "2023-12-27 13:46:37 +0000";
layers = (
{
layerId = "58E25AC2-F473-41C5-84EA-658E208701C1";
shapes = (
{
closed = 1;
nodes = (
(271,531,l),
(271,680,l),
(351,680,l),
(351,531,l),
(451,531,l),
(523,425,l),
(471,372,l),
(413,459,l),
(201,459,l),
(171,427,l),
(171,130,l),
(209,72,l),
(421,72,l),
(479,133,l),
(521,72,l),
(451,0,l),
(351,0,l),
(351,-145,l),
(271,-145,l),
(271,0,l),
(171,0,l),
(90,120,l),
(90,448,l),
(171,531,l)
);
}
);
width = 600;
},
{
layerId = m01;
shapes = (
{
closed = 1;
nodes = (
(251,553,l),
(251,730,l),
(372,730,l),
(372,553,l),
(461,553,l),
(544,430,l),
(466,350,l),
(406,437,l),
(213,437,l),
(191,414,l),
(191,149,l),
(223,103,l),
(415,103,l),
(483,173,l),
(542,86,l),
(459,0,l),
(372,0,l),
(372,-166,l),
(251,-166,l),
(251,0,l),
(158,0,l),
(70,131,l),
(70,461,l),
(159,553,l)
);
}
);
width = 600;
}
);
unicode = 162;
},
{
glyphname = currency;
lastChange = "2023-12-27 13:48:11 +0000";
layers = (
{
layerId = "58E25AC2-F473-41C5-84EA-658E208701C1";
shapes = (
{
closed = 1;
nodes = (
(511,499,l),
(439,427,l),
(460,406,l),
(460,274,l),
(439,251,l),
(511,181,l),
(460,130,l),
(388,200,l),
(367,179,l),
(233,179,l),
(212,200,l),
(140,130,l),
(89,181,l),
(161,251,l),
(140,274,l),
(140,406,l),
(161,427,l),
(89,499,l),
(140,550,l),
(212,478,l),
(233,499,l),
(367,499,l),
(388,478,l),
(460,550,l)
);
},
{
closed = 1;
nodes = (
(261,431,l),
(210,378,l),
(210,302,l),
(261,249,l),
(337,249,l),
(390,302,l),
(390,378,l),
(337,431,l)
);
}
);
width = 600;
},
{
layerId = m01;
shapes = (
{
closed = 1;
nodes = (
(539,498,l),
(467,427,l),
(480,414,l),
(480,266,l),
(467,251,l),
(539,181,l),
(460,102,l),
(388,172,l),
(376,159,l),
(224,159,l),
(212,172,l),
(140,102,l),
(61,181,l),
(133,251,l),
(120,266,l),
(120,414,l),
(133,427,l),
(61,498,l),
(140,578,l),
(212,506,l),
(224,519,l),
(376,519,l),
(388,506,l),
(460,578,l)
);
},
{
closed = 1;
nodes = (
(270,410,l),
(230,370,l),
(230,310,l),
(270,269,l),
(329,269,l),
(370,310,l),
(370,369,l),
(329,410,l)
);
}
);
width = 600;
}
);
unicode = 164;
},
{
glyphname = dollar;
lastChange = "2023-12-27 13:53:40 +0000";
layers = (
{
layerId = "58E25AC2-F473-41C5-84EA-658E208701C1";
shapes = (
{
closed = 1;
nodes = (
(441,93,l),
(441,274,l),
(411,316,l),
(159,316,l),
(79,436,l),
(79,613,l),
(159,697,l),
(260,697,l),
(260,797,l),
(342,797,l),
(342,697,l),
(441,697,l),
(494,615,l),
(443,564,l),
(402,624,l),
(189,624,l),
(159,593,l),
(159,446,l),
(198,388,l),
(450,388,l),
(521,282,l),
(521,73,l),
(451,0,l),
(342,0,l),
(342,-140,l),
(260,-140,l),
(260,0,l),
(122,0,l),
(79,62,l),
(129,114,l),
(160,72,l),
(417,72,l)
);
}
);
width = 600;
},
{
layerId = m01;
shapes = (
{
closed = 1;
nodes = (
(424,122,l),
(424,255,l),
(403,284,l),
(152,284,l),
(62,418,l),
(62,601,l),
(154,697,l),
(243,697,l),
(243,797,l),
(365,797,l),
(365,697,l),
(455,697,l),
(523,592,l),
(443,513,l),
(395,584,l),
(200,584,l),
(182,565,l),
(182,440,l),
(212,397,l),
(464,397,l),
(544,276,l),
(544,85,l),
(462,0,l),
(365,0,l),
(365,-140,l),
(243,-140,l),
(243,0,l),
(115,0,l),
(56,84,l),
(134,166,l),
(173,112,l),
(412,112,l)
);
}
);
width = 600;
}
);
unicode = 36;
},
{
glyphname = euro;
lastChange = "2023-12-27 13:59:40 +0000";
layers = (
{
layerId = "58E25AC2-F473-41C5-84EA-658E208701C1";
shapes = (
{
closed = 1;
nodes = (
(184,452,l),
(420,452,l),
(420,380,l),
(184,380,l),
(184,308,l),
(420,308,l),
(420,236,l),
(184,236,l),
(184,130,l),
(223,72,l),
(436,72,l),
(494,134,l),
(537,72,l),
(466,0,l),
(184,0,l),
(104,120,l),
(104,236,l),
(63,236,l),
(63,308,l),
(104,308,l),
(104,380,l),
(63,380,l),
(63,452,l),
(104,452,l),
(104,617,l),
(185,700,l),
(466,700,l),
(532,602,l),
(481,549,l),
(427,628,l),
(214,628,l),
(184,595,l)
);
}
);
width = 600;
},
{
layerId = m01;
shapes = (
{
closed = 1;
nodes = (
(201,467,l),
(420,467,l),
(420,374,l),
(201,374,l),
(201,322,l),
(420,322,l),
(420,229,l),
(201,229,l),
(201,156,l),
(230,113,l),
(424,113,l),
(493,187,l),
(560,90,l),
(471,0,l),
(171,0,l),
(80,134,l),
(80,229,l),
(40,229,l),
(40,322,l),
(80,322,l),
(80,374,l),
(40,374,l),
(40,467,l),
(80,467,l),
(80,608,l),
(173,703,l),
(473,703,l),
(555,583,l),
(475,500,l),
(414,590,l),
(220,590,l),
(201,570,l)
);
}
);
width = 600;
}
);
unicode = 8364;
},
{
glyphname = liraTurkish;
lastChange = "2023-12-30 22:25:03 +0000";
layers = (
{
layerId = "58E25AC2-F473-41C5-84EA-658E208701C1";
shapes = (
{
closed = 1;
nodes = (
(156,532,l),
(77,502,l),
(77,429,l),
(156,459,l),
(156,411,l),
(77,382,l),
(77,310,l),
(156,339,l),
(156,118,l),
(236,0,l),
(409,0,l),
(523,173,l),
(482,233,l),
(376,73,l),
(275,73,l),
(236,130,l),
(236,367,l),
(398,428,l),
(398,501,l),
(236,440,l),
(236,489,l),
(398,549,l),
(398,622,l),
(236,562,l),
(236,748,l),
(156,748,l)
);
}
);
width = 600;
},
{
layerId = m01;
shapes = (
{
closed = 1;
nodes = (
(141,545,l),
(61,515,l),
(61,409,l),
(141,439,l),
(141,391,l),
(63,361,l),
(63,255,l),
(141,285,l),
(141,132,l),
(231,0,l),
(424,0,l),
(539,172,l),
(475,265,l),
(374,113,l),
(290,113,l),
(262,156,l),
(262,319,l),
(421,383,l),
(421,490,l),
(262,426,l),
(262,475,l),
(424,539,l),
(424,645,l),
(262,582,l),
(262,748,l),
(141,748,l)
);
}
);
width = 600;
}
);
metricWidth = space;
unicode = 8378;
},
{
glyphname = sterling;
lastChange = "2023-12-27 13:59:47 +0000";
layers = (
{
layerId = "58E25AC2-F473-41C5-84EA-658E208701C1";
shapes = (
{
closed = 1;
nodes = (
(539,700,l),
(539,555,l),
(459,555,l),
(459,628,l),
(272,628,l),
(232,571,l),
(232,388,l),
(423,388,l),
(423,316,l),
(232,316,l),
(232,123,l),
(198,72,l),
(538,72,l),
(538,0,l),
(61,0,l),
(61,72,l),
(111,72,l),
(150,129,l),
(150,316,l),
(81,316,l),
(81,388,l),
(150,388,l),
(150,576,l),
(232,700,l)
);
}
);
width = 600;
},
{
layerId = m01;
shapes = (
{
closed = 1;
nodes = (
(559,740,l),
(559,555,l),
(439,555,l),
(439,627,l),
(282,627,l),
(252,584,l),
(252,429,l),
(443,429,l),
(443,317,l),
(252,317,l),
(252,137,l),
(236,113,l),
(558,113,l),
(558,0,l),
(41,0,l),
(41,113,l),
(101,113,l),
(130,155,l),
(130,317,l),
(61,317,l),
(61,429,l),
(130,429,l),
(130,602,l),
(222,740,l)
);
}
);
width = 600;
}
);
unicode = 163;
},
{
category = Symbol;
glyphname = kda;
lastChange = "2023-12-27 14:42:42 +0000";
layers = (
{
layerId = "58E25AC2-F473-41C5-84EA-658E208701C1";
shapes = (
{
closed = 1;
nodes = (
(465,0,o),
(600,134,o),
(600,300,cs),
(600,466,o),
(465,600,o),
(300,600,cs),
(134,600,o),
(0,466,o),
(0,300,cs),
(0,134,o),
(134,0,o),
(300,0,cs)
);
},
{
closed = 1;
nodes = (
(480,127,l),
(355,127,l),
(198,250,l),
(261,301,l)
);
},
{
closed = 1;
nodes = (
(261,301,l),
(198,351,l),
(354,473,l),
(480,473,l)
);
},
{
closed = 1;
nodes = (
(199,129,l),
(120,189,l),
(120,412,l),
(199,473,l)
);
}
);
width = 600;
},
{
layerId = m01;
shapes = (
{
closed = 1;
nodes = (
(465,0,o),
(600,134,o),
(600,300,cs),
(600,466,o),
(465,600,o),
(300,600,cs),
(134,600,o),
(0,466,o),
(0,300,cs),
(0,134,o),
(134,0,o),
(300,0,cs)
);
},
{
closed = 1;
nodes = (
(480,127,l),
(355,127,l),
(198,250,l),
(261,301,l)
);
},
{
closed = 1;
nodes = (
(261,301,l),
(198,351,l),
(354,473,l),
(480,473,l)
);
},
{
closed = 1;
nodes = (
(199,129,l),
(120,189,l),
(120,412,l),
(199,473,l)
);
}
);
width = 600;
}
);
subCategory = Currency;
unicode = 1048575;
},
{
glyphname = yen;
lastChange = "2023-12-27 14:01:30 +0000";
layers = (
{
layerId = "58E25AC2-F473-41C5-84EA-658E208701C1";
shapes = (
{
closed = 1;
nodes = (
(441,557,l),
(300,410,l),
(298,410,l),
(159,617,l),
(159,700,l),
(79,700,l),
(79,608,l),
(260,339,l),
(260,0,l),
(340,0,l),
(340,348,l),
(521,536,l),
(521,700,l),
(441,700,l)
);
},
{
closed = 1;
nodes = (
(109,337,l),
(109,265,l),
(481,265,l),
(481,337,l)
);
},
{
closed = 1;
nodes = (
(109,213,l),
(109,141,l),
(481,141,l),
(481,213,l)
);
}
);
width = 600;
},
{
layerId = m01;
shapes = (
{
closed = 1;
nodes = (
(421,545,l),
(303,421,l),
(301,421,l),
(179,602,l),
(179,700,l),
(59,700,l),
(59,582,l),
(240,313,l),
(240,0,l),
(360,0,l),
(360,319,l),
(541,507,l),
(541,700,l),
(421,700,l)
);
},
{
closed = 1;
nodes = (
(94,341,l),
(94,248,l),
(506,248,l),
(506,341,l)
);
},
{
closed = 1;
nodes = (
(94,196,l),
(94,103,l),
(506,103,l),
(506,196,l)
);
}
);
width = 600;
}
);
unicode = 165;
},
{
glyphname = plus;
lastChange = "2023-12-28 21:10:17 +0000";
layers = (
{
layerId = "58E25AC2-F473-41C5-84EA-658E208701C1";
shapes = (
{
closed = 1;
nodes = (
(336,493,l),
(336,336,l),
(493,336,l),
(493,264,l),
(336,264,l),
(336,108,l),
(264,108,l),
(264,264,l),
(107,264,l),
(107,336,l),
(264,336,l),
(264,493,l)
);
}
);
width = 600;
},
{
layerId = m01;
shapes = (
{
closed = 1;
nodes = (
(356,512,l),
(356,356,l),
(513,356,l),
(513,243,l),
(356,243,l),
(356,88,l),
(244,88,l),
(244,243,l),
(87,243,l),
(87,356,l),
(244,356,l),
(244,512,l)
);
}
);
width = 600;
}
);
unicode = 43;
},
{
glyphname = minus;
lastChange = "2023-12-28 21:10:49 +0000";
layers = (
{
layerId = "58E25AC2-F473-41C5-84EA-658E208701C1";
shapes = (
{
closed = 1;
nodes = (
(481,264,l),
(119,264,l),
(119,336,l),
(481,336,l)
);
}
);
width = 600;
},
{
layerId = m01;
shapes = (
{
closed = 1;
nodes = (
(501,244,l),
(99,244,l),
(99,356,l),
(501,356,l)
);
}
);
width = 600;
}
);
unicode = 8722;
},
{
glyphname = multiply;
lastChange = "2023-12-28 21:11:21 +0000";
layers = (
{
layerId = "58E25AC2-F473-41C5-84EA-658E208701C1";
shapes = (
{
closed = 1;
nodes = (
(462,410,l),
(351,300,l),
(462,189,l),
(411,138,l),
(300,249,l),
(190,139,l),
(138,190,l),
(249,300,l),
(138,411,l),
(189,462,l),
(300,352,l),
(411,462,l)
);
}
);
width = 600;
},
{
layerId = m01;
shapes = (
{
closed = 1;
nodes = (
(490,410,l),
(380,300,l),
(490,189,l),
(411,109,l),
(300,220,l),
(190,110,l),
(110,190,l),
(220,300,l),
(110,411,l),
(189,491,l),
(300,380,l),
(411,490,l)
);
}
);
width = 600;
}
);
unicode = 215;
},
{
glyphname = divide;
lastChange = "2023-12-28 21:07:27 +0000";
layers = (
{
layerId = "58E25AC2-F473-41C5-84EA-658E208701C1";
shapes = (
{
closed = 1;
nodes = (
(481,264,l),
(119,264,l),
(119,336,l),
(481,336,l)
);
},
{
closed = 1;
nodes = (
(320,507,l),
(348,480,l),
(348,439,l),
(320,412,l),
(281,412,l),
(254,439,l),
(254,480,l),
(281,507,l)
);
},
{
closed = 1;
nodes = (
(320,188,l),
(349,161,l),
(349,120,l),
(320,93,l),
(280,93,l),
(254,120,l),
(254,161,l),
(280,188,l)
);
}
);
width = 600;
},
{
layerId = m01;
shapes = (
{
closed = 1;
nodes = (
(501,246,l),
(99,246,l),
(99,359,l),
(501,359,l)
);
},
{
closed = 1;
nodes = (
(328,567,l),
(368,528,l),
(368,470,l),
(328,432,l),
(272,432,l),
(234,470,l),
(234,528,l),
(272,567,l)
);
},
{
closed = 1;
nodes = (
(328,168,l),
(368,130,l),
(368,72,l),
(328,34,l),
(272,34,l),
(234,72,l),
(234,130,l),
(272,168,l)
);
}
);
width = 600;
}
);
unicode = 247;
},
{
glyphname = equal;
lastChange = "2024-01-08 11:06:32 +0000";
layers = (
{
layerId = "58E25AC2-F473-41C5-84EA-658E208701C1";
shapes = (
{
closed = 1;
nodes = (
(114,351,l),
(486,351,l),
(486,423,l),
(114,423,l)
);
},
{
closed = 1;
nodes = (
(114,176,l),
(486,176,l),
(486,248,l),
(114,248,l)
);
}
);
width = 600;
},
{
layerId = m01;
shapes = (
{
closed = 1;
nodes = (
(74,351,l),
(526,351,l),
(526,464,l),
(74,464,l)
);
},
{
closed = 1;
nodes = (
(74,126,l),
(526,126,l),
(526,239,l),
(74,239,l)
);
}
);
width = 600;
}
);
unicode = 61;
},
{
glyphname = notequal;
lastChange = "2023-12-28 21:32:11 +0000";
layers = (
{
layerId = "58E25AC2-F473-41C5-84EA-658E208701C1";
shapes = (
{
closed = 1;
nodes = (
(390,569,l),
(145,61,l),
(210,31,l),
(454,538,l)
);
},
{
ref = equal;
}
);
width = 600;
},
{
layerId = m01;
shapes = (
{
closed = 1;
nodes = (
(394,622,l),
(105,27,l),
(206,-21,l),
(495,574,l)
);
},
{
ref = equal;
}
);
width = 600;
}
);
unicode = 8800;
},
{
glyphname = greater;
lastChange = "2023-12-28 22:08:18 +0000";
layers = (
{
layerId = "58E25AC2-F473-41C5-84EA-658E208701C1";
shapes = (
{
closed = 1;
nodes = (
(131,588,l),
(387,341,l),
(131,92,l),
(179,39,l),
(469,319,l),
(469,362,l),
(181,641,l)
);
}
);
width = 600;
},
{
layerId = m01;
shapes = (
{
closed = 1;
nodes = (
(106,587,l),
(363,341,l),
(107,92,l),
(183,11,l),
(494,311,l),
(494,371,l),
(185,669,l)
);
}
);
width = 600;
}
);
unicode = 62;
},
{
glyphname = greaterequal;
lastChange = "2023-12-28 22:08:40 +0000";
layers = (
{
layerId = "58E25AC2-F473-41C5-84EA-658E208701C1";
shapes = (
{
closed = 1;
nodes = (
(106,538,l),
(138,604,l),
(498,444,l),
(498,385,l),
(133,221,l),
(103,287,l),
(385,415,l)
);
},
{
closed = 1;
nodes = (
(498,80,l),
(103,80,l),
(103,155,l),
(498,159,l)
);
}
);
width = 600;
},
{
layerId = m01;
shapes = (
{
closed = 1;
nodes = (
(106,560,l),
(146,666,l),
(498,511,l),
(498,365,l),
(148,209,l),
(103,310,l),
(385,438,l)
);
},
{
closed = 1;
nodes = (
(498,40,l),
(103,40,l),
(103,161,l),
(498,165,l)
);
}
);
width = 600;
}
);
unicode = 8805;
},
{
glyphname = plusminus;
lastChange = "2023-12-28 22:09:02 +0000";
layers = (
{
layerId = "58E25AC2-F473-41C5-84EA-658E208701C1";
shapes = (
{
closed = 1;
nodes = (
(481,80,l),
(119,80,l),
(119,152,l),
(481,152,l)
);
},
{
closed = 1;
nodes = (
(336,577,l),
(336,420,l),
(493,420,l),
(493,348,l),
(336,348,l),
(336,192,l),
(264,192,l),
(264,348,l),
(107,348,l),
(107,420,l),
(264,420,l),
(264,577,l)
);
}
);
width = 600;
},
{
layerId = m01;
shapes = (
{
closed = 1;
nodes = (
(501,40,l),
(99,40,l),
(99,152,l),
(501,152,l)
);
},
{
closed = 1;
nodes = (
(356,635,l),
(356,479,l),
(513,479,l),
(513,366,l),
(356,366,l),
(356,211,l),
(244,211,l),
(244,366,l),
(87,366,l),
(87,479,l),
(244,479,l),
(244,635,l)
);
}
);
width = 600;
}
);
unicode = 177;
},
{
glyphname = approxequal;
lastChange = "2024-01-08 11:14:38 +0000";
layers = (
{
layerId = "58E25AC2-F473-41C5-84EA-658E208701C1";
shapes = (
{
closed = 1;
nodes = (
(387,433,l),
(203,483,l),
(94,417,l),
(131,354,l),
(215,406,l),
(397,354,l),
(506,420,l),
(469,483,l)
);
},
{
closed = 1;
nodes = (
(387,196,l),
(203,246,l),
(94,180,l),
(131,117,l),
(215,169,l),
(397,117,l),
(506,183,l),
(469,246,l)
);
}
);
width = 600;
},
{
layerId = m01;
shapes = (
{
closed = 1;
nodes = (
(384,455,l),
(200,504,l),
(66,424,l),
(124,327,l),
(218,384,l),
(400,333,l),
(534,413,l),
(476,510,l)
);
},
{
closed = 1;
nodes = (
(384,218,l),
(200,267,l),
(66,187,l),
(124,90,l),
(218,147,l),
(400,96,l),
(534,176,l),
(476,273,l)
);
}
);
width = 600;
}
);
unicode = 8776;
},
{
glyphname = asciitilde;
lastChange = "2023-12-28 20:51:48 +0000";
layers = (
{
layerId = "58E25AC2-F473-41C5-84EA-658E208701C1";
shapes = (
{
closed = 1;
nodes = (
(551,304,l),
(391,227,l),
(214,294,l),
(80,230,l),
(49,296,l),
(209,373,l),
(389,307,l),
(519,370,l)
);
}
);
width = 600;
},
{
layerId = m01;
shapes = (
{
closed = 1;
nodes = (
(564,300,l),
(391,216,l),
(215,284,l),
(76,216,l),
(36,301,l),
(209,384,l),
(388,318,l),
(524,384,l)
);
}
);
width = 600;
}
);
unicode = 126;
},
{
glyphname = logicalnot;
lastChange = "2023-12-28 22:09:23 +0000";
layers = (
{
layerId = "58E25AC2-F473-41C5-84EA-658E208701C1";
shapes = (
{
closed = 1;
nodes = (
(496,110,l),
(416,110,l),
(416,293,l),
(104,293,l),
(104,366,l),
(496,366,l)
);
}
);
width = 600;
},
{
layerId = m01;
shapes = (
{
closed = 1;
nodes = (
(521,90,l),
(400,90,l),
(400,273,l),
(79,273,l),
(79,386,l),
(521,386,l)
);
}
);
width = 600;
}
);
unicode = 172;
},
{
color = 4;
glyphname = asciicircum;
lastChange = "2024-01-08 11:51:42 +0000";
layers = (
{
layerId = "58E25AC2-F473-41C5-84EA-658E208701C1";
shapes = (
{
closed = 1;
nodes = (
(135,448,l),
(69,480,l),
(269,840,l),
(328,840,l),
(532,475,l),
(466,445,l),
(298,727,l)
);
}
);
width = 600;
},
{
layerId = m01;
shapes = (
{
closed = 1;
nodes = (
(137,448,l),
(31,499,l),
(228,840,l),
(370,840,l),
(573,495,l),
(467,445,l),
(299,727,l)
);
}
);
width = 600;
}
);
metricWidth = space;
unicode = 94;
},
{
glyphname = infinity;
lastChange = "2023-12-30 21:26:21 +0000";
layers = (
{
layerId = "58E25AC2-F473-41C5-84EA-658E208701C1";
shapes = (
{
closed = 1;
nodes = (
(570,278,l),
(488,223,l),
(382,223,l),
(310,292,l),
(208,223,l),
(122,223,l),
(30,311,l),
(30,500,l),
(122,563,l),
(218,563,l),
(290,500,l),
(382,563,l),
(450,563,l),
(570,448,l)
);
},
{
closed = 1;
nodes = (
(346,472,l),
(346,337,l),
(397,285,l),
(479,285,l),
(515,308,l),
(515,424,l),
(435,500,l),
(390,500,l)
);
},
{
closed = 1;
nodes = (
(85,472,l),
(85,337,l),
(137,285,l),
(199,285,l),
(290,346,l),
(290,417,l),
(201,500,l),
(130,500,l)
);
}
);
width = 600;
},
{
layerId = m01;
shapes = (
{
closed = 1;
nodes = (
(580,249,l),
(487,186,l),
(377,186,l),
(308,251,l),
(211,186,l),
(123,186,l),
(20,283,l),
(20,500,l),
(113,561,l),
(223,561,l),
(288,500,l),
(378,561,l),
(450,561,l),
(580,436,l)
);
},
{
closed = 1;
nodes = (
(363,445,l),
(363,323,l),
(405,280,l),
(469,280,l),
(492,296,l),
(492,399,l),
(422,467,l),
(396,467,l)
);
},
{
closed = 1;
nodes = (
(108,445,l),
(108,323,l),
(150,280,l),
(195,280,l),
(275,334,l),
(275,390,l),
(195,467,l),
(141,467,l)
);
}
);
width = 600;
}
);
metricWidth = space;
unicode = 8734;
},
{
glyphname = integral;
lastChange = "2023-12-30 16:18:22 +0000";
layers = (
{
layerId = "58E25AC2-F473-41C5-84EA-658E208701C1";
shapes = (
{
closed = 1;
nodes = (
(404,903,l),
(306,801,l),
(215,-140,l),
(167,-190,l),
(83,-190,l),
(63,-262,l),
(196,-262,l),
(294,-160,l),
(385,781,l),
(433,831,l),
(517,831,l),
(537,903,l)
);
}
);
width = 600;
},
{
layerId = m01;
shapes = (
{
closed = 1;
nodes = (
(428,905,l),
(291,763,l),
(202,-112,l),
(135,-182,l),
(68,-182,l),
(40,-282,l),
(175,-282,l),
(312,-140,l),
(401,735,l),
(468,805,l),
(555,805,l),
(583,905,l)
);
}
);
width = 600;
}
);
metricWidth = space;
unicode = 8747;
},
{
glyphname = product;
lastChange = "2023-12-28 22:13:49 +0000";
layers = (
{
layerId = "58E25AC2-F473-41C5-84EA-658E208701C1";
shapes = (
{
closed = 1;
nodes = (
(531,673,l),
(436,673,l),
(436,-40,l),
(371,-49,l),
(371,673,l),
(231,673,l),
(231,-40,l),
(167,-49,l),
(167,673,l),
(70,673,l),
(70,730,l),
(531,730,l)
);
}
);
width = 600;
},
{
layerId = m01;
shapes = (
{
closed = 1;
nodes = (
(574,627,l),
(489,627,l),
(489,-60,l),
(384,-74,l),
(384,627,l),
(217,627,l),
(217,-60,l),
(113,-74,l),
(113,627,l),
(26,627,l),
(26,740,l),
(574,740,l)
);
}
);
width = 600;
}
);
unicode = 8719;
},
{
glyphname = summation;
lastChange = "2023-12-28 22:11:37 +0000";
layers = (
{
layerId = "58E25AC2-F473-41C5-84EA-658E208701C1";
shapes = (
{
closed = 1;
nodes = (
(516,658,l),
(161,658,l),
(400,347,l),
(400,278,l),
(161,0,l),
(516,0,l),
(516,-72,l),
(84,-72,l),
(84,0,l),
(343,310,l),
(84,655,l),
(84,730,l),
(516,730,l)
);
}
);
width = 600;
},
{
layerId = m01;
shapes = (
{
closed = 1;
nodes = (
(536,644,l),
(198,644,l),
(420,381,l),
(420,299,l),
(199,0,l),
(536,0,l),
(536,-113,l),
(64,-113,l),
(64,-13,l),
(320,338,l),
(64,656,l),
(64,757,l),
(536,757,l)
);
}
);
width = 600;
}
);
unicode = 8721;
},
{
glyphname = radical;
lastChange = "2023-12-30 21:41:24 +0000";
layers = (
{
layerId = "58E25AC2-F473-41C5-84EA-658E208701C1";
shapes = (
{
closed = 1;
nodes = (
(522,853,l),
(312,72,l),
(299,72,l),
(165,392,l),
(95,352,l),
(242,0,l),
(375,0,l),
(585,781,l),
(705,781,l),
(705,853,l)
);
}
);
width = 600;
},
{
layerId = m01;
shapes = (
{
closed = 1;
nodes = (
(501,853,l),
(318,173,l),
(303,173,l),
(197,430,l),
(108,383,l),
(267,0,l),
(375,0,l),
(574,740,l),
(705,740,l),
(705,853,l)
);
}
);
width = 600;
}
);
metricWidth = space;
unicode = 8730;
},
{
glyphname = partialdiff;
lastChange = "2023-12-30 22:00:38 +0000";
layers = (
{
layerId = "58E25AC2-F473-41C5-84EA-658E208701C1";
shapes = (
{
closed = 1;
nodes = (
(312,687,l),
(369,644,l),
(477,531,l),
(534,324,l),
(534,216,l),
(474,33,l),
(306,-40,l),
(137,33,l),
(66,222,l),
(137,412,l),
(305,475,l),
(441,394,l),
(413,495,l),
(320,593,l),
(259,631,l),
(145,671,l),
(168,737,l)
);
},
{
closed = 1;
nodes = (
(306,36,l),
(416,85,l),
(463,228,l),
(463,299,l),
(298,398,l),
(192,358,l),
(142,222,l),
(192,85,l)
);
}
);
width = 600;
},
{
layerId = m01;
shapes = (
{
closed = 1;
nodes = (
(283,684,l),
(383,614,l),
(483,510,l),
(536,307,l),
(536,205,l),
(472,13,l),
(304,-60,l),
(134,13,l),
(64,202,l),
(135,392,l),
(302,458,l),
(397,413,l),
(386,462,l),
(310,536,l),
(203,598,l),
(110,627,l),
(145,731,l)
);
},
{
closed = 1;
nodes = (
(304,60,l),
(380,97,l),
(423,225,l),
(415,296,l),
(298,351,l),
(229,324,l),
(178,202,l),
(222,97,l)
);
}
);
width = 600;
}
);
metricWidth = space;
unicode = 8706;
},
{
glyphname = percent;
lastChange = "2023-12-30 12:21:16 +0000";
layers = (
{
layerId = "58E25AC2-F473-41C5-84EA-658E208701C1";
shapes = (
{
closed = 1;
nodes = (
(154,700,l),
(202,653,l),
(202,585,l),
(154,539,l),
(86,539,l),
(41,585,l),
(41,653,l),
(86,700,l)
);
},
{
closed = 1;
nodes = (
(600,668,l),
(60,-17,l),
(0,31,l),
(534,716,l)
);
},
{
closed = 1;
nodes = (
(512,160,l),
(559,113,l),
(559,47,l),
(512,0,l),
(445,0,l),
(399,46,l),
(399,114,l),
(445,160,l)
);
}
);
width = 600;
},
{
layerId = m01;
shapes = (
{
closed = 1;
nodes = (
(181,700,l),
(241,641,l),
(241,557,l),
(181,500,l),
(98,500,l),
(41,557,l),
(41,641,l),
(98,700,l)
);
},
{
closed = 1;
nodes = (
(600,630,l),
(97,-17,l),
(0,60,l),
(502,700,l)
);
},
{
closed = 1;
nodes = (
(500,201,l),
(559,143,l),
(559,58,l),
(500,0,l),
(416,0,l),
(358,58,l),
(358,143,l),
(416,201,l)
);
}
);
width = 600;
}
);
unicode = 37;
},
{
glyphname = perthousand;
lastChange = "2023-12-30 12:29:48 +0000";
layers = (
{
layerId = "58E25AC2-F473-41C5-84EA-658E208701C1";
shapes = (
{
closed = 1;
nodes = (
(154,700,l),
(202,653,l),
(202,585,l),
(154,539,l),
(86,539,l),
(41,585,l),
(41,653,l),
(86,700,l)
);
},
{
closed = 1;
nodes = (
(600,468,l),
(26,236,l),
(0,304,l),
(572,533,l)
);
},
{
closed = 1;
nodes = (
(512,160,l),
(559,113,l),
(559,47,l),
(512,0,l),
(445,0,l),
(399,46,l),
(399,114,l),
(445,160,l)
);
},
{
closed = 1;
nodes = (
(261,160,l),
(308,113,l),
(308,47,l),
(261,0,l),
(194,0,l),
(148,46,l),
(148,114,l),
(194,160,l)
);
}
);
width = 600;
},
{
layerId = m01;
shapes = (
{
closed = 1;
nodes = (
(181,700,l),
(241,641,l),
(241,557,l),
(181,500,l),
(98,500,l),
(41,557,l),
(41,641,l),
(98,700,l)
);
},
{
closed = 1;
nodes = (
(600,441,l),
(45,219,l),
(0,334,l),
(550,550,l)
);
},
{
closed = 1;
nodes = (
(500,200,l),
(559,142,l),
(559,58,l),
(500,0,l),
(417,0,l),
(359,58,l),
(359,142,l),
(417,200,l)
);
},
{
closed = 1;
nodes = (
(249,200,l),
(308,142,l),
(308,58,l),
(249,0,l),
(166,0,l),
(108,58,l),
(108,142,l),
(166,200,l)
);
}
);
width = 600;
}
);
unicode = 8240;
},
{
glyphname = universal;
lastChange = "2023-12-30 16:07:41 +0000";
layers = (
{
layerId = "58E25AC2-F473-41C5-84EA-658E208701C1";
shapes = (
{
closed = 1;
nodes = (
(79,700,l),
(159,700,l),
(159,363,l),
(441,363,l),
(441,700,l),
(521,700,l),
(521,0,l),
(242,0,l),
(79,168,l)
);
},
{
closed = 1;
nodes = (
(270,72,l),
(441,72,l),
(441,290,l),
(159,290,l),
(159,188,l)
);
}
);
width = 600;
},
{
layerId = m01;
shapes = (
{
closed = 1;
nodes = (
(79,700,l),
(199,700,l),
(199,403,l),
(401,403,l),
(401,700,l),
(521,700,l),
(521,0,l),
(253,0,l),
(79,181,l)
);
},
{
closed = 1;
nodes = (
(299,113,l),
(401,113,l),
(401,290,l),
(199,290,l),
(199,216,l)
);
}
);
width = 600;
}
);
metricWidth = space;
unicode = 8704;
},
{
glyphname = rightArrow;
lastChange = "2023-12-29 02:51:52 +0000";
layers = (
{
layerId = "58E25AC2-F473-41C5-84EA-658E208701C1";
shapes = (
{
closed = 1;
nodes = (
(262,588,l),
(518,341,l),
(262,92,l),
(310,39,l),
(600,319,l),
(600,362,l),
(312,641,l)
);
},
{
closed = 1;
nodes = (
(548,376,l),
(20,376,l),
(20,304,l),
(548,304,l)
);
}
);
width = 600;
},
{
layerId = m01;
shapes = (
{
closed = 1;
nodes = (
(212,587,l),
(469,341,l),
(213,92,l),
(289,11,l),
(600,311,l),
(600,371,l),
(291,669,l)
);
},
{
closed = 1;
nodes = (
(513,396,l),
(20,396,l),
(20,284,l),
(513,284,l)
);
}
);
width = 600;
}
);
unicode = 8594;
},
{
glyphname = leftRightArrow;
lastChange = "2023-12-29 03:07:06 +0000";
layers = (
{
layerId = "58E25AC2-F473-41C5-84EA-658E208701C1";
shapes = (
{
closed = 1;
nodes = (
(11,348,l),
(11,305,l),
(169,153,l),
(217,206,l),
(93,327,l),
(217,447,l),
(167,500,l)
);
},
{
closed = 1;
nodes = (
(542,290,l),
(542,362,l),
(63,362,l),
(63,290,l)
);
},
{
closed = 1;
nodes = (
(590,307,l),
(590,350,l),
(434,500,l),
(386,447,l),
(508,328,l),
(386,210,l),
(436,157,l)
);
}
);
width = 600;
},
{
layerId = m01;
shapes = (
{
closed = 1;
nodes = (
(-30,352,l),
(-30,292,l),
(143,126,l),
(219,207,l),
(101,322,l),
(219,434,l),
(140,516,l)
);
},
{
closed = 1;
nodes = (
(579,265,l),
(579,377,l),
(27,377,l),
(27,265,l)
);
},
{
closed = 1;
nodes = (
(630,295,l),
(630,355,l),
(464,516,l),
(388,435,l),
(499,325,l),
(385,216,l),
(464,134,l)
);
}
);
width = 600;
}
);
unicode = 8596;
},
{
glyphname = upDownArrow;
lastChange = "2023-12-29 03:08:00 +0000";
layers = (
{
layerId = "58E25AC2-F473-41C5-84EA-658E208701C1";
shapes = (
{
closed = 1;
nodes = (
(278,10,l),
(321,10,l),
(473,168,l),
(420,216,l),
(299,92,l),
(179,216,l),
(126,166,l)
);
},
{
closed = 1;
nodes = (
(336,541,l),
(264,541,l),
(264,62,l),
(336,62,l)
);
},
{
closed = 1;
nodes = (
(319,589,l),
(276,589,l),
(126,433,l),
(179,385,l),
(298,507,l),
(416,385,l),
(469,435,l)
);
}
);
width = 600;
},
{
layerId = m01;
shapes = (
{
closed = 1;
nodes = (
(269,-30,l),
(329,-30,l),
(495,143,l),
(414,219,l),
(299,101,l),
(187,219,l),
(105,140,l)
);
},
{
closed = 1;
nodes = (
(356,579,l),
(244,579,l),
(244,27,l),
(356,27,l)
);
},
{
closed = 1;
nodes = (
(326,630,l),
(266,630,l),
(105,464,l),
(186,388,l),
(296,499,l),
(405,385,l),
(487,464,l)
);
}
);
width = 600;
}
);
unicode = 8597;
},
{
glyphname = dottedCircle;
lastChange = "2023-12-31 16:32:42 +0000";
layers = (
{
anchors = (
{
name = bottom;
pos = (302,-220);
},
{
name = top;
pos = (300,913);
}
);
layerId = "58E25AC2-F473-41C5-84EA-658E208701C1";
shapes = (
{
closed = 1;
nodes = (
(348,733,l),
(333,734,o),
(316,735,o),
(300,735,c),
(298,735,l),
(298,770,l),
(300,770,l),
(317,770,o),
(335,769,o),
(352,768,c)
);
},
{
closed = 1;
nodes = (
(190,756,l),
(207,761,o),
(225,765,o),
(243,766,c),
(249,733,l),
(232,730,o),
(215,727,o),
(198,721,c)
);
},
{
closed = 1;
nodes = (
(446,707,l),
(431,713,o),
(414,719,o),
(398,723,c),
(407,756,l),
(425,752,o),
(442,747,o),
(459,740,c)
);
},
{
closed = 1;
nodes = (
(89,713,l),
(104,723,o),
(121,731,o),
(138,738,c),
(151,706,l),
(135,699,o),
(121,692,o),
(106,684,c)
);
},
{
closed = 1;
nodes = (
(533,657,l),
(520,667,o),
(505,677,o),
(491,685,c),
(509,716,l),
(524,706,o),
(540,696,o),
(554,685,c)
);
},
{
closed = 1;
nodes = (
(2,646,l),
(15,660,o),
(29,671,o),
(43,682,c),
(64,656,l),
(51,644,o),
(39,633,o),
(27,622,c)
);
},
{
closed = 1;
nodes = (
(604,587,l),
(594,600,o),
(583,612,o),
(571,625,c),
(596,649,l),
(608,636,o),
(621,622,o),
(632,608,c)
);
},
{
closed = 1;
nodes = (
(-65,559,l),
(-55,574,o),
(-45,590,o),
(-34,605,c),
(-6,584,l),
(-16,570,o),
(-26,556,o),
(-34,542,c)
);
},
{
closed = 1;
nodes = (
(655,500,l),
(649,516,o),
(641,531,o),
(632,545,c),
(663,563,l),
(673,546,o),
(680,531,o),
(688,514,c)
);
},
{
closed = 1;
nodes = (
(-106,458,l),
(-101,475,o),
(-96,493,o),
(-89,510,c),
(-57,496,l),
(-62,481,o),
(-68,465,o),
(-72,448,c)
);
},
{
closed = 1;
nodes = (
(681,404,l),
(680,420,o),
(676,436,o),
(671,453,c),
(705,462,l),
(711,444,o),
(713,426,o),
(716,408,c)
);
},
{
closed = 1;
nodes = (
(-85,349,l),
(-120,349,l),
(-120,350,l),
(-120,369,o),
(-120,387,o),
(-117,404,c),
(-82,399,l),
(-83,383,o),
(-85,367,o),
(-85,350,c)
);
},
{
closed = 1;
nodes = (
(683,300,l),
(684,317,o),
(685,334,o),
(685,350,c),
(685,353,l),
(720,353,l),
(720,350,l),
(720,332,o),
(719,314,o),
(716,296,c)
);
},
{
closed = 1;
nodes = (
(-106,240,l),
(-110,258,o),
(-114,276,o),
(-117,294,c),
(-82,299,l),
(-79,282,o),
(-76,265,o),
(-72,250,c)
);
},
{
closed = 1;
nodes = (
(656,203,l),
(663,219,o),
(669,234,o),
(673,251,c),
(706,241,l),
(702,224,o),
(695,206,o),
(688,189,c)
);
},
{
closed = 1;
nodes = (
(-64,139,l),
(-72,154,o),
(-80,171,o),
(-87,188,c),
(-55,202,l),
(-48,187,o),
(-41,171,o),
(-33,157,c)
);
},
{
closed = 1;
nodes = (
(606,117,l),
(615,129,o),
(625,143,o),
(634,159,c),
(664,140,l),
(655,125,o),
(645,110,o),
(634,94,c)
);
},
{
closed = 1;
nodes = (
(4,52,l),
(-9,65,o),
(-22,79,o),
(-33,94,c),
(-5,115,l),
(5,103,o),
(16,89,o),
(29,77,c)
);
},
{
closed = 1;
nodes = (
(534,45,l),
(548,55,o),
(561,66,o),
(572,79,c),
(597,54,l),
(585,41,o),
(571,28,o),
(557,17,c)
);
},
{
closed = 1;
nodes = (
(90,-14,l),
(75,-5,o),
(60,6,o),
(46,16,c),
(67,44,l),
(79,34,o),
(93,24,o),
(109,16,c)
);
},
{
closed = 1;
nodes = (
(447,-5,l),
(463,0,o),
(478,9,o),
(494,17,c),
(510,-14,l),
(495,-22,o),
(478,-30,o),
(461,-37,c)
);
},
{
closed = 1;
nodes = (
(193,-56,l),
(174,-51,o),
(158,-46,o),
(139,-39,c),
(153,-5,l),
(169,-12,o),
(186,-18,o),
(201,-22,c)
);
},
{
closed = 1;
nodes = (
(351,-32,l),
(368,-29,o),
(384,-26,o),
(400,-22,c),
(410,-56,l),
(391,-60,o),
(373,-64,o),
(355,-67,c)
);
},
{
closed = 1;
nodes = (
(281,-70,o),
(264,-68,o),
(246,-67,c),
(250,-32,l),
(267,-33,o),
(284,-35,o),
(300,-35,c),
(300,-70,l)
);
}
);
width = 600;
},
{
anchors = (
{
name = bottom;
pos = (302,-220);
},
{
name = top;
pos = (300,913);
}
);
layerId = m01;
shapes = (
{
closed = 1;
nodes = (
(348,732,l),
(333,734,o),
(316,735,o),
(300,735,c),
(298,735,l),
(298,770,l),
(300,770,l),
(318,770,o),
(335,769,o),
(353,767,c)
);
},
{
closed = 1;
nodes = (
(190,755,l),
(207,760,o),
(225,764,o),
(243,766,c),
(248,731,l),
(231,729,o),
(215,726,o),
(199,721,c)
);
},
{
closed = 1;
nodes = (
(446,706,l),
(430,713,o),
(414,718,o),
(398,722,c),
(407,756,l),
(424,752,o),
(442,746,o),
(459,739,c)
);
},
{
closed = 1;
nodes = (
(89,713,l),
(104,722,o),
(121,730,o),
(138,737,c),
(151,705,l),
(136,698,o),
(121,691,o),
(106,682,c)
);
},
{
closed = 1;
nodes = (
(533,657,l),
(519,667,o),
(505,676,o),
(491,684,c),
(508,715,l),
(524,706,o),
(539,696,o),
(554,684,c)
);
},
{
closed = 1;
nodes = (
(2,646,l),
(15,659,o),
(29,671,o),
(43,682,c),
(65,654,l),
(51,644,o),
(39,633,o),
(27,621,c)
);
},
{
closed = 1;
nodes = (
(604,586,l),
(594,599,o),
(583,612,o),
(571,624,c),
(595,648,l),
(608,636,o),
(621,622,o),
(632,607,c)
);
},
{
closed = 1;
nodes = (
(-64,559,l),
(-55,574,o),
(-45,590,o),
(-34,604,c),
(-6,583,l),
(-16,570,o),
(-26,556,o),
(-34,541,c)
);
},
{
closed = 1;
nodes = (
(655,499,l),
(648,515,o),
(641,530,o),
(632,544,c),
(663,562,l),
(672,546,o),
(680,530,o),
(687,513,c)
);
},
{
closed = 1;
nodes = (
(-106,457,l),
(-101,475,o),
(-96,492,o),
(-89,509,c),
(-56,496,l),
(-62,480,o),
(-68,464,o),
(-72,448,c)
);
},
{
closed = 1;
nodes = (
(681,403,l),
(679,419,o),
(676,436,o),
(671,452,c),
(705,461,l),
(710,444,o),
(714,425,o),
(716,407,c)
);
},
{
closed = 1;
nodes = (
(-85,349,l),
(-120,349,l),
(-120,350,l),
(-120,368,o),
(-119,386,o),
(-117,403,c),
(-82,399,l),
(-84,383,o),
(-85,366,o),
(-85,350,c)
);
},
{
closed = 1;
nodes = (
(682,300,l),
(684,316,o),
(685,333,o),
(685,350,c),
(685,352,l),
(720,353,l),
(720,350,l),
(720,332,o),
(719,313,o),
(717,295,c)
);
},
{
closed = 1;
nodes = (
(-105,240,l),
(-110,257,o),
(-114,276,o),
(-116,294,c),
(-81,298,l),
(-79,282,o),
(-76,265,o),
(-71,249,c)
);
},
{
closed = 1;
nodes = (
(656,203,l),
(662,218,o),
(668,234,o),
(672,250,c),
(706,241,l),
(701,224,o),
(695,206,o),
(688,189,c)
);
},
{
closed = 1;
nodes = (
(-63,139,l),
(-72,155,o),
(-81,171,o),
(-88,188,c),
(-55,201,l),
(-49,186,o),
(-41,171,o),
(-33,156,c)
);
},
{
closed = 1;
nodes = (
(606,116,l),
(616,129,o),
(625,143,o),
(634,158,c),
(664,140,l),
(655,124,o),
(645,109,o),
(633,94,c)
);
},
{
closed = 1;
nodes = (
(4,52,l),
(-9,65,o),
(-21,79,o),
(-32,93,c),
(-5,115,l),
(6,102,o),
(17,89,o),
(29,77,c)
);
},
{
closed = 1;
nodes = (
(535,45,l),
(548,55,o),
(561,66,o),
(572,78,c),
(597,53,l),
(584,40,o),
(571,28,o),
(556,17,c)
);
},
{
closed = 1;
nodes = (
(91,-14,l),
(75,-5,o),
(60,5,o),
(45,16,c),
(66,44,l),
(80,34,o),
(94,24,o),
(108,16,c)
);
},
{
closed = 1;
nodes = (
(448,-6,l),
(463,1,o),
(478,8,o),
(493,17,c),
(511,-14,l),
(495,-23,o),
(478,-31,o),
(461,-38,c)
);
},
{
closed = 1;
nodes = (
(192,-56,l),
(175,-51,o),
(157,-46,o),
(140,-39,c),
(154,-6,l),
(169,-13,o),
(185,-18,o),
(201,-22,c)
);
},
{
closed = 1;
nodes = (
(351,-32,l),
(368,-30,o),
(384,-26,o),
(400,-22,c),
(409,-56,l),
(392,-61,o),
(374,-64,o),
(356,-67,c)
);
},
{
closed = 1;
nodes = (
(282,-70,o),
(264,-69,o),
(246,-67,c),
(251,-32,l),
(267,-34,o),
(284,-35,o),
(300,-35,c),
(301,-70,l)
);
}
);
width = 600;
}
);
metricWidth = space;
unicode = 9676;
},
{
glyphname = lozenge;
lastChange = "2023-12-29 00:46:11 +0000";
layers = (
{
layerId = "58E25AC2-F473-41C5-84EA-658E208701C1";
shapes = (
{
closed = 1;
nodes = (
(526,346,l),
(338,0,l),
(259,0,l),
(74,345,l),
(259,691,l),
(338,691,l)
);
},
{
closed = 1;
nodes = (
(298,642,l),
(144,344,l),
(298,49,l),
(302,49,l),
(456,344,l),
(302,642,l)
);
}
);
width = 600;
},
{
layerId = m01;
shapes = (
{
closed = 1;
nodes = (
(549,367,l),
(350,0,l),
(247,0,l),
(51,365,l),
(247,732,l),
(350,732,l)
);
},
{
closed = 1;
nodes = (
(298,614,l),
(166,365,l),
(298,114,l),
(302,114,l),
(434,365,l),
(302,614,l)
);
}
);
width = 600;
}
);
unicode = 9674;
},
{
glyphname = uni2500;
lastChange = "2023-12-30 21:11:03 +0000";
layers = (
{
layerId = "58E25AC2-F473-41C5-84EA-658E208701C1";
shapes = (
{
closed = 1;
nodes = (
(-5,390,l),
(-5,310,l),
(605,310,l),
(605,390,l)
);
}
);
userData = {
assembly = "PUSHB[ ]	/* 4 values pushed */
2 0 1 48 
CALL[ ]	/* CallFunction */";
};
width = 600;
},
{
layerId = m01;
shapes = (
{
closed = 1;
nodes = (
(-5,390,l),
(-5,310,l),
(605,310,l),
(605,390,l)
);
}
);
width = 600;
}
);
note = uni2500;
unicode = 9472;
},
{
glyphname = uni2502;
lastChange = "2023-12-30 21:11:13 +0000";
layers = (
{
layerId = "58E25AC2-F473-41C5-84EA-658E208701C1";
shapes = (
{
closed = 1;
nodes = (
(260,1000,l),
(260,-500,l),
(340,-500,l),
(340,1000,l)
);
}
);
userData = {
assembly = "PUSHB[ ]	/* 4 values pushed */
2 0 1 48 
CALL[ ]	/* CallFunction */";
};
width = 600;
},
{
layerId = m01;
shapes = (
{
closed = 1;
nodes = (
(260,1000,l),
(260,-500,l),
(340,-500,l),
(340,1000,l)
);
}
);
width = 600;
}
);
note = uni2502;
unicode = 9474;
},
{
glyphname = uni250C;
lastChange = "2023-12-30 21:11:25 +0000";
layers = (
{
layerId = "58E25AC2-F473-41C5-84EA-658E208701C1";
shapes = (
{
closed = 1;
nodes = (
(260,390,l),
(260,-500,l),
(340,-500,l),
(340,310,l),
(605,310,l),
(605,390,l)
);
}
);
userData = {
assembly = "PUSHB[ ]	/* 4 values pushed */
4 2 1 48 
CALL[ ]	/* CallFunction */";
};
width = 600;
},
{
layerId = m01;
shapes = (
{
closed = 1;
nodes = (
(260,390,l),
(260,-500,l),
(340,-500,l),
(340,310,l),
(605,310,l),
(605,390,l)
);
}
);
width = 600;
}
);
note = uni250C;
unicode = 9484;
},
{
glyphname = uni2510;
lastChange = "2023-12-30 21:12:03 +0000";
layers = (
{
layerId = "58E25AC2-F473-41C5-84EA-658E208701C1";
shapes = (
{
closed = 1;
nodes = (
(-5,390,l),
(-5,310,l),
(260,310,l),
(260,-500,l),
(340,-500,l),
(340,390,l)
);
}
);
userData = {
assembly = "PUSHB[ ]	/* 4 values pushed */
4 0 1 48 
CALL[ ]	/* CallFunction */";
};
width = 600;
},
{
layerId = m01;
shapes = (
{
closed = 1;
nodes = (
(-5,390,l),
(-5,310,l),
(260,310,l),
(260,-500,l),
(340,-500,l),
(340,390,l)
);
}
);
width = 600;
}
);
note = uni2510;
unicode = 9488;
},
{
glyphname = uni2514;
lastChange = "2023-12-30 21:12:08 +0000";
layers = (
{
layerId = "58E25AC2-F473-41C5-84EA-658E208701C1";
shapes = (
{
closed = 1;
nodes = (
(260,1000,l),
(260,310,l),
(605,310,l),
(605,390,l),
(340,390,l),
(340,1000,l)
);
}
);
userData = {
assembly = "PUSHB[ ]	/* 4 values pushed */
4 2 1 48 
CALL[ ]	/* CallFunction */";
};
width = 600;
},
{
layerId = m01;
shapes = (
{
closed = 1;
nodes = (
(260,1000,l),
(260,310,l),
(605,310,l),
(605,390,l),
(340,390,l),
(340,1000,l)
);
}
);
width = 600;
}
);
note = uni2514;
unicode = 9492;
},
{
glyphname = uni2518;
lastChange = "2023-12-30 21:12:11 +0000";
layers = (
{
layerId = "58E25AC2-F473-41C5-84EA-658E208701C1";
shapes = (
{
closed = 1;
nodes = (
(260,1000,l),
(260,390,l),
(-5,390,l),
(-5,310,l),
(340,310,l),
(340,1000,l)
);
}
);
userData = {
assembly = "PUSHB[ ]	/* 4 values pushed */
4 0 1 48 
CALL[ ]	/* CallFunction */";
};
width = 600;
},
{
layerId = m01;
shapes = (
{
closed = 1;
nodes = (
(260,1000,l),
(260,390,l),
(-5,390,l),
(-5,310,l),
(340,310,l),
(340,1000,l)
);
}
);
width = 600;
}
);
note = uni2518;
unicode = 9496;
},
{
glyphname = uni251C;
lastChange = "2023-12-30 21:12:14 +0000";
layers = (
{
layerId = "58E25AC2-F473-41C5-84EA-658E208701C1";
shapes = (
{
closed = 1;
nodes = (
(260,1000,l),
(260,-500,l),
(340,-500,l),
(340,310,l),
(605,310,l),
(605,390,l),
(340,390,l),
(340,1000,l)
);
}
);
userData = {
assembly = "PUSHB[ ]	/* 4 values pushed */
6 4 1 48 
CALL[ ]	/* CallFunction */";
};
width = 600;
},
{
layerId = m01;
shapes = (
{
closed = 1;
nodes = (
(260,1000,l),
(260,-500,l),
(340,-500,l),
(340,310,l),
(605,310,l),
(605,390,l),
(340,390,l),
(340,1000,l)
);
}
);
width = 600;
}
);
note = uni251C;
unicode = 9500;
},
{
glyphname = uni2524;
lastChange = "2023-12-30 21:12:17 +0000";
layers = (
{
layerId = "58E25AC2-F473-41C5-84EA-658E208701C1";
shapes = (
{
closed = 1;
nodes = (
(260,1000,l),
(260,390,l),
(-5,390,l),
(-5,310,l),
(260,310,l),
(260,-500,l),
(340,-500,l),
(340,1000,l)
);
}
);
userData = {
assembly = "PUSHB[ ]	/* 4 values pushed */
6 0 1 48 
CALL[ ]	/* CallFunction */";
};
width = 600;
},
{
layerId = m01;
shapes = (
{
closed = 1;
nodes = (
(260,1000,l),
(260,390,l),
(-5,390,l),
(-5,310,l),
(260,310,l),
(260,-500,l),
(340,-500,l),
(340,1000,l)
);
}
);
width = 600;
}
);
note = uni2524;
unicode = 9508;
},
{
glyphname = uni252C;
lastChange = "2023-12-30 21:12:22 +0000";
layers = (
{
layerId = "58E25AC2-F473-41C5-84EA-658E208701C1";
shapes = (
{
closed = 1;
nodes = (
(-5,390,l),
(-5,310,l),
(260,310,l),
(260,-500,l),
(340,-500,l),
(340,310,l),
(605,310,l),
(605,390,l)
);
}
);
userData = {
assembly = "PUSHB[ ]	/* 4 values pushed */
6 2 1 48 
CALL[ ]	/* CallFunction */";
};
width = 600;
},
{
layerId = m01;
shapes = (
{
closed = 1;
nodes = (
(-5,390,l),
(-5,310,l),
(260,310,l),
(260,-500,l),
(340,-500,l),
(340,310,l),
(605,310,l),
(605,390,l)
);
}
);
width = 600;
}
);
note = uni252C;
unicode = 9516;
},
{
glyphname = uni2534;
lastChange = "2023-12-30 21:12:26 +0000";
layers = (
{
layerId = "58E25AC2-F473-41C5-84EA-658E208701C1";
shapes = (
{
closed = 1;
nodes = (
(260,1000,l),
(260,390,l),
(-5,390,l),
(-5,310,l),
(605,310,l),
(605,390,l),
(340,390,l),
(340,1000,l)
);
}
);
userData = {
assembly = "PUSHB[ ]	/* 4 values pushed */
6 2 1 48 
CALL[ ]	/* CallFunction */";
};
width = 600;
},
{
layerId = m01;
shapes = (
{
closed = 1;
nodes = (
(260,1000,l),
(260,390,l),
(-5,390,l),
(-5,310,l),
(605,310,l),
(605,390,l),
(340,390,l),
(340,1000,l)
);
}
);
width = 600;
}
);
note = uni2534;
unicode = 9524;
},
{
glyphname = uni253C;
lastChange = "2023-12-30 21:12:30 +0000";
layers = (
{
layerId = "58E25AC2-F473-41C5-84EA-658E208701C1";
shapes = (
{
closed = 1;
nodes = (
(260,1000,l),
(260,390,l),
(-5,390,l),
(-5,310,l),
(260,310,l),
(260,-500,l),
(340,-500,l),
(340,310,l),
(605,310,l),
(605,390,l),
(340,390,l),
(340,1000,l)
);
}
);
userData = {
assembly = "PUSHB[ ]	/* 4 values pushed */
10 4 1 48 
CALL[ ]	/* CallFunction */";
};
width = 600;
},
{
layerId = m01;
shapes = (
{
closed = 1;
nodes = (
(260,1000,l),
(260,390,l),
(-5,390,l),
(-5,310,l),
(260,310,l),
(260,-500,l),
(340,-500,l),
(340,310,l),
(605,310,l),
(605,390,l),
(340,390,l),
(340,1000,l)
);
}
);
width = 600;
}
);
note = uni253C;
unicode = 9532;
},
{
glyphname = dieresiscomb;
lastChange = "2023-12-29 16:25:04 +0000";
layers = (
{
anchors = (
{
name = _top;
pos = (300,631);
},
{
name = top;
pos = (300,820);
}
);
layerId = "58E25AC2-F473-41C5-84EA-658E208701C1";
shapes = (
{
closed = 1;
nodes = (
(250,630,l),
(250,740,l),
(140,740,l),
(140,630,l)
);
},
{
closed = 1;
nodes = (
(460,630,l),
(460,740,l),
(350,740,l),
(350,630,l)
);
}
);
width = 600;
},
{
anchors = (
{
name = _top;
pos = (300,630);
},
{
name = top;
pos = (300,820);
}
);
layerId = m01;
shapes = (
{
closed = 1;
nodes = (
(250,630,l),
(250,740,l),
(140,740,l),
(140,630,l)
);
},
{
closed = 1;
nodes = (
(460,630,l),
(460,740,l),
(350,740,l),
(350,630,l)
);
}
);
width = 600;
}
);
unicode = 776;
},
{
glyphname = dotaccentcomb;
lastChange = "2023-12-29 16:42:40 +0000";
layers = (
{
anchors = (
{
name = _top;
pos = (300,645);
},
{
name = top;
pos = (300,785);
}
);
layerId = "58E25AC2-F473-41C5-84EA-658E208701C1";
shapes = (
{
closed = 1;
nodes = (
(350,646,l),
(350,746,l),
(250,746,l),
(250,646,l)
);
}
);
width = 600;
},
{
anchors = (
{
name = _top;
pos = (300,620);
},
{
name = top;
pos = (300,800);
}
);
layerId = m01;
shapes = (
{
closed = 1;
nodes = (
(370,620,l),
(370,760,l),
(230,760,l),
(230,620,l)
);
}
);
width = 600;
}
);
unicode = 775;
},
{
glyphname = gravecomb;
lastChange = "2023-12-27 11:01:18 +0000";
layers = (
{
anchors = (
{
name = _top;
pos = (300,653);
}
);
layerId = "58E25AC2-F473-41C5-84EA-658E208701C1";
shapes = (
{
closed = 1;
nodes = (
(192,742,l),
(242,810,l),
(418,695,l),
(385,649,l)
);
}
);
width = 600;
},
{
anchors = (
{
name = _top;
pos = (300,642);
}
);
layerId = m01;
shapes = (
{
closed = 1;
nodes = (
(164,706,l),
(229,800,l),
(437,664,l),
(395,595,l)
);
}
);
width = 600;
}
);
unicode = 768;
},
{
glyphname = acutecomb;
lastChange = "2023-12-29 16:29:51 +0000";
layers = (
{
anchors = (
{
name = _top;
pos = (300,654);
}
);
layerId = "58E25AC2-F473-41C5-84EA-658E208701C1";
shapes = (
{
closed = 1;
nodes = (
(182,695,l),
(358,810,l),
(408,742,l),
(215,649,l)
);
}
);
width = 600;
},
{
anchors = (
{
name = _top;
pos = (300,595);
}
);
layerId = m01;
shapes = (
{
closed = 1;
nodes = (
(163,664,l),
(371,800,l),
(436,706,l),
(205,595,l)
);
}
);
width = 600;
}
);
unicode = 769;
},
{
glyphname = hungarumlautcomb;
lastChange = "2023-12-27 11:11:32 +0000";
layers = (
{
anchors = (
{
name = _top;
pos = (245,596);
}
);
layerId = "58E25AC2-F473-41C5-84EA-658E208701C1";
shapes = (
{
closed = 1;
nodes = (
(135,617,l),
(239,800,l),
(301,766,l),
(172,596,l)
);
},
{
closed = 1;
nodes = (
(283,631,l),
(408,800,l),
(466,758,l),
(317,605,l)
);
}
);
width = 600;
},
{
anchors = (
{
name = _top;
pos = (245,596);
}
);
layerId = m01;
shapes = (
{
closed = 1;
nodes = (
(89,639,l),
(213,854,l),
(314,800,l),
(158,596,l)
);
},
{
closed = 1;
nodes = (
(269,655,l),
(418,854,l),
(511,788,l),
(332,605,l)
);
}
);
width = 600;
}
);
unicode = 779;
},
{
glyphname = circumflexcomb;
lastChange = "2023-12-27 11:02:02 +0000";
layers = (
{
anchors = (
{
name = _top;
pos = (300,620);
},
{
name = top;
pos = (300,818);
}
);
layerId = "58E25AC2-F473-41C5-84EA-658E208701C1";
shapes = (
{
closed = 1;
nodes = (
(456,656,l),
(414,610,l),
(299,680,l),
(186,610,l),
(143,656,l),
(278,758,l),
(322,758,l)
);
}
);
width = 600;
},
{
anchors = (
{
name = _top;
pos = (300,631);
},
{
name = top;
pos = (300,875);
}
);
layerId = m01;
shapes = (
{
closed = 1;
nodes = (
(486,696,l),
(429,631,l),
(300,713,l),
(172,631,l),
(114,696,l),
(271,815,l),
(330,815,l)
);
}
);
width = 600;
}
);
unicode = 770;
},
{
glyphname = caroncomb;
lastChange = "2023-12-27 11:05:35 +0000";
layers = (
{
anchors = (
{
name = _top;
pos = (300,669);
},
{
name = top;
pos = (300,818);
}
);
layerId = "58E25AC2-F473-41C5-84EA-658E208701C1";
shapes = (
{
closed = 1;
nodes = (
(278,668,l),
(143,770,l),
(186,816,l),
(299,746,l),
(414,816,l),
(456,770,l),
(322,668,l)
);
}
);
width = 600;
},
{
anchors = (
{
name = _top;
pos = (300,691);
},
{
name = top;
pos = (300,875);
}
);
layerId = m01;
shapes = (
{
closed = 1;
nodes = (
(271,691,l),
(114,810,l),
(172,875,l),
(300,793,l),
(429,875,l),
(486,810,l),
(330,691,l)
);
}
);
width = 600;
}
);
unicode = 780;
},
{
glyphname = brevecomb;
lastChange = "2023-12-29 16:38:24 +0000";
layers = (
{
anchors = (
{
name = _top;
pos = (300,647);
},
{
name = top;
pos = (300,860);
}
);
layerId = "58E25AC2-F473-41C5-84EA-658E208701C1";
shapes = (
{
closed = 1;
nodes = (
(240,647,l),
(361,647,l),
(461,748,l),
(461,800,l),
(360,800,l),
(360,707,l),
(240,707,l),
(240,800,l),
(139,800,l),
(139,748,l)
);
}
);
width = 600;
},
{
anchors = (
{
name = _top;
pos = (300,606);
},
{
name = top;
pos = (300,860);
}
);
layerId = m01;
shapes = (
{
closed = 1;
nodes = (
(211,606,l),
(389,606,l),
(501,718,l),
(501,799,l),
(371,799,l),
(371,706,l),
(229,706,l),
(229,799,l),
(99,799,l),
(99,718,l)
);
}
);
width = 600;
}
);
unicode = 774;
},
{
glyphname = ringcomb;
lastChange = "2023-12-27 11:02:34 +0000";
layers = (
{
anchors = (
{
name = _top;
pos = (300,587);
},
{
name = top;
pos = (300,840);
}
);
layerId = "58E25AC2-F473-41C5-84EA-658E208701C1";
shapes = (
{
closed = 1;
nodes = (
(343,800,l),
(407,738,l),
(407,648,l),
(343,587,l),
(254,587,l),
(193,648,l),
(193,738,l),
(254,800,l)
);
},
{
closed = 1;
nodes = (
(245,717,l),
(245,670,l),
(277,639,l),
(322,639,l),
(355,670,l),
(355,717,l),
(322,748,l),
(277,748,l)
);
}
);
width = 600;
},
{
anchors = (
{
name = _top;
pos = (300,567);
},
{
name = top;
pos = (300,860);
}
);
layerId = m01;
shapes = (
{
closed = 1;
nodes = (
(348,800,l),
(417,732,l),
(417,634,l),
(348,567,l),
(250,567,l),
(183,634,l),
(183,732,l),
(250,800,l)
);
},
{
closed = 1;
nodes = (
(255,700,l),
(255,664,l),
(281,639,l),
(318,639,l),
(345,664,l),
(345,700,l),
(318,728,l),
(281,728,l)
);
}
);
width = 600;
}
);
unicode = 778;
},
{
glyphname = tildecomb;
lastChange = "2023-12-27 11:02:50 +0000";
layers = (
{
anchors = (
{
name = _top;
pos = (300,683);
},
{
name = top;
pos = (300,840);
}
);
layerId = "58E25AC2-F473-41C5-84EA-658E208701C1";
shapes = (
{
closed = 1;
nodes = (
(499,744,l),
(396,683,l),
(215,734,l),
(133,684,l),
(101,739,l),
(204,800,l),
(389,751,l),
(467,798,l)
);
}
);
width = 600;
},
{
anchors = (
{
name = _top;
pos = (300,647);
},
{
name = top;
pos = (300,860);
}
);
layerId = m01;
shapes = (
{
closed = 1;
nodes = (
(520,720,l),
(398,647,l),
(217,700,l),
(128,644,l),
(80,724,l),
(202,797,l),
(386,748,l),
(472,800,l)
);
}
);
width = 600;
}
);
unicode = 771;
},
{
glyphname = macroncomb;
lastChange = "2023-12-27 11:06:16 +0000";
layers = (
{
anchors = (
{
name = _top;
pos = (300,728);
},
{
name = top;
pos = (300,840);
}
);
layerId = "58E25AC2-F473-41C5-84EA-658E208701C1";
shapes = (
{
closed = 1;
nodes = (
(431,800,l),
(169,800,l),
(169,728,l),
(431,728,l)
);
}
);
width = 600;
},
{
anchors = (
{
name = _top;
pos = (300,687);
},
{
name = top;
pos = (300,860);
}
);
layerId = m01;
shapes = (
{
closed = 1;
nodes = (
(451,800,l),
(149,800,l),
(149,687,l),
(451,687,l)
);
}
);
width = 600;
}
);
unicode = 772;
},
{
glyphname = verticallineabovecomb;
lastChange = "2023-12-29 00:14:30 +0000";
layers = (
{
anchors = (
{
name = _top;
pos = (300,520);
},
{
name = top;
pos = (300,820);
}
);
layerId = "58E25AC2-F473-41C5-84EA-658E208701C1";
shapes = (
{
closed = 1;
nodes = (
(340,520,l),
(340,740,l),
(260,740,l),
(260,520,l)
);
}
);
width = 600;
},
{
anchors = (
{
name = _top;
pos = (300,520);
},
{
name = top;
pos = (300,820);
}
);
layerId = m01;
shapes = (
{
closed = 1;
nodes = (
(370,520,l),
(370,760,l),
(230,760,l),
(230,520,l)
);
}
);
width = 600;
}
);
unicode = 781;
},
{
glyphname = dblverticallineabovecomb;
lastChange = "2023-12-29 00:14:06 +0000";
layers = (
{
anchors = (
{
name = _top;
pos = (300,520);
},
{
name = top;
pos = (300,820);
}
);
layerId = "58E25AC2-F473-41C5-84EA-658E208701C1";
shapes = (
{
closed = 1;
nodes = (
(260,520,l),
(260,740,l),
(180,740,l),
(180,520,l)
);
},
{
closed = 1;
nodes = (
(420,520,l),
(420,740,l),
(340,740,l),
(340,520,l)
);
}
);
width = 600;
},
{
anchors = (
{
name = _top;
pos = (300,520);
},
{
name = top;
pos = (300,820);
}
);
layerId = m01;
shapes = (
{
closed = 1;
nodes = (
(260,520,l),
(260,760,l),
(120,760,l),
(120,520,l)
);
},
{
closed = 1;
nodes = (
(480,520,l),
(480,760,l),
(340,760,l),
(340,520,l)
);
}
);
width = 600;
}
);
unicode = 782;
},
{
glyphname = candraBinducomb;
lastChange = "2023-12-29 16:39:02 +0000";
layers = (
{
anchors = (
{
name = _top;
pos = (300,647);
},
{
name = top;
pos = (300,930);
}
);
layerId = "58E25AC2-F473-41C5-84EA-658E208701C1";
shapes = (
{
closed = 1;
nodes = (
(240,647,l),
(361,647,l),
(461,748,l),
(461,800,l),
(380,800,l),
(380,707,l),
(220,707,l),
(220,800,l),
(139,800,l),
(139,748,l)
);
},
{
closed = 1;
nodes = (
(350,775,l),
(350,875,l),
(250,875,l),
(250,775,l)
);
}
);
width = 600;
},
{
anchors = (
{
name = _top;
pos = (300,606);
},
{
name = top;
pos = (300,910);
}
);
layerId = m01;
shapes = (
{
closed = 1;
nodes = (
(211,606,l),
(389,606,l),
(501,718,l),
(501,799,l),
(381,799,l),
(381,706,l),
(219,706,l),
(219,799,l),
(99,799,l),
(99,718,l)
);
},
{
closed = 1;
nodes = (
(350,775,l),
(350,875,l),
(250,875,l),
(250,775,l)
);
}
);
width = 600;
}
);
unicode = 784;
},
{
glyphname = commaturnedabovecomb;
lastChange = "2023-12-28 23:58:25 +0000";
layers = (
{
anchors = (
{
name = _top;
pos = (300,500);
}
);
layerId = "58E25AC2-F473-41C5-84EA-658E208701C1";
shapes = (
{
closed = 1;
nodes = (
(230,500,l),
(230,762,l),
(317,850,l),
(358,787,l),
(310,737,l),
(310,633,l),
(370,633,l),
(370,500,l)
);
}
);
width = 600;
},
{
anchors = (
{
name = _top;
pos = (300,500);
}
);
layerId = m01;
shapes = (
{
closed = 1;
nodes = (
(209,500,l),
(209,790,l),
(320,901,l),
(383,804,l),
(330,749,l),
(330,673,l),
(391,673,l),
(391,500,l)
);
}
);
width = 600;
}
);
unicode = 786;
},
{
glyphname = commaabovecomb;
lastChange = "2023-12-29 00:20:41 +0000";
layers = (
{
anchors = (
{
name = _top;
pos = (300,450);
}
);
layerId = "58E25AC2-F473-41C5-84EA-658E208701C1";
shapes = (
{
closed = 1;
nodes = (
(370,800,l),
(370,538,l),
(283,450,l),
(242,513,l),
(290,563,l),
(290,667,l),
(230,667,l),
(230,800,l)
);
}
);
width = 600;
},
{
anchors = (
{
name = _top;
pos = (300,400);
}
);
layerId = m01;
shapes = (
{
closed = 1;
nodes = (
(391,800,l),
(391,510,l),
(280,399,l),
(217,496,l),
(270,551,l),
(270,627,l),
(209,627,l),
(209,800,l)
);
}
);
width = 600;
}
);
unicode = 787;
},
{
glyphname = commareversedabovecomb;
lastChange = "2023-12-29 00:00:55 +0000";
layers = (
{
anchors = (
{
name = _top;
pos = (300,450);
}
);
layerId = "58E25AC2-F473-41C5-84EA-658E208701C1";
shapes = (
{
closed = 1;
nodes = (
(370,667,l),
(310,667,l),
(310,563,l),
(358,513,l),
(317,450,l),
(230,538,l),
(230,800,l),
(370,800,l)
);
}
);
width = 600;
},
{
anchors = (
{
name = _top;
pos = (300,399);
}
);
layerId = m01;
shapes = (
{
closed = 1;
nodes = (
(391,627,l),
(330,627,l),
(330,551,l),
(383,496,l),
(320,399,l),
(209,510,l),
(209,800,l),
(391,800,l)
);
}
);
width = 600;
}
);
unicode = 788;
},
{
glyphname = gravebelowcomb;
lastChange = "2023-12-29 00:12:08 +0000";
layers = (
{
anchors = (
{
name = _bottom;
pos = (300,40);
}
);
layerId = "58E25AC2-F473-41C5-84EA-658E208701C1";
shapes = (
{
closed = 1;
nodes = (
(192,-68,l),
(242,0,l),
(418,-115,l),
(385,-161,l)
);
}
);
width = 600;
},
{
anchors = (
{
name = _bottom;
pos = (300,70);
}
);
layerId = m01;
shapes = (
{
closed = 1;
nodes = (
(164,-94,l),
(229,0,l),
(437,-136,l),
(395,-205,l)
);
}
);
width = 600;
}
);
unicode = 790;
},
{
glyphname = acutebelowcomb;
lastChange = "2023-12-29 00:12:23 +0000";
layers = (
{
anchors = (
{
name = _bottom;
pos = (300,40);
}
);
layerId = "58E25AC2-F473-41C5-84EA-658E208701C1";
shapes = (
{
closed = 1;
nodes = (
(182,-115,l),
(358,0,l),
(408,-68,l),
(215,-161,l)
);
}
);
width = 600;
},
{
anchors = (
{
name = _bottom;
pos = (300,60);
}
);
layerId = m01;
shapes = (
{
closed = 1;
nodes = (
(163,-136,l),
(371,0,l),
(436,-94,l),
(205,-205,l)
);
}
);
width = 600;
}
);
unicode = 791;
},
{
glyphname = dotbelowcomb;
lastChange = "2023-12-28 23:49:52 +0000";
layers = (
{
anchors = (
{
name = _bottomCenter;
pos = (300,-60);
},
{
name = bottomCenter;
pos = (300,-200);
}
);
layerId = "58E25AC2-F473-41C5-84EA-658E208701C1";
shapes = (
{
closed = 1;
nodes = (
(350,-160,l),
(350,-60,l),
(250,-60,l),
(250,-160,l)
);
}
);
width = 600;
},
{
anchors = (
{
name = _bottomCenter;
pos = (300,-60);
},
{
name = bottomCenter;
pos = (300,-260);
}
);
layerId = m01;
shapes = (
{
closed = 1;
nodes = (
(370,-200,l),
(370,-60,l),
(230,-60,l),
(230,-200,l)
);
}
);
width = 600;
}
);
unicode = 803;
},
{
glyphname = dieresisbelowcomb;
lastChange = "2023-12-27 12:16:13 +0000";
layers = (
{
anchors = (
{
name = _bottomCenter;
pos = (300,-40);
},
{
name = bottom;
pos = (300,-200);
}
);
layerId = "58E25AC2-F473-41C5-84EA-658E208701C1";
shapes = (
{
closed = 1;
nodes = (
(250,-150,l),
(250,-40,l),
(140,-40,l),
(140,-150,l)
);
},
{
closed = 1;
nodes = (
(460,-150,l),
(460,-40,l),
(350,-40,l),
(350,-150,l)
);
}
);
width = 600;
},
{
anchors = (
{
name = _bottomCenter;
pos = (300,-60);
},
{
name = bottom;
pos = (300,-220);
}
);
layerId = m01;
shapes = (
{
closed = 1;
nodes = (
(250,-170,l),
(250,-60,l),
(140,-60,l),
(140,-170,l)
);
},
{
closed = 1;
nodes = (
(460,-170,l),
(460,-60,l),
(350,-60,l),
(350,-170,l)
);
}
);
width = 600;
}
);
unicode = 804;
},
{
glyphname = ringbelowcomb;
lastChange = "2023-12-27 12:26:55 +0000";
layers = (
{
anchors = (
{
name = _bottomCenter;
pos = (300,-40);
},
{
name = bottom;
pos = (300,-313);
}
);
layerId = "58E25AC2-F473-41C5-84EA-658E208701C1";
shapes = (
{
closed = 1;
nodes = (
(343,-40,l),
(407,-102,l),
(407,-192,l),
(343,-253,l),
(254,-253,l),
(193,-192,l),
(193,-102,l),
(254,-40,l)
);
},
{
closed = 1;
nodes = (
(245,-123,l),
(245,-170,l),
(277,-201,l),
(322,-201,l),
(355,-170,l),
(355,-123,l),
(322,-92,l),
(277,-92,l)
);
}
);
width = 600;
},
{
anchors = (
{
name = _bottomCenter;
pos = (300,-60);
},
{
name = bottom;
pos = (300,-353);
}
);
layerId = m01;
shapes = (
{
closed = 1;
nodes = (
(348,-60,l),
(417,-128,l),
(417,-226,l),
(348,-293,l),
(250,-293,l),
(183,-226,l),
(183,-128,l),
(250,-60,l)
);
},
{
closed = 1;
nodes = (
(255,-158,l),
(255,-196,l),
(281,-221,l),
(318,-221,l),
(345,-196,l),
(345,-158,l),
(318,-132,l),
(281,-132,l)
);
}
);
width = 600;
}
);
unicode = 805;
},
{
glyphname = commaaccentcomb;
lastChange = "2023-12-27 12:37:16 +0000";
layers = (
{
anchors = (
{
name = _bottomCenter;
pos = (300,-40);
},
{
name = bottom;
pos = (300,-294);
}
);
layerId = "58E25AC2-F473-41C5-84EA-658E208701C1";
shapes = (
{
closed = 1;
nodes = (
(217,-223,l),
(321,-40,l),
(383,-74,l),
(254,-244,l)
);
}
);
width = 600;
},
{
anchors = (
{
name = _bottomCenter;
pos = (300,-60);
},
{
name = bottom;
pos = (300,-378);
}
);
layerId = m01;
shapes = (
{
closed = 1;
nodes = (
(188,-275,l),
(312,-60,l),
(413,-114,l),
(257,-318,l)
);
}
);
width = 600;
}
);
unicode = 806;
},
{
glyphname = cedillacomb;
lastChange = "2023-12-27 11:03:30 +0000";
layers = (
{
anchors = (
{
name = _bottom;
pos = (300,-10);
},
{
name = bottom;
pos = (300,-200);
}
);
layerId = "58E25AC2-F473-41C5-84EA-658E208701C1";
shapes = (
{
closed = 1;
nodes = (
(250,-176,l),
(330,-176,l),
(410,-109,l),
(410,-78,l),
(335,0,l),
(250,0,l),
(350,-114,l),
(250,-114,l)
);
}
);
width = 600;
},
{
anchors = (
{
name = _bottom;
pos = (300,-5);
},
{
name = bottom;
pos = (300,-276);
}
);
layerId = m01;
shapes = (
{
closed = 1;
nodes = (
(230,-225,l),
(350,-225,l),
(430,-159,l),
(430,-98,l),
(350,0,l),
(230,0,l),
(330,-139,l),
(230,-139,l)
);
}
);
width = 600;
}
);
unicode = 807;
},
{
glyphname = ogonekcomb;
lastChange = "2023-12-27 11:06:41 +0000";
layers = (
{
anchors = (
{
name = _bottom;
pos = (340,-10);
},
{
name = bottom;
pos = (300,-200);
}
);
layerId = "58E25AC2-F473-41C5-84EA-658E208701C1";
shapes = (
{
closed = 1;
nodes = (
(380,-176,l),
(300,-176,l),
(220,-109,l),
(220,-78,l),
(295,0,l),
(380,0,l),
(280,-114,l),
(380,-114,l)
);
}
);
width = 600;
},
{
anchors = (
{
name = _bottom;
pos = (340,-10);
},
{
name = bottom;
pos = (300,-276);
}
);
layerId = m01;
shapes = (
{
closed = 1;
nodes = (
(400,-226,l),
(280,-226,l),
(200,-159,l),
(200,-98,l),
(280,0,l),
(400,0,l),
(300,-139,l),
(400,-139,l)
);
}
);
width = 600;
}
);
unicode = 808;
},
{
glyphname = circumflexbelowcomb;
lastChange = "2023-12-27 12:53:44 +0000";
layers = (
{
anchors = (
{
name = _bottomCenter;
pos = (300,-39);
},
{
name = bottom;
pos = (300,-234);
}
);
layerId = "58E25AC2-F473-41C5-84EA-658E208701C1";
shapes = (
{
closed = 1;
nodes = (
(456,-142,l),
(414,-188,l),
(299,-118,l),
(186,-188,l),
(143,-142,l),
(278,-40,l),
(322,-40,l)
);
}
);
width = 600;
},
{
anchors = (
{
name = _bottomCenter;
pos = (300,-59);
},
{
name = bottom;
pos = (300,-274);
}
);
layerId = m01;
shapes = (
{
closed = 1;
nodes = (
(486,-179,l),
(429,-244,l),
(300,-162,l),
(172,-244,l),
(114,-179,l),
(271,-60,l),
(330,-60,l)
);
}
);
width = 600;
}
);
unicode = 813;
},
{
glyphname = brevebelowcomb;
lastChange = "2023-12-29 02:04:33 +0000";
layers = (
{
anchors = (
{
name = _bottomCenter;
pos = (300,-40);
},
{
name = bottom;
pos = (300,-273);
}
);
layerId = "58E25AC2-F473-41C5-84EA-658E208701C1";
shapes = (
{
closed = 1;
nodes = (
(240,-193,l),
(361,-193,l),
(461,-93,l),
(461,-40,l),
(360,-40,l),
(360,-133,l),
(240,-133,l),
(240,-40,l),
(139,-40,l),
(139,-93,l)
);
}
);
width = 600;
},
{
anchors = (
{
name = _bottomCenter;
pos = (300,-60);
},
{
name = bottom;
pos = (300,-313);
}
);
layerId = m01;
shapes = (
{
closed = 1;
nodes = (
(211,-253,l),
(389,-253,l),
(501,-141,l),
(501,-60,l),
(371,-60,l),
(371,-153,l),
(229,-153,l),
(229,-60,l),
(99,-60,l),
(99,-141,l)
);
}
);
width = 600;
}
);
unicode = 814;
},
{
glyphname = macronbelowcomb;
lastChange = "2023-12-27 12:40:38 +0000";
layers = (
{
anchors = (
{
name = _bottomCenter;
pos = (300,-40);
},
{
name = bottom;
pos = (300,-152);
}
);
layerId = "58E25AC2-F473-41C5-84EA-658E208701C1";
shapes = (
{
closed = 1;
nodes = (
(431,-40,l),
(169,-40,l),
(169,-112,l),
(431,-112,l)
);
}
);
width = 600;
},
{
anchors = (
{
name = _bottomCenter;
pos = (300,-60);
},
{
name = bottom;
pos = (300,-233);
}
);
layerId = m01;
shapes = (
{
closed = 1;
nodes = (
(451,-60,l),
(149,-60,l),
(149,-173,l),
(451,-173,l)
);
}
);
width = 600;
}
);
unicode = 817;
},
{
glyphname = strokeshortcomb;
lastChange = "2023-12-29 01:30:28 +0000";
layers = (
{
anchors = (
{
name = _stroke;
pos = (300,300);
}
);
layerId = "58E25AC2-F473-41C5-84EA-658E208701C1";
shapes = (
{
closed = 1;
nodes = (
(430,336,l),
(170,336,l),
(170,264,l),
(430,264,l)
);
}
);
width = 600;
},
{
anchors = (
{
name = _stroke;
pos = (300,300);
}
);
layerId = m01;
shapes = (
{
closed = 1;
nodes = (
(430,356,l),
(170,356,l),
(170,244,l),
(430,244,l)
);
}
);
width = 600;
}
);
unicode = 821;
},
{
glyphname = slashshortcomb;
lastChange = "2023-12-29 01:49:26 +0000";
layers = (
{
anchors = (
{
name = _slash;
pos = (300,300);
}
);
layerId = "58E25AC2-F473-41C5-84EA-658E208701C1";
shapes = (
{
closed = 1;
nodes = (
(446,619,l),
(201,-100,l),
(134,-77,l),
(378,642,l)
);
}
);
width = 600;
},
{
anchors = (
{
name = _slash;
pos = (300,300);
}
);
layerId = m01;
shapes = (
{
closed = 1;
nodes = (
(465,613,l),
(221,-106,l),
(116,-71,l),
(360,648,l)
);
}
);
width = 600;
}
);
unicode = 823;
},
{
glyphname = slashlongcomb;
lastChange = "2023-12-29 02:18:05 +0000";
layers = (
{
anchors = (
{
name = _slash;
pos = (300,300);
}
);
layerId = "58E25AC2-F473-41C5-84EA-658E208701C1";
shapes = (
{
closed = 1;
nodes = (
(136,-72,l),
(203,-95,l),
(492,754,l),
(424,777,l)
);
}
);
width = 600;
},
{
anchors = (
{
name = _slash;
pos = (300,300);
}
);
layerId = m01;
shapes = (
{
closed = 1;
nodes = (
(110,-87,l),
(215,-122,l),
(517,767,l),
(412,802,l)
);
}
);
width = 600;
}
);
unicode = 824;
},
{
glyphname = dieresis;
lastChange = "2023-12-29 05:44:43 +0000";
layers = (
{
layerId = "58E25AC2-F473-41C5-84EA-658E208701C1";
shapes = (
{
closed = 1;
nodes = (
(250,630,l),
(250,740,l),
(140,740,l),
(140,630,l)
);
},
{
closed = 1;
nodes = (
(460,630,l),
(460,740,l),
(350,740,l),
(350,630,l)
);
}
);
width = 600;
},
{
layerId = m01;
shapes = (
{
closed = 1;
nodes = (
(260,620,l),
(260,760,l),
(120,760,l),
(120,620,l)
);
},
{
closed = 1;
nodes = (
(480,620,l),
(480,760,l),
(340,760,l),
(340,620,l)
);
}
);
width = 600;
}
);
unicode = 168;
},
{
glyphname = dotaccent;
lastChange = "2023-12-29 05:44:46 +0000";
layers = (
{
layerId = "58E25AC2-F473-41C5-84EA-658E208701C1";
shapes = (
{
closed = 1;
nodes = (
(350,630,l),
(350,730,l),
(250,730,l),
(250,630,l)
);
}
);
width = 600;
},
{
layerId = m01;
shapes = (
{
closed = 1;
nodes = (
(370,620,l),
(370,760,l),
(230,760,l),
(230,620,l)
);
}
);
width = 600;
}
);
unicode = 729;
},
{
glyphname = grave;
lastChange = "2023-12-29 05:44:48 +0000";
layers = (
{
layerId = "58E25AC2-F473-41C5-84EA-658E208701C1";
shapes = (
{
closed = 1;
nodes = (
(192,742,l),
(242,810,l),
(418,695,l),
(385,649,l)
);
}
);
width = 600;
},
{
layerId = m01;
shapes = (
{
closed = 1;
nodes = (
(164,706,l),
(229,800,l),
(437,664,l),
(395,595,l)
);
}
);
width = 600;
}
);
unicode = 96;
},
{
glyphname = acute;
lastChange = "2023-12-29 05:42:38 +0000";
layers = (
{
layerId = "58E25AC2-F473-41C5-84EA-658E208701C1";
shapes = (
{
closed = 1;
nodes = (
(182,695,l),
(358,810,l),
(408,742,l),
(215,649,l)
);
}
);
width = 600;
},
{
layerId = m01;
shapes = (
{
closed = 1;
nodes = (
(163,664,l),
(371,800,l),
(436,706,l),
(205,595,l)
);
}
);
width = 600;
}
);
unicode = 180;
},
{
glyphname = hungarumlaut;
lastChange = "2023-12-29 05:44:51 +0000";
layers = (
{
layerId = "58E25AC2-F473-41C5-84EA-658E208701C1";
shapes = (
{
closed = 1;
nodes = (
(135,617,l),
(239,800,l),
(301,766,l),
(172,596,l)
);
},
{
closed = 1;
nodes = (
(283,631,l),
(408,800,l),
(466,758,l),
(317,605,l)
);
}
);
width = 600;
},
{
layerId = m01;
shapes = (
{
closed = 1;
nodes = (
(89,639,l),
(213,854,l),
(314,800,l),
(158,596,l)
);
},
{
closed = 1;
nodes = (
(269,655,l),
(418,854,l),
(511,788,l),
(332,605,l)
);
}
);
width = 600;
}
);
unicode = 733;
},
{
glyphname = circumflex;
lastChange = "2023-12-29 05:44:36 +0000";
layers = (
{
layerId = "58E25AC2-F473-41C5-84EA-658E208701C1";
shapes = (
{
closed = 1;
nodes = (
(456,656,l),
(414,610,l),
(299,680,l),
(186,610,l),
(143,656,l),
(278,758,l),
(322,758,l)
);
}
);
width = 600;
},
{
layerId = m01;
shapes = (
{
closed = 1;
nodes = (
(486,696,l),
(429,631,l),
(300,713,l),
(172,631,l),
(114,696,l),
(271,815,l),
(330,815,l)
);
}
);
width = 600;
}
);
unicode = 710;
},
{
glyphname = caron;
lastChange = "2023-12-29 05:43:14 +0000";
layers = (
{
layerId = "58E25AC2-F473-41C5-84EA-658E208701C1";
shapes = (
{
closed = 1;
nodes = (
(278,668,l),
(143,770,l),
(186,816,l),
(299,746,l),
(414,816,l),
(456,770,l),
(322,668,l)
);
}
);
width = 600;
},
{
layerId = m01;
shapes = (
{
closed = 1;
nodes = (
(271,691,l),
(114,810,l),
(172,875,l),
(300,793,l),
(429,875,l),
(486,810,l),
(330,691,l)
);
}
);
width = 600;
}
);
unicode = 711;
},
{
glyphname = breve;
lastChange = "2023-12-29 16:39:07 +0000";
layers = (
{
layerId = "58E25AC2-F473-41C5-84EA-658E208701C1";
shapes = (
{
closed = 1;
nodes = (
(240,647,l),
(361,647,l),
(461,748,l),
(461,800,l),
(360,800,l),
(360,707,l),
(240,707,l),
(240,800,l),
(139,800,l),
(139,748,l)
);
}
);
width = 600;
},
{
layerId = m01;
shapes = (
{
closed = 1;
nodes = (
(211,606,l),
(389,606,l),
(501,718,l),
(501,799,l),
(371,799,l),
(371,706,l),
(229,706,l),
(229,799,l),
(99,799,l),
(99,718,l)
);
}
);
width = 600;
}
);
unicode = 728;
},
{
glyphname = ring;
lastChange = "2023-12-29 05:45:02 +0000";
layers = (
{
layerId = "58E25AC2-F473-41C5-84EA-658E208701C1";
shapes = (
{
closed = 1;
nodes = (
(343,800,l),
(407,738,l),
(407,648,l),
(343,587,l),
(254,587,l),
(193,648,l),
(193,738,l),
(254,800,l)
);
},
{
closed = 1;
nodes = (
(245,717,l),
(245,670,l),
(277,639,l),
(322,639,l),
(355,670,l),
(355,717,l),
(322,748,l),
(277,748,l)
);
}
);
width = 600;
},
{
layerId = m01;
shapes = (
{
closed = 1;
nodes = (
(348,800,l),
(417,732,l),
(417,634,l),
(348,567,l),
(250,567,l),
(183,634,l),
(183,732,l),
(250,800,l)
);
},
{
closed = 1;
nodes = (
(255,700,l),
(255,664,l),
(281,639,l),
(318,639,l),
(345,664,l),
(345,700,l),
(318,728,l),
(281,728,l)
);
}
);
width = 600;
}
);
unicode = 730;
},
{
glyphname = tilde;
lastChange = "2023-12-29 05:45:05 +0000";
layers = (
{
layerId = "58E25AC2-F473-41C5-84EA-658E208701C1";
shapes = (
{
closed = 1;
nodes = (
(499,744,l),
(396,683,l),
(215,734,l),
(133,684,l),
(101,739,l),
(204,800,l),
(389,751,l),
(467,798,l)
);
}
);
width = 600;
},
{
layerId = m01;
shapes = (
{
closed = 1;
nodes = (
(520,720,l),
(398,647,l),
(217,700,l),
(128,644,l),
(80,724,l),
(202,797,l),
(386,748,l),
(472,800,l)
);
}
);
width = 600;
}
);
unicode = 732;
},
{
glyphname = macron;
lastChange = "2023-12-29 05:44:54 +0000";
layers = (
{
layerId = "58E25AC2-F473-41C5-84EA-658E208701C1";
shapes = (
{
closed = 1;
nodes = (
(431,800,l),
(169,800,l),
(169,728,l),
(431,728,l)
);
}
);
width = 600;
},
{
layerId = m01;
shapes = (
{
closed = 1;
nodes = (
(451,800,l),
(149,800,l),
(149,687,l),
(451,687,l)
);
}
);
width = 600;
}
);
unicode = 175;
},
